<svg id="Group_1249" data-name="Group 1249" xmlns="http://www.w3.org/2000/svg" xmlns:xlink="http://www.w3.org/1999/xlink" width="243.952" height="49.072" viewBox="0 0 243.952 49.072">
  <defs>
    <clipPath id="clip-path">
      <rect id="Rectangle_775" data-name="Rectangle 775" width="243.952" height="49.072" fill="none"/>
    </clipPath>
  </defs>
  <path id="Path_2307" data-name="Path 2307" d="M727.671,44.731,720.365,70.76h-.485l-7.549-19.695-7.7,19.695h-.485l-7.184-26.029h2.6l5.194,18.757,7.306-18.757h.519L719.8,63.488l5.3-18.757Z" transform="translate(-527.436 -33.851)" fill="#817D9C"/>
  <g id="Group_1233" data-name="Group 1233">
    <g id="Group_1232" data-name="Group 1232" clip-path="url(#clip-path)">
      <path id="Path_2308" data-name="Path 2308" d="M35.454,16.794H20.21V1.55A1.55,1.55,0,0,0,18.66,0H1.55A1.55,1.55,0,0,0,0,1.55v33.9A1.55,1.55,0,0,0,1.55,37h33.9A1.55,1.55,0,0,0,37,35.454V18.344a1.55,1.55,0,0,0-1.55-1.55M3.417,4.45A1.033,1.033,0,0,1,4.45,3.417H15.76A1.033,1.033,0,0,1,16.794,4.45V16.794H3.417ZM16.794,33.587H4.45a1.033,1.033,0,0,1-1.033-1.033V20.21H16.794Zm16.794-1.033a1.033,1.033,0,0,1-1.033,1.033H20.21V20.21H32.554a1.034,1.034,0,0,1,1.033,1.033Z" fill="#182C57"/>
      <path id="Path_2309" data-name="Path 2309" d="M113.6,0h-8.834a1.19,1.19,0,0,0-.841,2.031l9.428,9.428a1.19,1.19,0,0,0,2.031-.841V1.785A1.785,1.785,0,0,0,113.6,0" transform="translate(-78.385)" fill="#07b6b6"/>
      <path id="Path_2310" data-name="Path 2310" d="M215.894,63.162a7.713,7.713,0,0,1-1.065,3.941,6.856,6.856,0,0,1-2.9,2.754,10.659,10.659,0,0,1-4.83.9h-7.133V44.73h4a20.665,20.665,0,0,1,5.09.459,6.831,6.831,0,0,1,3.584,2.245,6.193,6.193,0,0,1-1.212,8.98,7.072,7.072,0,0,1,4.466,6.747M209.333,52.09q0-2.654-3.277-2.654h-1.242v5.486h1.052q3.467,0,3.467-2.831M211.116,63q0-3.637-5.3-3.637h-1v6.689h1.209a9.868,9.868,0,0,0,3.367-.426A2.59,2.59,0,0,0,211.116,63" transform="translate(-151.328 -33.85)" fill="#182C57"/>
      <path id="Path_2311" data-name="Path 2311" d="M297.274,81.158l-.018.92H282.091a5.1,5.1,0,0,0,1.8,3.287,5.543,5.543,0,0,0,3.6,1.172,6.249,6.249,0,0,0,4.547-1.876l3.977,1.911A10.1,10.1,0,0,1,277.5,80.786a10.263,10.263,0,0,1,2.744-7.3,9.174,9.174,0,0,1,7-2.928,9.584,9.584,0,0,1,7.236,2.9,10.4,10.4,0,0,1,2.788,7.7m-4.778-2.9a4.681,4.681,0,0,0-1.881-2.628,5.4,5.4,0,0,0-3.14-.964,5.565,5.565,0,0,0-3.451,1.121,6.248,6.248,0,0,0-1.725,2.471Z" transform="translate(-210.005 -53.397)" fill="#182C57"/>
      <path id="Path_2312" data-name="Path 2312" d="M460.686,80.662a10.339,10.339,0,0,1-1.316,5.1,9.583,9.583,0,0,1-3.61,3.707,9.846,9.846,0,0,1-5.046,1.336,9.271,9.271,0,0,1-6.942-2.946,9.932,9.932,0,0,1-2.839-7.157,9.8,9.8,0,0,1,3.237-7.52,9.306,9.306,0,0,1,6.527-2.619,9.866,9.866,0,0,1,5.012,1.354,9.656,9.656,0,0,1,3.662,3.7,10.158,10.158,0,0,1,1.316,5.052m-4.8.018a5.781,5.781,0,0,0-1.4-3.977,5.139,5.139,0,0,0-7.453.044,5.742,5.742,0,0,0-1.38,3.934,5.835,5.835,0,0,0,1.363,3.969,4.681,4.681,0,0,0,3.727,1.64,4.733,4.733,0,0,0,3.744-1.64,5.79,5.79,0,0,0,1.4-3.969" transform="translate(-333.684 -53.396)" fill="#182C57"/>
      <path id="Path_2313" data-name="Path 2313" d="M547.512,90.305H542.82v-8.43q0-2.633-.086-3.34a4.379,4.379,0,0,0-1.258-2.969,2.963,2.963,0,0,0-1.861-.583q-3.033,0-3.877,3.694a22.406,22.406,0,0,0-.206,3.906v7.724h-4.726V71.053h4.726v1.964a8.712,8.712,0,0,1,5.584-2.46,6.361,6.361,0,0,1,4.754,2,6.923,6.923,0,0,1,1.642,5.025Z" transform="translate(-401.697 -53.396)" fill="#182C57"/>
      <path id="Path_2314" data-name="Path 2314" d="M622.925,44.992v6.6a7.982,7.982,0,0,0-5.933-2.618c-.157,0-.315,0-.466.012a7.913,7.913,0,0,0-6.019,3.084,10.156,10.156,0,0,0-.839,1.2,11.167,11.167,0,0,0-1.511,5.856,10.573,10.573,0,0,0,2.473,7.009,8.164,8.164,0,0,0,12.295.549v2.032h4.724V42.038ZM621.784,63.1a4.768,4.768,0,0,1-3.8,1.678,4.658,4.658,0,0,1-3.725-1.711,5.953,5.953,0,0,1-1.382-3.987,5.885,5.885,0,0,1,1.363-3.969,4.7,4.7,0,0,1,3.728-1.659,4.783,4.783,0,0,1,3.762,1.6,5.824,5.824,0,0,1,1.415,4.012,6.016,6.016,0,0,1-1.366,4.04" transform="translate(-460.233 -31.813)" fill="#182C57"/>
      <path id="Path_2315" data-name="Path 2315" d="M836.432,90.306h-2.406V87a9.353,9.353,0,0,1-7.558,3.8,9.038,9.038,0,0,1-6.883-3.008,10.1,10.1,0,0,1-2.767-7.166,9.92,9.92,0,0,1,2.828-7.113,9.178,9.178,0,0,1,6.892-2.955,8.747,8.747,0,0,1,7.488,4.034V71.054h2.406Zm-2.251-9.52a7.833,7.833,0,0,0-2.116-5.561,6.991,6.991,0,0,0-5.328-2.26,6.908,6.908,0,0,0-6.443,3.866,7.929,7.929,0,0,0,0,7.777,7.526,7.526,0,0,0,2.738,2.878,7.037,7.037,0,0,0,3.688,1.033,7.432,7.432,0,0,0,3.765-1.024,7.087,7.087,0,0,0,2.738-2.772,8.056,8.056,0,0,0,.958-3.937" transform="translate(-618.141 -53.397)" fill="#817D9C"/>
      <path id="Path_2316" data-name="Path 2316" d="M910.447,43.565V68.721h2.442V42.038Z" transform="translate(-688.997 -31.813)" fill="#817D9C"/>
      <path id="Path_2317" data-name="Path 2317" d="M938,43.565V68.721h2.442V42.038Z" transform="translate(-709.845 -31.813)" fill="#817D9C"/>
      <path id="Path_2318" data-name="Path 2318" d="M967.947,85.13a5.448,5.448,0,0,1-1.645,4.059,5.563,5.563,0,0,1-4.051,1.613,6.634,6.634,0,0,1-5.557-2.725l1.524-1.77a5.244,5.244,0,0,0,3.921,2.123,3.627,3.627,0,0,0,2.427-.909,2.882,2.882,0,0,0,1.062-2.286,3.137,3.137,0,0,0-1.261-2.453,14.9,14.9,0,0,0-2.453-1.483,10.962,10.962,0,0,1-3.057-2.176,4.991,4.991,0,0,1-1.313-3.468,4.871,4.871,0,0,1,1.48-3.672,5.1,5.1,0,0,1,3.678-1.424q2.6,0,5.229,2.6L966.375,74.8a5.537,5.537,0,0,0-3.783-1.911,2.928,2.928,0,0,0-1.987.757,2.4,2.4,0,0,0-.864,1.883q0,1.9,3.593,3.8a12.561,12.561,0,0,1,3.213,2.233,5.021,5.021,0,0,1,1.4,3.562" transform="translate(-723.994 -53.396)" fill="#817D9C"/>
      <path id="Path_2319" data-name="Path 2319" d="M378.774,72.6l-13.3,29.616h-4.882l5.369-11.8L358.8,72.6h4.848l4.891,12.085L373.927,72.6Z" transform="translate(-271.525 -54.938)" fill="#182C57"/>
      <path id="Path_2320" data-name="Path 2320" d="M469.532,174.692h-1.18V171.93h-2.066v2.762H465.1V168.4h1.184v2.373h2.066V168.4h1.18Z" transform="translate(-351.974 -127.442)" fill="#07b6b6"/>
      <path id="Path_2321" data-name="Path 2321" d="M492.422,177.083a2.5,2.5,0,0,1-.318,1.231,2.319,2.319,0,0,1-.872.9,2.38,2.38,0,0,1-1.219.323,2.24,2.24,0,0,1-1.677-.712,2.4,2.4,0,0,1-.686-1.73,2.369,2.369,0,0,1,.782-1.817,2.249,2.249,0,0,1,1.577-.633,2.384,2.384,0,0,1,1.211.327,2.334,2.334,0,0,1,.885.894,2.455,2.455,0,0,1,.318,1.22m-1.159,0a1.4,1.4,0,0,0-.338-.961,1.241,1.241,0,0,0-1.8.011,1.386,1.386,0,0,0-.334.95,1.409,1.409,0,0,0,.329.959,1.131,1.131,0,0,0,.9.4,1.144,1.144,0,0,0,.9-.4,1.4,1.4,0,0,0,.338-.959" transform="translate(-369.037 -132.163)" fill="#07b6b6"/>
      <path id="Path_2322" data-name="Path 2322" d="M518.058,179.415H516.9v-2.357a2.788,2.788,0,0,0-.1-.893.656.656,0,0,0-.665-.457.877.877,0,0,0-.87.641,3,3,0,0,0-.113.969v2.1H514v-2.25q0-1.047-.36-1.32a.7.7,0,0,0-.435-.137.875.875,0,0,0-.862.658,3.008,3.008,0,0,0-.117.982v2.067h-1.15v-4.652h1.15v.534a1.843,1.843,0,0,1,1.432-.654,1.4,1.4,0,0,1,1.324.838,1.747,1.747,0,0,1,1.533-.838,1.61,1.61,0,0,1,.817.209,1.3,1.3,0,0,1,.57.624,3.327,3.327,0,0,1,.159,1.21Z" transform="translate(-386.763 -132.164)" fill="#07b6b6"/>
      <path id="Path_2323" data-name="Path 2323" d="M548.112,177.2v.222h-3.664a1.232,1.232,0,0,0,.434.794,1.338,1.338,0,0,0,.869.283,1.511,1.511,0,0,0,1.1-.453l.961.462a2.439,2.439,0,0,1-4.472-1.4,2.48,2.48,0,0,1,.663-1.763,2.217,2.217,0,0,1,1.692-.708,2.316,2.316,0,0,1,1.749.7,2.511,2.511,0,0,1,.673,1.86m-1.154-.7a1.132,1.132,0,0,0-.454-.635,1.309,1.309,0,0,0-.759-.233,1.343,1.343,0,0,0-.834.271,1.5,1.5,0,0,0-.417.6Z" transform="translate(-411.178 -132.164)" fill="#07b6b6"/>
      <path id="Path_2324" data-name="Path 2324" d="M570.905,170.186a1.923,1.923,0,0,0-1.569-.749,1.958,1.958,0,0,0-1.438.632v-2.306l-1.136.71v5.735H567.9v-.494a1.977,1.977,0,0,0,2.977-.131,2.565,2.565,0,0,0,.6-1.693,2.63,2.63,0,0,0-.567-1.7m-.91,2.657a1.132,1.132,0,0,1-.9.413,1.156,1.156,0,0,1-.917-.406,1.456,1.456,0,0,1-.328-.975,1.411,1.411,0,0,1,.333-.963,1.161,1.161,0,0,1,.912-.392,1.136,1.136,0,0,1,.9.4,1.421,1.421,0,0,1,.333.961,1.445,1.445,0,0,1-.333.963" transform="translate(-428.908 -126.958)" fill="#07b6b6"/>
      <path id="Path_2325" data-name="Path 2325" d="M593.993,177.1a4.933,4.933,0,0,1-.188,1.667,1.791,1.791,0,0,1-1.815,1.133,1.75,1.75,0,0,1-1.862-1.3,5.976,5.976,0,0,1-.133-1.539v-1.937h1.159v2.238a4.566,4.566,0,0,0,.038.709.885.885,0,0,0,.333.594.78.78,0,0,0,.475.141.756.756,0,0,0,.774-.546,3.2,3.2,0,0,0,.071-.858V175.13h1.15Z" transform="translate(-446.488 -132.536)" fill="#07b6b6"/>
      <path id="Path_2326" data-name="Path 2326" d="M613.894,175.135l-2.853,6.353h-1.18l.937-2.048-1.732-4.3h1.172l1.182,2.92,1.3-2.92Z" transform="translate(-460.922 -132.536)" fill="#07b6b6"/>
      <path id="Path_2327" data-name="Path 2327" d="M631.882,168.036a.738.738,0,0,1-.211.53.681.681,0,0,1-.511.22.692.692,0,0,1-.521-.224.759.759,0,0,1-.213-.544.722.722,0,0,1,.213-.524.713.713,0,0,1,1.03,0,.748.748,0,0,1,.213.537m-.15,5.8h-1.15v-4.652h1.15Z" transform="translate(-477.086 -126.59)" fill="#07b6b6"/>
      <path id="Path_2328" data-name="Path 2328" d="M644.061,179.415h-1.134v-2.037q0-.636-.021-.807a1.058,1.058,0,0,0-.3-.718.715.715,0,0,0-.45-.141q-.733,0-.937.893a5.389,5.389,0,0,0-.05.944v1.866h-1.142v-4.652h1.142v.475a2.1,2.1,0,0,1,1.349-.594,1.537,1.537,0,0,1,1.149.483,1.673,1.673,0,0,1,.4,1.214Z" transform="translate(-484.349 -132.164)" fill="#07b6b6"/>
      <path id="Path_2329" data-name="Path 2329" d="M665.036,178.748a2.692,2.692,0,0,1-.464,1.736,2.307,2.307,0,0,1-1.879.753,2.491,2.491,0,0,1-1.9-.671,2.073,2.073,0,0,1-.464-.808h1.254a1.3,1.3,0,0,0,1.054.4,1.148,1.148,0,0,0,1.138-.523,1.988,1.988,0,0,0,.113-.8,1.853,1.853,0,0,1-1.378.577,2,2,0,0,1-1.58-.71,2.449,2.449,0,0,1-.6-1.676,2.409,2.409,0,0,1,.669-1.779,1.97,1.97,0,0,1,1.446-.607,2.037,2.037,0,0,1,1.441.633v-.513h1.142Zm-1.083-1.706a1.325,1.325,0,0,0-.34-.937,1.272,1.272,0,0,0-1.788,0,1.3,1.3,0,0,0-.348.927,1.327,1.327,0,0,0,.352.946,1.188,1.188,0,0,0,.907.375,1.133,1.133,0,0,0,.888-.379,1.336,1.336,0,0,0,.329-.934" transform="translate(-499.72 -132.164)" fill="#07b6b6"/>
      <path id="Path_2330" data-name="Path 2330" d="M685.512,187.784a1.244,1.244,0,0,1-.129.59.506.506,0,0,1-.93,0,1.238,1.238,0,0,1-.129-.586,1.252,1.252,0,0,1,.129-.586.512.512,0,0,1,.934,0,1.266,1.266,0,0,1,.125.59" transform="translate(-517.874 -141.436)" fill="#07b6b6"/>
      <path id="Path_2331" data-name="Path 2331" d="M701.617,172.575a1.674,1.674,0,0,1-.552,1.308,1.918,1.918,0,0,1-1.334.475,2.125,2.125,0,0,1-1.979-1.364l.983-.607q.442.838,1.018.838a.764.764,0,0,0,.476-.159.524.524,0,0,0,.234-.439.959.959,0,0,0-.309-.615,6.552,6.552,0,0,0-.526-.473,9.692,9.692,0,0,1-1.027-.948,1.942,1.942,0,0,1-.56-1.251,1.473,1.473,0,0,1,.514-1.149,1.7,1.7,0,0,1,1.176-.44,2.378,2.378,0,0,1,1.778,1.013l-.866.782q-.455-.654-.926-.654a.612.612,0,0,0-.346.1.36.36,0,0,0-.175.309.5.5,0,0,0,.1.3,7.424,7.424,0,0,0,.856.81q.68.586.81.723a2.062,2.062,0,0,1,.652,1.437" transform="translate(-528.036 -126.949)" fill="#07b6b6"/>
      <path id="Path_2332" data-name="Path 2332" d="M718.04,168.036a.737.737,0,0,1-.211.53.681.681,0,0,1-.511.22.692.692,0,0,1-.522-.224.761.761,0,0,1-.213-.544.723.723,0,0,1,.213-.524.714.714,0,0,1,1.031,0,.747.747,0,0,1,.213.537m-.151,5.8h-1.15v-4.652h1.15Z" transform="translate(-542.287 -126.59)" fill="#07b6b6"/>
      <path id="Path_2333" data-name="Path 2333" d="M733.132,179.415h-1.154v-2.357a2.8,2.8,0,0,0-.1-.893.657.657,0,0,0-.665-.457.878.878,0,0,0-.87.641,3.016,3.016,0,0,0-.113.969v2.1h-1.16v-2.25q0-1.047-.36-1.32a.7.7,0,0,0-.435-.137.875.875,0,0,0-.862.658,3.017,3.017,0,0,0-.117.982v2.067h-1.151v-4.652H727.3v.534a1.842,1.842,0,0,1,1.432-.654,1.4,1.4,0,0,1,1.324.838,1.748,1.748,0,0,1,1.534-.838,1.612,1.612,0,0,1,.817.209,1.3,1.3,0,0,1,.57.624,3.32,3.32,0,0,1,.159,1.21Z" transform="translate(-549.524 -132.164)" fill="#07b6b6"/>
      <path id="Path_2334" data-name="Path 2334" d="M764,177.1a2.555,2.555,0,0,1-.6,1.693,1.977,1.977,0,0,1-2.975.133v2.193h-1.138v-6.353h1.138v.513a1.951,1.951,0,0,1,1.437-.633,1.922,1.922,0,0,1,1.567.748A2.621,2.621,0,0,1,764,177.1m-1.142-.013a1.409,1.409,0,0,0-.333-.959,1.124,1.124,0,0,0-.9-.4,1.166,1.166,0,0,0-.913.392,1.4,1.4,0,0,0-.333.963,1.456,1.456,0,0,0,.329.976,1.156,1.156,0,0,0,.918.4,1.126,1.126,0,0,0,.9-.413,1.437,1.437,0,0,0,.333-.963" transform="translate(-574.604 -132.164)" fill="#07b6b6"/>
      <path id="Path_2335" data-name="Path 2335" d="M782.045,168.469V174.2h1.146v-6.448Z" transform="translate(-591.826 -126.95)" fill="#07b6b6"/>
      <path id="Path_2336" data-name="Path 2336" d="M791.287,168.036a.738.738,0,0,1-.21.53.682.682,0,0,1-.511.22.691.691,0,0,1-.521-.224.76.76,0,0,1-.213-.544.723.723,0,0,1,.213-.524.713.713,0,0,1,1.03,0,.746.746,0,0,1,.213.537m-.151,5.8h-1.15v-4.652h1.15Z" transform="translate(-597.719 -126.59)" fill="#07b6b6"/>
      <path id="Path_2337" data-name="Path 2337" d="M799.511,168.32a1.493,1.493,0,0,0-.4-.073.406.406,0,0,0-.281.075.379.379,0,0,0-.077.275v.579h.719v1h-.719v3.656H797.6v-3.656h-.406v-1h.406q0-.885.029-1.082.109-.834,1.079-.834a2.333,2.333,0,0,1,.8.167Z" transform="translate(-603.29 -126.577)" fill="#07b6b6"/>
      <path id="Path_2338" data-name="Path 2338" d="M809.586,168.036a.739.739,0,0,1-.21.53.683.683,0,0,1-.511.22.691.691,0,0,1-.521-.224.76.76,0,0,1-.213-.544.722.722,0,0,1,.213-.524.713.713,0,0,1,1.03,0,.746.746,0,0,1,.213.537m-.151,5.8h-1.15v-4.652h1.15Z" transform="translate(-611.566 -126.59)" fill="#07b6b6"/>
      <path id="Path_2339" data-name="Path 2339" d="M821.626,177.2v.222h-3.664a1.233,1.233,0,0,0,.434.794,1.339,1.339,0,0,0,.869.283,1.511,1.511,0,0,0,1.1-.453l.961.462a2.439,2.439,0,0,1-4.472-1.4,2.479,2.479,0,0,1,.663-1.763,2.217,2.217,0,0,1,1.692-.708,2.315,2.315,0,0,1,1.748.7,2.511,2.511,0,0,1,.674,1.86m-1.154-.7a1.13,1.13,0,0,0-.455-.635,1.309,1.309,0,0,0-.759-.233,1.342,1.342,0,0,0-.834.271,1.508,1.508,0,0,0-.417.6Z" transform="translate(-618.165 -132.164)" fill="#07b6b6"/>
      <path id="Path_2340" data-name="Path 2340" d="M842.982,168.466v1.6a1.932,1.932,0,0,0-1.433-.632h-.112a1.9,1.9,0,0,0-1.455.747,2.01,2.01,0,0,0-.2.287,2.654,2.654,0,0,0-.372,1.418,2.566,2.566,0,0,0,.6,1.693,1.972,1.972,0,0,0,2.972.131v.494h1.141v-6.448Zm-.275,4.376a1.156,1.156,0,0,1-.917.406,1.124,1.124,0,0,1-.9-.413,1.555,1.555,0,0,1,0-1.924,1.138,1.138,0,0,1,.9-.4,1.164,1.164,0,0,1,.91.384,1.419,1.419,0,0,1,.341.97,1.456,1.456,0,0,1-.328.975" transform="translate(-635.241 -126.95)" fill="#07b6b6"/>
      <path id="Path_2341" data-name="Path 2341" d="M864.627,187.784a1.249,1.249,0,0,1-.129.59.506.506,0,0,1-.93,0,1.239,1.239,0,0,1-.129-.586,1.255,1.255,0,0,1,.129-.586.512.512,0,0,1,.934,0,1.261,1.261,0,0,1,.125.59" transform="translate(-653.422 -141.436)" fill="#07b6b6"/>
    </g>
  </g>
</svg>
