<svg xmlns="http://www.w3.org/2000/svg" width="36" height="25.5" viewBox="0 0 36 25.5"><defs><style>.a,.b{fill:#182C57;}.a{opacity:0.4;}</style></defs><g transform="translate(0 -24)"><circle class="a" cx="3.039" cy="3.039" r="3.039" transform="translate(14.961 32.883)"/><path class="a" d="M56,58V40H32V58ZM36.5,47.5h1.69a5.968,5.968,0,0,1,.643-1.545l-1.2-1.2,2.121-2.121,1.2,1.2A5.967,5.967,0,0,1,42.5,43.19V41.5h3v1.69a5.967,5.967,0,0,1,1.545.644l1.2-1.2,2.121,2.121-1.2,1.2A5.968,5.968,0,0,1,49.81,47.5H51.5v3H49.81a5.968,5.968,0,0,1-.643,1.545l1.2,1.2-2.121,2.121-1.2-1.2a5.968,5.968,0,0,1-1.545.643V56.5h-3V54.81a5.968,5.968,0,0,1-1.545-.644l-1.2,1.2-2.121-2.121,1.2-1.2A5.967,5.967,0,0,1,38.19,50.5H36.5Z" transform="translate(-26 -13)"/><path class="b" d="M17.5,25.5h27V45H46V25.5A1.5,1.5,0,0,0,44.5,24h-27A1.5,1.5,0,0,0,16,25.5V45h1.5Z" transform="translate(-13)"/><path class="b" d="M0,144H36v1.5a1.5,1.5,0,0,1-1.5,1.5H1.5A1.5,1.5,0,0,1,0,145.5Z" transform="translate(0 -97.5)"/></g></svg>