<svg xmlns="http://www.w3.org/2000/svg" width="35.973" height="36" viewBox="0 0 35.973 36"><defs><style>.a,.b{fill:#182C57;}.a{opacity:0.4;}</style></defs><g transform="translate(0 0.039)"><path class="a" d="M353.468,448.227a17.566,17.566,0,0,0-3.322-2.005l-4.211-1.944a11.36,11.36,0,0,1-1.829,3.258,10.176,10.176,0,0,1-1.481,1.5h11.9Zm0,0" transform="translate(-318.549 -413.076)"/><path class="a" d="M10.417,447.536a11.361,11.361,0,0,1-1.829-3.258l-4.209,1.946a17.561,17.561,0,0,0-3.322,2.005L0,449.036H11.9a10.174,10.174,0,0,1-1.484-1.5Zm0,0" transform="translate(0 -413.076)"/><path class="a" d="M163.974,414.823v-.24a10.653,10.653,0,0,1-13.722,0v.24a1.057,1.057,0,0,1-.612.958s1.627,5.647,7.474,5.647,7.473-5.647,7.473-5.647a1.057,1.057,0,0,1-.612-.957Zm0,0" transform="translate(-139.126 -385.467)"/><path class="a" d="M142.572,256.484a8.583,8.583,0,0,0,8.572-8.575v-3.8H134v3.8A8.584,8.584,0,0,0,142.572,256.484Zm0,0" transform="translate(-124.585 -226.974)"/><path class="b" d="M88.41,41.327H110a1.054,1.054,0,0,0,0-2.109h-.885v-1.09a9.911,9.911,0,0,0-4.329-8.188l0,4.448a1.054,1.054,0,1,1-2.108,0V29.268a1.048,1.048,0,0,1,.078-.4,9.832,9.832,0,0,0-2.5-.6v7.411a1.054,1.054,0,1,1-2.108,0V28.27a9.825,9.825,0,0,0-2.495.6,1.054,1.054,0,0,1,.078.4v5.119a1.054,1.054,0,1,1-2.108,0v-4.45a9.912,9.912,0,0,0-4.331,8.19v1.09h-.887a1.054,1.054,0,0,0,0,2.109Zm0,0" transform="translate(-81.217 -26.297)"/><path class="b" d="M308.542,28.523a1.053,1.053,0,0,0-2.03-.4,9.883,9.883,0,0,1,2.03,1.067Zm0,0" transform="translate(-284.975 -25.553)"/><path class="b" d="M177.659,27.469a1.054,1.054,0,0,0-1.054,1.055v.67a9.882,9.882,0,0,1,2.03-1.067,1.054,1.054,0,0,0-.976-.657Zm0,0" transform="translate(-164.196 -25.553)"/><path class="b" d="M243.107,1.973V1.041a1.054,1.054,0,1,0-2.108,0v.932a9.9,9.9,0,0,1,2.108,0Zm0,0" transform="translate(-224.067 0)"/></g></svg>