<svg xmlns="http://www.w3.org/2000/svg" width="36" height="25.539" viewBox="0 0 36 25.539"><defs><style>.a{fill:#172341;}.b{opacity:0.4;}.c{fill:#006dee;}</style></defs><g transform="translate(0 -74.386)"><g transform="translate(16.426 82.123)"><g transform="translate(0 0)"><path class="a" d="M235.1,184.617a.487.487,0,0,0-.347-.188h-1.14V185.9H234.8a.418.418,0,0,0,.324-.193.864.864,0,0,0,.15-.541A.776.776,0,0,0,235.1,184.617Z" transform="translate(-233.617 -184.429)"/></g></g><g class="b" transform="translate(2.414 74.386)"><path class="c" d="M34.332,74.386V94.5H65.5V74.386ZM45.327,86.478a2.973,2.973,0,0,1-.716.5,3.786,3.786,0,0,1-.86.309,3.958,3.958,0,0,1-.9.106,3.177,3.177,0,0,1-1.4-.3,3.535,3.535,0,0,1-1.091-.807,3.666,3.666,0,0,1-.71-1.14,3.5,3.5,0,0,1-.251-1.294,3.419,3.419,0,0,1,.927-2.328,3.518,3.518,0,0,1,1.1-.782,3.811,3.811,0,0,1,3.2.111,2.676,2.676,0,0,1,1.086,1.086l-1.439,1.024a1.212,1.212,0,0,0-.256-.418,1.3,1.3,0,0,0-.352-.261,1.52,1.52,0,0,0-.4-.135,2.2,2.2,0,0,0-.4-.039,1.406,1.406,0,0,0-1.183.574,1.791,1.791,0,0,0-.28.58,2.343,2.343,0,0,0-.092.642,2.209,2.209,0,0,0,.106.685,1.786,1.786,0,0,0,.309.58,1.508,1.508,0,0,0,.5.4,1.438,1.438,0,0,0,.661.15,1.887,1.887,0,0,0,.4-.044,1.473,1.473,0,0,0,.394-.141,1.322,1.322,0,0,0,.338-.261,1.158,1.158,0,0,0,.239-.391L45.8,85.8A1.956,1.956,0,0,1,45.327,86.478Zm4.929.86h0l-1.207-2.1h-.707v2.1h-1.88V80.483h3.148a2.083,2.083,0,0,1,.927.208,2.409,2.409,0,0,1,.729.541,2.526,2.526,0,0,1,.478.763,2.288,2.288,0,0,1,.174.864,2.44,2.44,0,0,1-.261,1.115,2.272,2.272,0,0,1-.724.845l1.448,2.52H50.256Zm7.908,0V83.726l-1.149,2.539h-1l-1.149-2.539v3.611H52.979V80.483h2.057l1.477,3.224L58,80.483h2.047v6.854Z" transform="translate(-34.332 -74.386)"/></g><g transform="translate(0 96.707)"><rect class="c" width="36" height="3.219"/></g></g></svg>