<svg xmlns="http://www.w3.org/2000/svg" width="36" height="34.571" viewBox="0 0 36 34.571"><defs><style>.a,.b{fill:#006dee;}.b{opacity:0.4;}</style></defs><g transform="translate(-256 -14)"><path class="a" d="M567.387,246.721v-8.5a1.77,1.77,0,1,0-3.428,0v10.785h5.714A2.286,2.286,0,0,1,567.387,246.721Z" transform="translate(-285.96 -206.151)"/><path class="a" d="M271.428,446H256v1.429a1.43,1.43,0,0,0,1.429,1.429h14.343a3.125,3.125,0,0,1-.344-1.429Z" transform="translate(0 -401.145)"/><path class="a" d="M623.976,361.642V362a1.891,1.891,0,1,0,3.714,0v-1.846a13.632,13.632,0,0,1-3.5,1.43Z" transform="translate(-341.691 -321.434)"/><path class="b" d="M412.857,14a12.858,12.858,0,0,0-12.689,14.928h3.492A9.429,9.429,0,1,1,416,35.745v3.578A12.857,12.857,0,0,0,412.857,14Z" transform="translate(-133.715 0)"/><path class="b" d="M474.05,95.193h-1.38a7.655,7.655,0,0,0,.236,1.214h7.429a3.146,3.146,0,0,1,3.143,3.143v1.828A7.732,7.732,0,0,0,488,95.193h-1.38a.857.857,0,0,1,0-1.714H488a7.727,7.727,0,0,0-6.808-6.809v1.38a.857.857,0,1,1-1.714,0V86.67a7.727,7.727,0,0,0-6.809,6.809h1.38a.857.857,0,1,1,0,1.714Zm3.394-3.749a.857.857,0,0,1,1.212,0l1.65,1.65,2.858-2.8a.857.857,0,1,1,1.2,1.225h0L480.9,94.913a.857.857,0,0,1-1.206-.006l-2.25-2.25a.857.857,0,0,1,0-1.212Z" transform="translate(-201.194 -67.479)"/><path class="a" d="M318.286,235A2.286,2.286,0,0,0,316,237.286v11.928h11.143a.857.857,0,0,1,.857.857v1.43a2.286,2.286,0,0,0,4.571,0V237.286A2.286,2.286,0,0,1,334.857,235Zm8.9,5.554a.2.2,0,0,1-.206.206H325.9a2.4,2.4,0,0,1-.829,1.5,3.261,3.261,0,0,1-1.774.707q1.073,1.144,2.95,3.445a.174.174,0,0,1,.026.218.187.187,0,0,1-.187.116h-1.253a.189.189,0,0,1-.161-.077q-1.967-2.359-3.2-3.67a.192.192,0,0,1-.058-.141v-.816a.209.209,0,0,1,.206-.206h.72a2.9,2.9,0,0,0,1.366-.277,1.256,1.256,0,0,0,.659-.8h-2.745a.2.2,0,0,1-.206-.206V239.9a.2.2,0,0,1,.206-.206h2.655q-.366-.726-1.723-.726h-.93a.209.209,0,0,1-.206-.206v-.855a.2.2,0,0,1,.206-.206h5.345a.2.2,0,0,1,.206.206v.656a.2.2,0,0,1-.206.206h-1.5a2.224,2.224,0,0,1,.411.926h1.1a.2.2,0,0,1,.206.206Z" transform="translate(-55.715 -205.215)"/></g></svg>