<svg xmlns="http://www.w3.org/2000/svg" width="36" height="33.75" viewBox="0 0 36 33.75"><defs><style>.a{opacity:0.4;}.b{fill:#006dee;}</style></defs><g transform="translate(0 -16)"><g class="a" transform="translate(0 24.438)"><path class="b" d="M28.617,144.438A9.472,9.472,0,0,1,19.232,136H3.164A3.167,3.167,0,0,0,0,139.164v18.985a3.167,3.167,0,0,0,3.164,3.164H30.727a3.167,3.167,0,0,0,3.164-3.164V142.831A9.435,9.435,0,0,1,28.617,144.438Zm-4.219,2.11a1.055,1.055,0,1,1-1.055,1.055A1.055,1.055,0,0,1,24.4,146.547Zm-4.219,0a1.055,1.055,0,1,1-1.055,1.055A1.055,1.055,0,0,1,20.18,146.547Zm-5.414,9.492a1.054,1.054,0,0,1-1.055,1.055H5.274a1.054,1.054,0,0,1-1.055-1.055V153.93a5.272,5.272,0,0,1,2.327-4.372,4.219,4.219,0,1,1,5.892,0,5.272,5.272,0,0,1,2.327,4.372Zm13.852,1.055H20.18a1.055,1.055,0,0,1,0-2.109h8.438a1.055,1.055,0,0,1,0,2.11Zm0-4.219H20.18a1.055,1.055,0,0,1,0-2.109h8.438a1.055,1.055,0,0,1,0,2.11Zm0-4.219a1.055,1.055,0,1,1,1.055-1.055,1.055,1.055,0,0,1-1.055,1.055Z" transform="translate(0 -136)"/></g><g transform="translate(7.383 32.875)"><g transform="translate(0 0)"><path class="b" d="M107.11,256a2.11,2.11,0,1,0,2.11,2.11,2.11,2.11,0,0,0-2.11-2.11Z" transform="translate(-105 -256)"/></g></g><g transform="translate(6.328 39.204)"><path class="b" d="M93.164,346A3.167,3.167,0,0,0,90,349.164v1.055h6.328v-1.055A3.167,3.167,0,0,0,93.164,346Z" transform="translate(-90 -346)"/></g><g transform="translate(21.233 16)"><g transform="translate(0 0)"><path class="b" d="M309.311,16a7.383,7.383,0,1,0,7.453,7.383A7.383,7.383,0,0,0,309.311,16Zm3.98,6.019-4.219,4.22a1.054,1.054,0,0,1-1.491,0l-2.109-2.11a1.055,1.055,0,0,1,1.491-1.491L308.328,24l3.473-3.473a1.055,1.055,0,1,1,1.491,1.491Z" transform="translate(-301.998 -16)"/></g></g></g></svg>