<svg xmlns="http://www.w3.org/2000/svg" width="36" height="36.022" viewBox="0 0 36 36.022"><defs><style>.a,.b{fill:#182C57;}.b{opacity:0.4;}</style></defs><g transform="translate(-0.2 0.001)"><path class="a" d="M138.77,137.285A1.285,1.285,0,1,1,137.485,136,1.285,1.285,0,0,1,138.77,137.285Zm0,0" transform="translate(-125.073 -125.074)"/><path class="a" d="M78.265,124.043A2.631,2.631,0,0,1,80,121.6a9.083,9.083,0,0,0-5.4,2.442,8.914,8.914,0,0,0,5.4,2.442,2.631,2.631,0,0,1-1.735-2.442Zm0,0" transform="translate(-68.424 -111.832)"/><path class="a" d="M164.336,124.043a2.631,2.631,0,0,1-1.735,2.442,9.084,9.084,0,0,0,5.4-2.442,8.916,8.916,0,0,0-5.4-2.443,2.631,2.631,0,0,1,1.736,2.443Zm0,0" transform="translate(-149.354 -111.832)"/><path class="a" d="M268.2,261.093l4.242,4.756,1.028-1.028L269.164,260C268.842,260.385,268.521,260.772,268.2,261.093Zm0,0" transform="translate(-246.468 -239.111)"/><path class="b" d="M41.841,51.282a9.628,9.628,0,1,0-6.821-2.82A9.641,9.641,0,0,0,41.841,51.282Zm4.5-3.214h-9V46.782h9Zm-9-12.854h9V36.5h-9Zm-3.085,6.813L34,41.641l.321-.45a10.25,10.25,0,0,1,14.462-.643,6.114,6.114,0,0,1,.643.643l.062.062.321.386-.321.45a10.25,10.25,0,0,1-14.46.645A8.437,8.437,0,0,1,34.256,42.026Zm0,0" transform="translate(-29.429 -29.429)"/><path class="b" d="M278.093,56.647l4.627,5.206h.45a1.751,1.751,0,0,1,1.35.578l3.021,3.021V41.928A1.894,1.894,0,0,0,285.613,40H277a13.451,13.451,0,0,1,1.093,16.647Zm8.163,2.635H282.4V58h3.856Zm0-3.214h-4.5V54.783h4.5Zm0-3.214h-4.5V51.569h4.5Zm0-3.214h-4.5V48.355h4.5Zm0-3.214h-4.5V45.142h4.5Zm-5.784-4.5h5.784v1.285h-5.784Zm0,0" transform="translate(-254.561 -36.786)"/><path class="a" d="M12.412,24.424A12.212,12.212,0,1,0,.2,12.212,12.212,12.212,0,0,0,12.412,24.424Zm0-23.139a10.917,10.917,0,1,1-7.729,3.2A10.927,10.927,0,0,1,12.412,1.285Zm0,0" transform="translate(0 0)"/><path class="a" d="M337.391,334.877l-6.685-6.685a.584.584,0,0,0-.45-.193h-.517l-1.54,1.54v.514a.582.582,0,0,0,.193.45l6.685,6.685a1.63,1.63,0,0,0,2.314,0A1.69,1.69,0,0,0,337.391,334.877Zm0,0" transform="translate(-301.648 -301.648)"/><path class="b" d="M62.053,282.971v-.514l-4.5-5.078A13.432,13.432,0,0,1,40.2,276.8v8.613a1.894,1.894,0,0,0,1.928,1.928H65.652l-3.021-3.021A1.847,1.847,0,0,1,62.053,282.971Zm-20.568-1.416H58.838v1.285H41.485Zm19.925,3.856H41.485v-1.283H61.41Zm0,0" transform="translate(-36.786 -254.562)"/></g></svg>