<svg xmlns="http://www.w3.org/2000/svg" width="31.781" height="36" viewBox="0 0 31.781 36"><defs><style>.a{opacity:0.4;}.b{fill:#006dee;}</style></defs><g transform="translate(-30.139)"><g class="a" transform="translate(43.214 0.285)"><path class="b" d="M233.8,18.755,219.763,4.715A2.11,2.11,0,1,0,216.779,7.7L230.82,21.737a2.109,2.109,0,0,0,2.983-2.982Z" transform="translate(-216.161 -4.096)"/></g><g transform="translate(37.684 5.825)"><g transform="translate(0 0)"><path class="b" d="M142.6,82.9l-.106.53a22.67,22.67,0,0,1-5,10.127l7.638,7.642A22.594,22.594,0,0,1,155.21,96.15l.531-.106Z" transform="translate(-137.494 -82.9)"/></g></g><g transform="translate(30.138 18.067)"><g transform="translate(0)"><path class="b" d="M36.284,256.989l-5.219,5.219a3.164,3.164,0,0,0,0,4.475l2.982,2.982a3.164,3.164,0,0,0,4.475,0l5.219-5.219Zm.745,8.2a1.055,1.055,0,1,1-1.491-1.491l1.491-1.491a1.055,1.055,0,1,1,1.491,1.491Z" transform="translate(-30.138 -256.989)"/></g></g><g class="a" transform="translate(41.502 24.33)"><path class="b" d="M198.453,353.05l1.434-1.434a3.161,3.161,0,0,0,0-4.473l-1.066-1.066a19.969,19.969,0,0,0-1.7,1.284l1.273,1.274a1.052,1.052,0,0,1,0,1.49l-1.458,1.458-2.143-2.076-2.983,2.983,4.785,4.639a2.109,2.109,0,1,0,2.981-2.985Z" transform="translate(-191.812 -346.076)"/></g><g class="a" transform="translate(51.348 0)"><path class="b" d="M332.918,0a1.054,1.054,0,0,0-1.055,1.055V3.164a1.055,1.055,0,0,0,2.109,0V1.055A1.054,1.054,0,0,0,332.918,0Z" transform="translate(-331.863 0)"/></g><g class="a" transform="translate(57.65 8.436)"><g transform="translate(0 0)"><path class="b" d="M425.013,120H422.9a1.055,1.055,0,1,0,0,2.109h2.109a1.055,1.055,0,1,0,0-2.109Z" transform="translate(-421.823 -119.999)"/></g></g><g class="a" transform="translate(55.544 2.109)"><g transform="translate(0 0)"><path class="b" d="M395.76,30.309a1.054,1.054,0,0,0-1.491,0l-2.109,2.109a1.055,1.055,0,1,0,1.491,1.491L395.76,31.8A1.054,1.054,0,0,0,395.76,30.309Z" transform="translate(-391.829 -30)"/></g></g></g></svg>