<svg xmlns="http://www.w3.org/2000/svg" width="34.552" height="36.011" viewBox="0 0 34.552 36.011"><defs><style>.a{opacity:0.4;}.b{fill:#182C57;}.c{fill:#fff;}</style></defs><g transform="translate(-10.353 0.015)"><g class="a" transform="translate(10.352 -0.004)"><g transform="translate(0)"><path class="b" d="M43.233,18.463a1.055,1.055,0,0,1,0-.932l1.343-2.746a3.125,3.125,0,0,0-1.349-4.15L40.526,9.2a1.055,1.055,0,0,1-.548-.755L39.45,5.435a3.125,3.125,0,0,0-3.53-2.565L32.891,3.3A1.055,1.055,0,0,1,32,3.01L29.807.884a3.125,3.125,0,0,0-4.364,0l-2.2,2.126a1.055,1.055,0,0,1-.887.288l-3.029-.428A3.125,3.125,0,0,0,15.8,5.435l-.528,3.011a1.055,1.055,0,0,1-.548.755l-2.7,1.433a3.125,3.125,0,0,0-1.349,4.15l1.342,2.746a1.055,1.055,0,0,1,0,.932l-1.338,2.747a3.125,3.125,0,0,0,1.349,4.15l2.7,1.433a1.055,1.055,0,0,1,.548.755l.528,3.011a3.123,3.123,0,0,0,3.081,2.6,3.21,3.21,0,0,0,.451-.032l3.029-.428a1.055,1.055,0,0,1,.887.288l2.2,2.126a3.125,3.125,0,0,0,4.363,0l2.2-2.126a1.056,1.056,0,0,1,.887-.288l3.029.428a3.125,3.125,0,0,0,3.53-2.565l.528-3.011a1.055,1.055,0,0,1,.548-.755l2.7-1.433a3.125,3.125,0,0,0,1.349-4.15ZM23.474,8.654a3.806,3.806,0,1,1-3.806,3.806,3.806,3.806,0,0,1,3.806-3.806ZM21.51,25.58a1.038,1.038,0,1,1-1.468-1.468l13.7-13.7a1.038,1.038,0,1,1,1.468,1.468Zm10.269,1.758a3.806,3.806,0,1,1,3.806-3.806,3.806,3.806,0,0,1-3.806,3.806Z" transform="translate(-10.352 0.004)"/></g></g><g transform="translate(27.964 19.414)"><path class="c" d="M294.524,310.141a4.072,4.072,0,1,0,4.072,4.072,4.072,4.072,0,0,0-4.072-4.072Z" transform="translate(-290.452 -310.141)"/></g><g transform="translate(30.353 21.803)"><path class="b" d="M292.182,310.141a1.73,1.73,0,1,0,1.73,1.73,1.73,1.73,0,0,0-1.73-1.73Z" transform="translate(-290.452 -310.141)"/></g><g transform="translate(19.483 8.414)"><path class="c" d="M294.524,310.141a4.072,4.072,0,1,0,4.072,4.072,4.072,4.072,0,0,0-4.072-4.072Z" transform="translate(-290.452 -310.141)"/></g><g transform="translate(21.873 10.803)"><path class="b" d="M292.182,310.141a1.73,1.73,0,1,0,1.73,1.73,1.73,1.73,0,0,0-1.73-1.73Z" transform="translate(-290.452 -310.141)"/></g><g transform="translate(34.353 -0.004)"><path class="b" d="M27.617,0a2.94,2.94,0,0,0-2.174.888l-2.2,2.126a1.055,1.055,0,0,1-.887.288l-3.029-.428A3.125,3.125,0,0,0,15.8,5.435l-.528,3.011a1.055,1.055,0,0,1-.548.755l-2.7,1.433a3.125,3.125,0,0,0-1.349,4.15l1.342,2.746a1.055,1.055,0,0,1,0,.932l-1.338,2.747a3.125,3.125,0,0,0,1.349,4.15l2.7,1.433a1.055,1.055,0,0,1,.548.755l.528,3.011a3.123,3.123,0,0,0,3.081,2.6,3.21,3.21,0,0,0,.451-.032l3.029-.428a1.055,1.055,0,0,1,.887.288l2.2,2.126A3.309,3.309,0,0,0,27.618,36l0-19.136ZM23.474,8.654a3.806,3.806,0,1,1-3.806,3.806,3.806,3.806,0,0,1,3.806-3.806ZM21.51,25.58a1.038,1.038,0,1,1-1.468-1.468c3.329-3.329,5.477-5.431,7.579-7.252a19.683,19.683,0,0,0,0,2.518C26.741,20.467,24.226,22.864,21.51,25.58Zm6.463-2.048Z" transform="translate(-34.352 0.004)"/></g></g></svg>