<svg xmlns="http://www.w3.org/2000/svg" width="36" height="36.003" viewBox="0 0 36 36.003"><defs><style>.a,.b{fill:#182C57;}.b{opacity:0.4;}</style></defs><path class="a" d="M171.318,10.108l3.957,2.081-.756-4.406,3.2-3.122L173.3,4.018,171.318,0,169.34,4.017l-4.426.642,3.2,3.122-.756,4.406Zm0,0" transform="translate(-153.318)"/><path class="b" d="M335.322,106.115l-1.978-4.009-1.978,4.009-4.423.642,3.2,3.121-.756,4.407,3.957-2.081,3.959,2.081-.758-4.407,3.409-3.121Zm0,0" transform="translate(-303.953 -94.926)"/><path class="b" d="M3.409,109.879l-.758,4.408,3.959-2.081,3.957,2.081-.756-4.407,3.2-3.121-4.423-.642-1.978-4.009-1.978,4.009L0,106.758Zm0,0" transform="translate(0 -94.927)"/><path class="a" d="M191.548,216.273a5.273,5.273,0,1,0-5.273,5.273A5.273,5.273,0,0,0,191.548,216.273Zm0,0" transform="translate(-168.273 -196.164)"/><path class="a" d="M151,368.488v3.234h14.766v-3.234a7.385,7.385,0,0,0-14.766,0Zm0,0" transform="translate(-140.383 -335.72)"/><path class="b" d="M390.694,426.273A5.28,5.28,0,0,0,385.42,421a5.2,5.2,0,0,0-1.556.262,9.361,9.361,0,0,1,.5,2.9V427.4h6.328Zm0,0" transform="translate(-356.873 -391.398)"/><path class="b" d="M354.438,305.218a4.219,4.219,0,0,0-8.438,0c0,.134.027.261.039.392a9.491,9.491,0,0,1,2.418,3.429,4.174,4.174,0,0,0,1.761.4A4.223,4.223,0,0,0,354.438,305.218Zm0,0" transform="translate(-321.672 -279.835)"/><path class="b" d="M54.4,305.612c.012-.131.039-.258.039-.392a4.253,4.253,0,1,0-2.457,3.821,9.489,9.489,0,0,1,2.418-3.429Zm0,0" transform="translate(-42.766 -279.836)"/><path class="b" d="M31,426.273V427.4h6.328v-3.234a9.36,9.36,0,0,1,.5-2.9A5.2,5.2,0,0,0,36.273,421,5.28,5.28,0,0,0,31,426.273Zm0,0" transform="translate(-28.82 -391.398)"/></svg>