<svg xmlns="http://www.w3.org/2000/svg" width="36" height="35.914" viewBox="0 0 36 35.914"><defs><style>.a,.b{fill:#006dee;}.b{opacity:0.4;}</style></defs><g transform="translate(-4 -4)"><path class="a" d="M10.643,38a.643.643,0,0,0-.643.643v9a.643.643,0,1,0,1.286,0v-9A.643.643,0,0,0,10.643,38Z" transform="translate(-2.143 -12.143)"/><path class="a" d="M4,50.662l2.571-2.571V40H4Z" transform="translate(0 -12.857)"/><path class="b" d="M16.095,33.361l4.68,2.5H35.906c1.464-.629,2.173-.928,2.524-1.071L39.823,32H4.618l1.929,3.857H6.91a1.915,1.915,0,0,1,3.512-.246l5.109-2.271A.643.643,0,0,1,16.095,33.361Z" transform="translate(-0.221 -10)"/><path class="b" d="M24,4H15V20.714h9ZM17.571,19.429H16.286V18.143h1.286Zm0-2.571H16.286V15.571h1.286Zm0-2.571H16.286V13h1.286Zm0-2.571H16.286V10.429h1.286Zm0-2.571H16.286V7.857h1.286Zm0-2.571H16.286V5.286h1.286Zm2.571,12.857H18.857V18.143h1.286Zm0-2.571H18.857V15.571h1.286Zm0-2.571H18.857V13h1.286Zm0-2.571H18.857V10.429h1.286Zm0-2.571H18.857V7.857h1.286Zm0-2.571H18.857V5.286h1.286Zm2.571,12.857H21.429V18.143h1.286Zm0-2.571H21.429V15.571h1.286Zm0-2.571H21.429V13h1.286Zm0-2.571H21.429V10.429h1.286Zm0-2.571H21.429V7.857h1.286Zm0-2.571H21.429V5.286h1.286Z" transform="translate(-3.929)"/><path class="b" d="M42.571,12H31V23.571H42.571Zm-9,10.286H32.286V21h1.286Zm0-2.571H32.286V18.429h1.286Zm0-2.571H32.286V15.857h1.286Zm0-2.571H32.286V13.286h1.286Zm2.571,7.714H34.857V21h1.286Zm0-2.571H34.857V18.429h1.286Zm0-2.571H34.857V15.857h1.286Zm0-2.571H34.857V13.286h1.286Zm2.571,7.714H37.429V21h1.286Zm0-2.571H37.429V18.429h1.286Zm0-2.571H37.429V15.857h1.286Zm0-2.571H37.429V13.286h1.286Zm2.571,7.714H40V21h1.286Zm0-2.571H40V18.429h1.286Zm0-2.571H40V15.857h1.286Zm0-2.571H40V13.286h1.286Z" transform="translate(-9.643 -2.857)"/><path class="a" d="M43.21,37.6a1.018,1.018,0,0,0-.771-.236c-.514.193-8.425,3.625-13.706,5.926a1.909,1.909,0,0,1-1.233.46H19.143V42.469H27.5a.643.643,0,0,0,.643-.643v-.9l-9.026-4.814L14,38.386v8.155l11.5,4.841L43.129,39.22a1.023,1.023,0,0,0,.442-.833A.992.992,0,0,0,43.21,37.6Z" transform="translate(-3.571 -11.469)"/><path class="b" d="M43.245,40H33.5l2.552,1.361a.643.643,0,0,1,.341.568v1.05C39.291,41.716,41.524,40.746,43.245,40Z" transform="translate(-10.536 -12.857)"/></g></svg>