<svg xmlns="http://www.w3.org/2000/svg" width="36" height="36" viewBox="0 0 36 36"><defs><style>.a,.b{fill:#182C57;}.a{opacity:0.4;}</style></defs><path class="a" d="M225.832,0h4.243V2.972h-4.243Zm0,0" transform="translate(-209.953)"/><path class="a" d="M152.955,216.8H136.094a2.125,2.125,0,0,0,2.08,1.7h12.706a2.124,2.124,0,0,0,2.076-1.7Zm0,0" transform="translate(-126.525 -201.557)"/><path class="a" d="M361.336,271h4.242v2.972h-4.242Zm0,0" transform="translate(-335.93 -251.945)"/><path class="a" d="M90.332,271h4.243v2.972H90.332Zm0,0" transform="translate(-83.98 -251.945)"/><path class="b" d="M152.445,2.121A2.123,2.123,0,0,0,150.324,0h-2.118V4.027a1.055,1.055,0,0,1-1.058,1.056H140.8a1.055,1.055,0,0,1-1.055-1.055V0H137.62a2.124,2.124,0,0,0-2.12,2.121V13.133h16.945Zm0,0" transform="translate(-125.972)"/><path class="a" d="M2.674,489.5H15.379a2.124,2.124,0,0,0,2.079-1.7H.594A2.125,2.125,0,0,0,2.674,489.5Zm0,0" transform="translate(-0.552 -453.502)"/><path class="b" d="M285.824,271h-2.118v4.027a1.055,1.055,0,0,1-1.055,1.055H276.3a1.055,1.055,0,0,1-1.055-1.055V271h-2.121A2.124,2.124,0,0,0,271,273.121v11.012h16.945V273.121A2.123,2.123,0,0,0,285.824,271Zm0,0" transform="translate(-251.945 -251.945)"/><path class="a" d="M273.678,489.5h12.706a2.124,2.124,0,0,0,2.079-1.7H271.6a2.124,2.124,0,0,0,2.078,1.7Zm0,0" transform="translate(-252.502 -453.502)"/><path class="b" d="M14.824,271H12.706v4.027a1.055,1.055,0,0,1-1.055,1.055H5.3a1.055,1.055,0,0,1-1.055-1.055V271H2.121A2.124,2.124,0,0,0,0,273.121v11.012H16.945V273.121A2.124,2.124,0,0,0,14.824,271Zm0,0" transform="translate(0 -251.945)"/></svg>