<svg xmlns="http://www.w3.org/2000/svg" width="172.294" height="51.221" viewBox="0 0 172.294 51.221"><defs><style>.a{fill:#e5f0fe;}</style></defs><g transform="translate(-999 -137)"><path class="a" d="M67,80.914a.8.8,0,0,1,1.294.627v27.278a6.4,6.4,0,0,1-6.4,6.4H6.4a6.4,6.4,0,0,1-6.4-6.4V81.554a.8.8,0,0,1,1.294-.627C4.282,83.248,8.243,86.2,21.849,96.08c2.814,2.054,7.563,6.376,12.3,6.349,4.762.04,9.6-4.375,12.312-6.349C60.064,86.2,64.013,83.234,67,80.914ZM34.147,98.147c3.095.053,7.55-3.895,9.791-5.522,17.7-12.845,19.048-13.966,23.129-17.167a3.192,3.192,0,0,0,1.227-2.521V70.4a6.4,6.4,0,0,0-6.4-6.4H6.4A6.4,6.4,0,0,0,0,70.4v2.534a3.211,3.211,0,0,0,1.227,2.521c4.082,3.188,5.429,4.322,23.129,17.167C26.6,94.252,31.053,98.2,34.147,98.147Z" transform="translate(1103 73)"/><rect class="a" width="32" height="8" rx="4" transform="translate(1060 142)"/><rect class="a" width="57" height="8" rx="4" transform="translate(1030 160)"/><rect class="a" width="77" height="8" rx="4" transform="translate(999 178)"/></g></svg>