<svg xmlns="http://www.w3.org/2000/svg" width="58.462" height="58.5" viewBox="0 0 58.462 58.5"><defs><style>.a{fill:#172341;}</style></defs><g transform="translate(-0.199)"><path class="a" d="M140.374,138.087A2.087,2.087,0,1,1,138.287,136,2.088,2.088,0,0,1,140.374,138.087Zm0,0" transform="translate(-118.257 -118.257)"/><path class="a" d="M80.55,125.567a4.273,4.273,0,0,1,2.818-3.966,14.749,14.749,0,0,0-8.767,3.966,14.475,14.475,0,0,0,8.767,3.966A4.273,4.273,0,0,1,80.55,125.567Zm0,0" transform="translate(-64.695 -105.737)"/><path class="a" d="M165.419,125.567a4.273,4.273,0,0,1-2.818,3.966,14.751,14.751,0,0,0,8.767-3.966A14.478,14.478,0,0,0,162.6,121.6,4.273,4.273,0,0,1,165.419,125.567Zm0,0" transform="translate(-141.215 -105.737)"/><path class="a" d="M268.2,261.775l6.889,7.723,1.67-1.67L269.765,260C269.243,260.626,268.721,261.253,268.2,261.775Zm0,0" transform="translate(-233.036 -226.079)"/><path class="a" d="M47.855,63.311A15.656,15.656,0,1,0,32.2,47.656,15.635,15.635,0,0,0,47.855,63.311Zm7.306-5.219H40.549V56.005H55.161ZM40.549,37.219H55.161v2.087H40.549Zm-5.01,11.063-.417-.626.522-.731a16.645,16.645,0,0,1,23.484-1.044,9.927,9.927,0,0,1,1.044,1.044l.1.1.522.626-.522.731A16.645,16.645,0,0,1,36.791,49.43,13.7,13.7,0,0,1,35.539,48.282Zm0,0" transform="translate(-27.825 -27.825)"/><path class="a" d="M278.775,67.032l7.514,8.454h.731a2.843,2.843,0,0,1,2.192.939l4.905,4.906v-38.2A3.075,3.075,0,0,0,290.986,40H277A21.842,21.842,0,0,1,278.775,67.032Zm13.255,4.279h-6.262V69.224h6.262Zm0-5.219h-7.306V64.005h7.306Zm0-5.219h-7.306V58.787h7.306Zm0-5.219h-7.306V53.568h7.306Zm0-5.219h-7.306V48.35h7.306Zm-9.393-7.306h9.393v2.087h-9.393Zm0,0" transform="translate(-240.688 -34.781)"/><path class="a" d="M20.03,39.661A19.831,19.831,0,1,0,.2,19.831,19.822,19.822,0,0,0,20.03,39.661Zm0-37.574A17.743,17.743,0,1,1,2.287,19.831,17.728,17.728,0,0,1,20.03,2.087Zm0,0"/><path class="a" d="M343.125,339.168,332.27,328.313a.948.948,0,0,0-.73-.313H330.7l-2.5,2.5v.835a.946.946,0,0,0,.313.73l10.855,10.855a2.646,2.646,0,0,0,3.757,0A2.744,2.744,0,0,0,343.125,339.168Zm0,0" transform="translate(-285.208 -285.208)"/><path class="a" d="M75.686,286.821v-.835L68.38,277.74A21.811,21.811,0,0,1,40.2,276.8v13.986a3.075,3.075,0,0,0,3.131,3.131h38.2l-4.906-4.906A3,3,0,0,1,75.686,286.821Zm-33.4-2.3h28.18v2.087H42.287Zm32.355,6.262H42.287V288.7H74.642Zm0,0" transform="translate(-34.781 -240.688)"/></g></svg>