<svg xmlns="http://www.w3.org/2000/svg" width="77" height="54.542" viewBox="0 0 77 54.542"><defs><style>.a{fill:#172341;}</style></defs><g transform="translate(0 -24)"><circle class="a" cx="6.5" cy="6.5" r="6.5" transform="translate(32 43)"/><path class="a" d="M83.333,78.5V40H32V78.5ZM41.625,56.042H45.24a12.764,12.764,0,0,1,1.376-3.305l-2.561-2.561,4.537-4.537L51.153,48.2a12.763,12.763,0,0,1,3.305-1.376V43.208h6.417v3.615A12.763,12.763,0,0,1,64.18,48.2l2.561-2.561,4.537,4.537-2.561,2.561a12.764,12.764,0,0,1,1.376,3.305h3.615v6.417H70.094a12.764,12.764,0,0,1-1.376,3.305l2.561,2.561-4.537,4.537L64.18,70.3a12.764,12.764,0,0,1-3.305,1.376v3.615H54.458V71.677A12.764,12.764,0,0,1,51.153,70.3l-2.561,2.561-4.537-4.537,2.561-2.561a12.763,12.763,0,0,1-1.376-3.305H41.625Z" transform="translate(-19.167 -9.583)"/><path class="a" d="M19.208,27.208h57.75V68.917h3.208V27.208A3.208,3.208,0,0,0,76.958,24H19.208A3.208,3.208,0,0,0,16,27.208V68.917h3.208Z" transform="translate(-9.583)"/><path class="a" d="M0,144H77v3.208a3.208,3.208,0,0,1-3.208,3.208H3.208A3.208,3.208,0,0,1,0,147.208Z" transform="translate(0 -71.875)"/></g></svg>