<svg xmlns="http://www.w3.org/2000/svg" width="55.866" height="55.866" viewBox="0 0 55.866 55.866"><defs><style>.a{fill:#172341;}</style></defs><path class="a" d="M359.464,450.411a27.272,27.272,0,0,0-5.159-3.114l-6.54-3.019a17.642,17.642,0,0,1-2.84,5.059,15.8,15.8,0,0,1-2.3,2.33H361.1Zm0,0" transform="translate(-305.237 -395.801)"/><path class="a" d="M16.177,449.337a17.641,17.641,0,0,1-2.84-5.059L6.8,447.3a27.273,27.273,0,0,0-5.159,3.114L0,451.667H18.481A15.8,15.8,0,0,1,16.177,449.337Zm0,0" transform="translate(0 -395.801)"/><path class="a" d="M171.9,414.955v-.372a16.544,16.544,0,0,1-21.309,0v.372a1.642,1.642,0,0,1-.951,1.487s2.526,8.77,11.606,8.77,11.605-8.77,11.605-8.77A1.641,1.641,0,0,1,171.9,414.955Zm0,0" transform="translate(-133.313 -369.346)"/><path class="a" d="M147.312,263.326a13.329,13.329,0,0,0,13.312-13.317v-5.9H134v5.9A13.33,13.33,0,0,0,147.312,263.326Zm0,0" transform="translate(-119.379 -217.477)"/><path class="a" d="M88.993,48.546h33.528a1.637,1.637,0,0,0,0-3.275h-1.375V43.578a15.392,15.392,0,0,0-6.725-12.717V37.77a1.637,1.637,0,1,1-3.273,0V29.82a1.627,1.627,0,0,1,.121-.616,15.268,15.268,0,0,0-3.875-.934V39.778a1.637,1.637,0,1,1-3.273,0V28.27a15.257,15.257,0,0,0-3.874.934,1.637,1.637,0,0,1,.121.616v7.95a1.637,1.637,0,1,1-3.273,0V30.86a15.393,15.393,0,0,0-6.726,12.718v1.693H88.992a1.637,1.637,0,0,0,0,3.275Zm0,0" transform="translate(-77.824 -25.185)"/><path class="a" d="M309.664,29.106a1.636,1.636,0,0,0-3.152-.615,15.346,15.346,0,0,1,3.152,1.657Zm0,0" transform="translate(-273.067 -24.472)"/><path class="a" d="M178.242,27.469a1.637,1.637,0,0,0-1.637,1.638v1.04a15.346,15.346,0,0,1,3.152-1.657A1.637,1.637,0,0,0,178.242,27.469Zm0,0" transform="translate(-157.335 -24.472)"/><path class="a" d="M244.273,3.085V1.638a1.637,1.637,0,1,0-3.273,0V3.085a15.373,15.373,0,0,1,3.273,0Zm0,0" transform="translate(-214.704)"/></svg>