<svg xmlns="http://www.w3.org/2000/svg" width="58.5" height="58.5" viewBox="0 0 58.5 58.5"><defs><style>.a{fill:#172341;}</style></defs><path class="a" d="M175.321,16.425l6.43,3.381-1.228-7.16,5.205-5.073-7.192-1.044L175.321,0l-3.215,6.528-7.192,1.044,5.205,5.073-1.228,7.16Zm0,0" transform="translate(-146.071)"/><path class="a" d="M340.56,108.621l-3.215-6.515-3.215,6.515-7.188,1.044,5.2,5.072-1.228,7.162,6.43-3.381,6.434,3.381-1.232-7.162,5.539-5.072Zm0,0" transform="translate(-289.586 -90.439)"/><path class="a" d="M5.539,114.737,4.307,121.9l6.434-3.381,6.43,3.381-1.228-7.162,5.2-5.072-7.188-1.044-3.215-6.515-3.215,6.515L0,109.665Zm0,0" transform="translate(0 -90.439)"/><path class="a" d="M198.139,219.569a8.569,8.569,0,1,0-8.569,8.569A8.58,8.58,0,0,0,198.139,219.569Zm0,0" transform="translate(-160.319 -186.892)"/><path class="a" d="M151,373v5.256h23.994V373A12,12,0,0,0,151,373Zm0,0" transform="translate(-133.747 -319.753)"/><path class="a" d="M394.962,429.569A8.58,8.58,0,0,0,386.393,421a8.452,8.452,0,0,0-2.529.425,15.21,15.21,0,0,1,.815,4.717V431.4h10.283Zm0,0" transform="translate(-340.004 -372.897)"/><path class="a" d="M359.711,307.855a6.855,6.855,0,0,0-13.711,0c0,.218.044.424.064.637a15.422,15.422,0,0,1,3.929,5.572,6.783,6.783,0,0,0,2.862.646A6.862,6.862,0,0,0,359.711,307.855Zm0,0" transform="translate(-306.467 -266.608)"/><path class="a" d="M59.647,308.493c.02-.213.064-.419.064-.637a6.855,6.855,0,1,0-6.855,6.855,6.79,6.79,0,0,0,2.862-.646A15.419,15.419,0,0,1,59.647,308.493Zm0,0" transform="translate(-40.744 -266.608)"/><path class="a" d="M31,429.569V431.4H41.283v-5.256a15.21,15.21,0,0,1,.815-4.717A8.452,8.452,0,0,0,39.569,421,8.58,8.58,0,0,0,31,429.569Zm0,0" transform="translate(-27.458 -372.897)"/></svg>