<svg xmlns="http://www.w3.org/2000/svg" width="53.605" height="55.866" viewBox="0 0 53.605 55.866"><defs><style>.a{fill:#172341;}</style></defs><g transform="translate(-10.359 0.002)"><g transform="translate(10.359 -0.002)"><g transform="translate(0 0)"><path class="a" d="M61.38,28.655a1.637,1.637,0,0,1,0-1.447l2.084-4.262a4.85,4.85,0,0,0-2.093-6.44L57.18,14.281a1.637,1.637,0,0,1-.851-1.171l-.82-4.673a4.85,4.85,0,0,0-5.478-3.98l-4.7.664a1.637,1.637,0,0,1-1.376-.447l-3.41-3.3a4.849,4.849,0,0,0-6.772,0l-3.41,3.3a1.638,1.638,0,0,1-1.376.447l-4.7-.664a4.849,4.849,0,0,0-5.478,3.98l-.82,4.673a1.638,1.638,0,0,1-.851,1.171l-4.191,2.224a4.85,4.85,0,0,0-2.093,6.44l2.083,4.262a1.637,1.637,0,0,1,0,1.447L10.86,32.917a4.85,4.85,0,0,0,2.093,6.44l4.191,2.224a1.637,1.637,0,0,1,.851,1.171l.82,4.673a4.847,4.847,0,0,0,4.781,4.029,4.983,4.983,0,0,0,.7-.049l4.7-.664a1.637,1.637,0,0,1,1.376.447l3.41,3.3a4.85,4.85,0,0,0,6.771,0l3.41-3.3a1.639,1.639,0,0,1,1.376-.447l4.7.664a4.849,4.849,0,0,0,5.478-3.98l.82-4.673a1.638,1.638,0,0,1,.851-1.171l4.191-2.224a4.85,4.85,0,0,0,2.093-6.44ZM30.717,13.432a5.907,5.907,0,1,1-5.907,5.907A5.914,5.914,0,0,1,30.717,13.432ZM27.668,39.7a1.611,1.611,0,1,1-2.278-2.278L46.655,16.16a1.611,1.611,0,1,1,2.278,2.278Zm15.937,2.728a5.907,5.907,0,1,1,5.907-5.907A5.914,5.914,0,0,1,43.606,42.431Z" transform="translate(-10.359 0.002)"/></g></g><g transform="translate(40.92 33.838)"><path class="a" d="M293.137,310.141a2.685,2.685,0,1,0,2.685,2.685A2.688,2.688,0,0,0,293.137,310.141Z" transform="translate(-290.452 -310.141)"/></g><g transform="translate(28.032 16.654)"><path class="a" d="M175.018,152.646a2.685,2.685,0,1,0,2.685,2.685A2.688,2.688,0,0,0,175.018,152.646Z" transform="translate(-172.333 -152.646)"/></g></g></svg>