<svg xmlns="http://www.w3.org/2000/svg" width="61.959" height="59.5" viewBox="0 0 61.959 59.5"><defs><style>.a{fill:#172341;}</style></defs><g transform="translate(-256 -14)"><path class="a" d="M569.9,254.447V239.818a3.047,3.047,0,1,0-5.9,0v18.563h9.835A3.934,3.934,0,0,1,569.9,254.447Z" transform="translate(-270.136 -194.716)"/><path class="a" d="M282.554,446H256v2.459a2.462,2.462,0,0,0,2.459,2.459h24.687a5.379,5.379,0,0,1-.592-2.459Z" transform="translate(0 -378.893)"/><path class="a" d="M624,362.712v.624a3.254,3.254,0,1,0,6.393,0v-3.177a23.466,23.466,0,0,1-6.032,2.462Z" transform="translate(-322.76 -303.604)"/><path class="a" d="M422.128,14a22.131,22.131,0,0,0-21.839,25.693H406.3a16.228,16.228,0,1,1,21.241,11.734v6.159A22.129,22.129,0,0,0,422.128,14Z" transform="translate(-126.298)"/><path class="a" d="M475.046,101.34H472.67a13.178,13.178,0,0,0,.407,2.09h12.787a5.415,5.415,0,0,1,5.409,5.409v3.147a13.308,13.308,0,0,0,7.785-10.646h-2.376a1.475,1.475,0,1,1,0-2.95h2.376A13.3,13.3,0,0,0,487.34,86.67v2.376a1.475,1.475,0,1,1-2.95,0V86.67A13.3,13.3,0,0,0,472.67,98.389h2.376a1.475,1.475,0,1,1,0,2.95Zm5.841-6.452a1.475,1.475,0,0,1,2.086,0l2.84,2.84,4.919-4.818a1.475,1.475,0,1,1,2.065,2.108h0l-5.962,5.839a1.475,1.475,0,0,1-2.075-.011l-3.872-3.872A1.475,1.475,0,0,1,480.888,94.888Z" transform="translate(-190.034 -63.736)"/><path class="a" d="M319.934,235A3.934,3.934,0,0,0,316,238.934v20.53h19.178a1.475,1.475,0,0,1,1.475,1.475V263.4a3.934,3.934,0,0,0,7.868,0V238.934A3.934,3.934,0,0,1,348.455,235Zm15.326,9.559a.341.341,0,0,1-.354.354h-1.858a4.136,4.136,0,0,1-1.427,2.589,5.612,5.612,0,0,1-3.053,1.217q1.847,1.969,5.078,5.929a.3.3,0,0,1,.044.376.321.321,0,0,1-.321.2h-2.157a.326.326,0,0,1-.277-.133q-3.385-4.06-5.509-6.317a.331.331,0,0,1-.1-.243v-1.405a.359.359,0,0,1,.354-.354h1.239a4.992,4.992,0,0,0,2.351-.476,2.162,2.162,0,0,0,1.134-1.383H325.68a.34.34,0,0,1-.354-.354V243.43a.341.341,0,0,1,.354-.354h4.569q-.63-1.25-2.965-1.25h-1.6a.359.359,0,0,1-.354-.354V240a.341.341,0,0,1,.354-.354h9.2a.34.34,0,0,1,.354.354v1.129a.34.34,0,0,1-.354.354h-2.577a3.829,3.829,0,0,1,.708,1.593h1.892a.341.341,0,0,1,.354.354Z" transform="translate(-52.624 -193.832)"/></g></svg>