<svg xmlns="http://www.w3.org/2000/svg" width="62.933" height="59" viewBox="0 0 62.933 59"><defs><style>.a{fill:#172341;}</style></defs><g transform="translate(0 -16)"><g transform="translate(0 30.75)"><g transform="translate(0 0)"><path class="a" d="M50.027,150.75A16.558,16.558,0,0,1,33.62,136H5.531A5.537,5.537,0,0,0,0,141.531v33.188a5.537,5.537,0,0,0,5.531,5.531H53.715a5.537,5.537,0,0,0,5.531-5.531V147.941A16.493,16.493,0,0,1,50.027,150.75Zm-7.375,3.688a1.844,1.844,0,1,1-1.844,1.844A1.844,1.844,0,0,1,42.652,154.438Zm-7.375,0a1.844,1.844,0,1,1-1.844,1.844A1.844,1.844,0,0,1,35.277,154.438Zm-9.465,16.594a1.843,1.843,0,0,1-1.844,1.844H9.219a1.843,1.843,0,0,1-1.844-1.844v-3.687a9.217,9.217,0,0,1,4.068-7.642,7.375,7.375,0,1,1,10.3,0,9.217,9.217,0,0,1,4.068,7.642Zm24.215,1.844H35.277a1.844,1.844,0,0,1,0-3.687h14.75a1.844,1.844,0,0,1,0,3.688Zm0-7.375H35.277a1.844,1.844,0,0,1,0-3.687h14.75a1.844,1.844,0,0,1,0,3.688Zm0-7.375a1.844,1.844,0,1,1,1.844-1.844A1.844,1.844,0,0,1,50.027,158.125Z" transform="translate(0 -136)"/></g></g><g transform="translate(12.906 45.5)"><g transform="translate(0 0)"><path class="a" d="M108.688,256a3.688,3.688,0,1,0,3.688,3.688A3.692,3.692,0,0,0,108.688,256Z" transform="translate(-105 -256)"/></g></g><g transform="translate(11.063 56.563)"><path class="a" d="M95.531,346A5.537,5.537,0,0,0,90,351.531v1.844h11.063v-1.844A5.537,5.537,0,0,0,95.531,346Z" transform="translate(-90 -346)"/></g><g transform="translate(37.121 16)"><g transform="translate(0 0)"><path class="a" d="M314.783,16a12.907,12.907,0,1,0,13.029,12.906A13.028,13.028,0,0,0,314.783,16Zm6.958,10.522L314.366,33.9a1.843,1.843,0,0,1-2.607,0l-3.687-3.688a1.844,1.844,0,0,1,2.607-2.607l2.384,2.384,6.071-6.071a1.844,1.844,0,1,1,2.607,2.607Z" transform="translate(-302 -16)"/></g></g></g></svg>