<svg xmlns="http://www.w3.org/2000/svg" width="59.5" height="59.5" viewBox="0 0 59.5 59.5"><defs><style>.a{fill:#172341;}</style></defs><path class="a" d="M225.832,0h7.012V4.912h-7.012Zm0,0" transform="translate(-199.588)"/><path class="a" d="M163.962,216.8H136.094a3.512,3.512,0,0,0,3.437,2.812h21A3.511,3.511,0,0,0,163.962,216.8Zm0,0" transform="translate(-120.278 -191.606)"/><path class="a" d="M361.336,271h7.011v4.912h-7.011Zm0,0" transform="translate(-319.345 -239.507)"/><path class="a" d="M90.332,271h7.012v4.912H90.332Zm0,0" transform="translate(-79.834 -239.507)"/><path class="a" d="M163.507,3.506A3.509,3.509,0,0,0,160,0H156.5V6.655A1.743,1.743,0,0,1,154.752,8.4h-10.5a1.743,1.743,0,0,1-1.743-1.743V0h-3.505A3.51,3.51,0,0,0,135.5,3.506v18.2h28.007Zm0,0" transform="translate(-119.753)"/><path class="a" d="M4.031,490.613h21a3.511,3.511,0,0,0,3.436-2.812H.594A3.512,3.512,0,0,0,4.031,490.613Zm0,0" transform="translate(-0.525 -431.113)"/><path class="a" d="M295.5,271H292v6.655a1.743,1.743,0,0,1-1.743,1.743h-10.5a1.743,1.743,0,0,1-1.743-1.743V271h-3.506A3.51,3.51,0,0,0,271,274.506v18.2h28.007v-18.2A3.509,3.509,0,0,0,295.5,271Zm0,0" transform="translate(-239.507 -239.507)"/><path class="a" d="M275.034,490.613h21a3.511,3.511,0,0,0,3.436-2.812H271.6A3.511,3.511,0,0,0,275.034,490.613Zm0,0" transform="translate(-240.035 -431.113)"/><path class="a" d="M24.5,271H21v6.655a1.743,1.743,0,0,1-1.743,1.743H8.754a1.743,1.743,0,0,1-1.743-1.743V271H3.506A3.51,3.51,0,0,0,0,274.506v18.2H28.007v-18.2A3.51,3.51,0,0,0,24.5,271Zm0,0" transform="translate(0 -239.507)"/></svg>