<svg xmlns="http://www.w3.org/2000/svg" width="49.29" height="55.866" viewBox="0 0 49.29 55.866" style="fill:#172341;"><g transform="translate(-30.136)"><g transform="translate(50.434 0.447)"><path d="M243.54,26.848,221.752,5.056a3.275,3.275,0,1,0-4.632,4.63l21.792,21.79a3.273,3.273,0,0,0,4.629-4.629Z" transform="translate(-216.163 -4.1)"/></g><g transform="translate(41.85 9.046)"><g transform="translate(0)"><path d="M145.418,82.9l-.164.822a35.185,35.185,0,0,1-7.76,15.717L149.349,111.3a35.067,35.067,0,0,1,15.641-7.836l.824-.164Z" transform="translate(-137.494 -82.905)"/></g></g><g transform="translate(30.136 28.041)"><g transform="translate(0)"><path d="M39.677,256.989l-8.1,8.1a4.91,4.91,0,0,0,0,6.945l4.629,4.629a4.91,4.91,0,0,0,6.945,0l8.1-8.1Zm1.157,12.731a1.637,1.637,0,1,1-2.314-2.314l2.314-2.314a1.637,1.637,0,1,1,2.314,2.314Z" transform="translate(-30.136 -256.989)"/></g></g><g transform="translate(47.777 37.761)"><path d="M202.119,356.9l2.226-2.226a4.906,4.906,0,0,0,0-6.943l-1.654-1.655a31,31,0,0,0-2.636,1.993l1.975,1.978a1.633,1.633,0,0,1,0,2.313l-2.263,2.263-3.326-3.222-4.629,4.629,7.426,7.2a3.274,3.274,0,0,0,4.627-4.632Z" transform="translate(-191.813 -346.075)"/></g><g transform="translate(63.058)"><path d="M333.5,0a1.636,1.636,0,0,0-1.637,1.637V4.91a1.637,1.637,0,0,0,3.273,0V1.637A1.636,1.636,0,0,0,333.5,0Z" transform="translate(-331.864 0)"/></g><g transform="translate(72.879 13.094)"><g transform="translate(0)"><path d="M426.774,120H423.5a1.637,1.637,0,1,0,0,3.273h3.273a1.637,1.637,0,1,0,0-3.273Z" transform="translate(-421.864 -120)"/></g></g><g transform="translate(69.605 3.273)"><g transform="translate(0)"><path d="M397.931,30.479a1.636,1.636,0,0,0-2.314,0l-3.273,3.273a1.637,1.637,0,1,0,2.314,2.314l3.273-3.273A1.636,1.636,0,0,0,397.931,30.479Z" transform="translate(-391.864 -30)"/></g></g></g></svg>