<svg xmlns="http://www.w3.org/2000/svg" width="60.305" height="42.782" viewBox="0 0 60.305 42.782" style="fill:#172341;"><g transform="translate(0 -74.386)"><g transform="translate(27.516 87.347)"><g transform="translate(0 0)"><path d="M236.108,184.744a.816.816,0,0,0-.582-.315h-1.909v2.459h1.99a.7.7,0,0,0,.542-.324,1.448,1.448,0,0,0,.251-.906A1.3,1.3,0,0,0,236.108,184.744Z" transform="translate(-233.617 -184.429)"/></g></g><g transform="translate(4.044 74.386)"><g transform="translate(0 0)"><path d="M34.332,74.386v33.7H86.549v-33.7ZM52.75,94.642a4.98,4.98,0,0,1-1.2.841,6.342,6.342,0,0,1-1.44.518,6.63,6.63,0,0,1-1.5.178,5.322,5.322,0,0,1-2.337-.51,5.921,5.921,0,0,1-1.828-1.351,6.142,6.142,0,0,1-1.189-1.909,5.867,5.867,0,0,1-.42-2.167,5.728,5.728,0,0,1,1.553-3.9,5.893,5.893,0,0,1,1.844-1.31,6.384,6.384,0,0,1,5.362.186,4.483,4.483,0,0,1,1.82,1.82l-2.41,1.715a2.031,2.031,0,0,0-.429-.7,2.18,2.18,0,0,0-.59-.437,2.546,2.546,0,0,0-.671-.226,3.685,3.685,0,0,0-.671-.065,2.356,2.356,0,0,0-1.981.962,3,3,0,0,0-.469.971,3.924,3.924,0,0,0-.154,1.076,3.7,3.7,0,0,0,.178,1.148,2.992,2.992,0,0,0,.518.971,2.527,2.527,0,0,0,.833.671,2.408,2.408,0,0,0,1.108.251,3.162,3.162,0,0,0,.663-.073A2.468,2.468,0,0,0,50,93.065a2.215,2.215,0,0,0,.566-.437,1.939,1.939,0,0,0,.4-.655l2.572,1.537A3.277,3.277,0,0,1,52.75,94.642Zm8.257,1.44h0l-2.022-3.526H57.8v3.526H54.65V84.6h5.273a3.49,3.49,0,0,1,1.553.348,4.035,4.035,0,0,1,1.221.906,4.232,4.232,0,0,1,.8,1.278,3.833,3.833,0,0,1,.291,1.448,4.087,4.087,0,0,1-.437,1.868,3.806,3.806,0,0,1-1.213,1.415l2.426,4.222H61.007Zm13.247,0V90.032l-1.925,4.254H70.647l-1.925-4.254v6.049H65.568V84.6h3.445L71.488,90l2.491-5.4h3.429V96.082H74.254Z" transform="translate(-34.332 -74.386)"/></g></g><g transform="translate(0 111.776)"><g transform="translate(0 0)"><rect width="60.305" height="5.392"/></g></g></g></svg>