<?xml version="1.0" encoding="utf-8"?>
<!-- Generator: Adobe Illustrator 19.2.1, SVG Export Plug-In . SVG Version: 6.00 Build 0)  -->
<svg version="1.1" xmlns="http://www.w3.org/2000/svg" xmlns:xlink="http://www.w3.org/1999/xlink" x="0px" y="0px"
	 viewBox="0 0 1024 768" style="enable-background:new 0 0 1024 768;" xml:space="preserve">
<style type="text/css">
	.st0{fill:#FDD700;}
	.flattype.active path{
		fill:skyblue;
	}
</style>
<g id="Layer_1">
	<g class="type-1 flattype">
		<path class="st0" d="M411.2,366.5H297.5c-6.6,0-12-5.4-12-12V240.8c0-6.6,5.4-12,12-12h113.7c6.6,0,12,5.4,12,12v113.7
			C423.2,361.1,417.8,366.5,411.2,366.5z"/>
	</g>
</g>
<g id="Layer_2">
	<g class="type-2 flattype">
		<path class="st0" d="M664.7,536.6H551c-6.6,0-12-5.4-12-12V410.9c0-6.6,5.4-12,12-12h113.7c6.6,0,12,5.4,12,12v113.7
			C676.7,531.2,671.3,536.6,664.7,536.6z"/>
	</g>
</g>
<g id="Layer_3">
	<g class="type-3 flattype">
		<path class="st0" d="M498.9,536.6H385.2c-6.6,0-12-5.4-12-12V410.9c0-6.6,5.4-12,12-12h113.7c6.6,0,12,5.4,12,12v113.7
			C510.9,531.2,505.5,536.6,498.9,536.6z"/>
	</g>
</g>
<g id="Layer_4">
	<g class="type-4 flattype">
		<path class="st0" d="M742.8,366.5H629.1c-6.6,0-12-5.4-12-12V240.8c0-6.6,5.4-12,12-12h113.7c6.6,0,12,5.4,12,12v113.7
			C754.8,361.1,749.4,366.5,742.8,366.5z"/>
	</g>
</g>
</svg>
