<?xml version="1.0" encoding="utf-8"?>
<!-- Generator: Adobe Illustrator 22.1.0, SVG Export Plug-In . SVG Version: 6.00 Build 0)  -->
<svg version="1.1" id="Layer_1" xmlns="http://www.w3.org/2000/svg" xmlns:xlink="http://www.w3.org/1999/xlink" x="0px" y="0px"
	 viewBox="0 0 100 100" style="enable-background:new 0 0 100 100;" xml:space="preserve">
<style type="text/css">
	.st0{fill:#ffffff;}
	.st1{fill:#518ef7;}
	.st2{fill:#FFFFFF;}
</style>
<path class="st0" d="M50,0C22.4,0,0,22.4,0,50s22.4,50,50,50s50-22.4,50-50S77.6,0,50,0z M50,1c27.1,0,49,21.9,49,49S77.1,99,50,99
	S1,77.1,1,50C1,23,23,1,50,1"/>
<path class="st1" d="M50,1c27.1,0,49,21.9,49,49S77.1,99,50,99S1,77.1,1,50C1,23,23,1,50,1"/>
<path class="st2" d="M80.1,41.7c0.5,0,0.8,0.4,0.8,0.8v15c0,0.5-0.4,0.8-0.8,0.8H19.9c-0.5,0-0.8-0.4-0.8-0.8v-15
	c0-0.5,0.4-0.8,0.8-0.8L80.1,41.7 M80.1,40.8H19.9c-0.9,0-1.7,0.7-1.7,1.7v15c0,0.9,0.7,1.7,1.7,1.7l0,0h60.3c0.9,0,1.7-0.7,1.7-1.7
	c0,0,0,0,0,0v-15C81.8,41.6,81.1,40.8,80.1,40.8L80.1,40.8L80.1,40.8z"/>
<g>
	<path class="st0" d="M64.4,53c-0.3,0.1-0.6-0.1-0.7-0.4c-0.1-0.3,0.1-0.6,0.4-0.7l0,0l7-4.7c0.3-0.2,0.6-0.1,0.8,0.2
		c0.2,0.3,0.1,0.6-0.2,0.8l-7,4.8C64.7,52.9,64.5,53,64.4,53z"/>
	<path class="st0" d="M71.4,53c-0.1,0-0.2,0-0.3-0.1l-7-4.8c-0.3-0.2-0.3-0.6-0.2-0.8c0.2-0.3,0.6-0.3,0.8-0.2l7,4.8
		c0.3,0.1,0.5,0.4,0.4,0.7C72.1,52.9,71.8,53.1,71.4,53L71.4,53L71.4,53z"/>
	<path class="st0" d="M68,54.8c-0.3,0-0.6-0.3-0.6-0.6v-8.3c0-0.3,0.3-0.6,0.6-0.6l0,0c0.3,0,0.6,0.3,0.6,0.6v8.3
		C68.6,54.5,68.3,54.8,68,54.8z"/>
	<path class="st0" d="M52.5,53c-0.3,0.1-0.6-0.1-0.7-0.4c-0.1-0.3,0.1-0.6,0.4-0.7l7-4.7c0.3-0.2,0.6-0.1,0.8,0.2
		c0.2,0.3,0.1,0.6-0.2,0.8l0,0l-7,4.7C52.7,52.9,52.6,53,52.5,53z"/>
	<path class="st0" d="M59.5,53c-0.1,0-0.2,0-0.3-0.1l-7-4.8c-0.3-0.2-0.3-0.6-0.2-0.8s0.6-0.3,0.8-0.2l0,0l7,4.8
		c0.3,0.1,0.5,0.4,0.4,0.7C60.1,52.9,59.8,53.1,59.5,53L59.5,53L59.5,53z"/>
	<path class="st0" d="M56,54.8c-0.3,0-0.6-0.3-0.6-0.6l0,0v-8.3c0-0.3,0.3-0.6,0.6-0.6l0,0l0,0c0.3,0,0.6,0.3,0.6,0.6v8.3
		C56.6,54.5,56.3,54.8,56,54.8L56,54.8z"/>
	<path class="st0" d="M40.5,53c-0.3,0.1-0.6-0.1-0.7-0.4c-0.1-0.3,0.1-0.6,0.4-0.7l7-4.7c0.3-0.2,0.6-0.1,0.8,0.2
		c0.2,0.3,0.1,0.6-0.2,0.8l-7,4.7C40.7,52.9,40.6,53,40.5,53z"/>
	<path class="st0" d="M47.5,53c-0.1,0-0.2,0-0.3-0.1l-7-4.8c-0.3-0.2-0.3-0.6-0.2-0.8s0.6-0.3,0.8-0.2l0,0l7,4.8
		c0.3,0.1,0.5,0.4,0.4,0.7C48.2,52.9,47.9,53.1,47.5,53L47.5,53z"/>
	<path class="st0" d="M44.1,54.8c-0.3,0-0.6-0.3-0.6-0.6l0,0v-8.3c0-0.3,0.3-0.6,0.6-0.6l0,0l0,0c0.3,0,0.6,0.3,0.6,0.6v8.3
		C44.7,54.5,44.4,54.8,44.1,54.8L44.1,54.8z"/>
	<path class="st0" d="M28.6,53c-0.3,0.1-0.6-0.1-0.7-0.4c-0.1-0.3,0.1-0.6,0.4-0.7l0,0l7-4.7c0.3-0.2,0.6-0.1,0.8,0.2
		c0.2,0.3,0.1,0.6-0.2,0.8l-7,4.7C28.8,52.9,28.7,53,28.6,53z"/>
	<path class="st0" d="M35.6,53c-0.1,0-0.2,0-0.3-0.1l-7-4.8c-0.3-0.2-0.3-0.6-0.2-0.8s0.6-0.3,0.8-0.2l0,0l7,4.8
		c0.3,0.1,0.5,0.4,0.4,0.7C36.2,52.9,35.9,53.1,35.6,53L35.6,53L35.6,53z"/>
	<path class="st0" d="M32.1,54.8c-0.3,0-0.6-0.3-0.6-0.6l0,0v-8.3c0-0.3,0.3-0.6,0.6-0.6l0,0l0,0c0.3,0,0.6,0.3,0.6,0.6v8.3
		C32.7,54.5,32.4,54.8,32.1,54.8L32.1,54.8z"/>
</g>
<path class="st2" d="M48.7,96.6c-0.4,0-0.8-0.4-0.8-0.8c0,0,0,0,0,0l0,0c0-0.4,0.4-0.8,0.8-0.8c0,0,0,0,0,0l0,0
	c0.4,0,0.8,0.4,0.8,0.8c0,0,0,0,0,0l0,0C49.5,96.3,49.1,96.6,48.7,96.6L48.7,96.6L48.7,96.6z M52.8,95.8c0-0.4,0.3-0.8,0.7-0.8
	c0,0,0,0,0,0l0,0c0.4,0,0.8,0.3,0.8,0.7l0,0c0,0.4-0.3,0.8-0.7,0.8h-0.1C53.2,96.5,52.8,96.2,52.8,95.8L52.8,95.8z M43.7,96.2
	L43.7,96.2c-0.4-0.1-0.7-0.5-0.7-0.9l0,0c0.1-0.4,0.4-0.7,0.9-0.7c0,0,0,0,0,0l0,0c0.4,0.1,0.7,0.4,0.7,0.9l0,0
	c0,0.4-0.4,0.7-0.8,0.7L43.7,96.2L43.7,96.2z M57.7,95.2c-0.1-0.4,0.2-0.8,0.6-0.9c0,0,0,0,0,0l0,0c0.4-0.1,0.8,0.2,0.9,0.6
	c0,0,0,0,0,0l0,0c0.1,0.4-0.2,0.8-0.6,0.9c0,0,0,0,0,0h-0.1C58.1,95.8,57.7,95.6,57.7,95.2L57.7,95.2z M38.8,95.2
	c-0.4-0.1-0.7-0.5-0.6-0.9l0,0c0.1-0.4,0.5-0.7,0.9-0.6l0,0c0.4,0.1,0.7,0.5,0.6,0.9l0,0c-0.1,0.3-0.4,0.6-0.8,0.6l0,0
	C39,95.3,38.9,95.3,38.8,95.2L38.8,95.2z M62.4,94.1c-0.1-0.4,0.2-0.8,0.5-0.9l0,0c0.4-0.1,0.8,0.1,1,0.5l0,0c0.1,0.4-0.1,0.8-0.5,1
	l0,0c-0.1,0-0.1,0-0.2,0l0,0c-0.3,0-0.6-0.2-0.8-0.5L62.4,94.1z M34,93.7L34,93.7c-0.4-0.1-0.6-0.6-0.5-1c0,0,0,0,0,0l0,0
	c0.1-0.4,0.6-0.6,1-0.5c0,0,0,0,0,0l0,0c0.4,0.1,0.6,0.6,0.5,1c0,0,0,0,0,0l0,0c-0.1,0.3-0.4,0.5-0.7,0.5l0,0c-0.1,0-0.1,0-0.2,0.1
	L34,93.7z M67,92.5c-0.2-0.4,0-0.8,0.4-1c0,0,0,0,0,0l0,0c0.4-0.2,0.8,0,1,0.4c0,0,0,0,0,0l0,0c0.2,0.4,0,0.8-0.4,1l0,0
	c-0.1,0-0.2,0-0.3,0l0,0c-0.2,0-0.5-0.1-0.6-0.3L67,92.5z M29.5,91.9L29.5,91.9c-0.4-0.2-0.5-0.7-0.4-1l0,0c0.2-0.4,0.6-0.5,1-0.4
	l0,0c0.4,0.2,0.5,0.6,0.4,1c0,0,0,0,0,0l0,0c-0.1,0.3-0.4,0.4-0.7,0.4l0,0C29.8,92,29.7,92,29.5,91.9z M71.6,90.5
	c-0.2-0.4-0.1-0.8,0.3-1c0,0,0,0,0,0l0,0c0.4-0.2,0.8-0.1,1.1,0.3c0,0,0,0,0,0l0,0c0.2,0.4,0.1,0.8-0.3,1.1l0,0
	c-0.1,0.1-0.2,0.1-0.4,0.1l0,0C72,91,71.6,90.8,71.6,90.5L71.6,90.5z M25.2,89.5c-0.4-0.2-0.5-0.7-0.2-1.1c0,0,0,0,0,0l0,0
	c0.2-0.4,0.7-0.5,1.1-0.2l0,0c0.4,0.2,0.5,0.7,0.2,1.1c0,0,0,0,0,0l0,0c-0.1,0.2-0.4,0.4-0.7,0.4l0,0C25.5,89.6,25.3,89.6,25.2,89.5
	L25.2,89.5z M75.7,88c-0.3-0.3-0.2-0.8,0.1-1.1c0,0,0,0,0.1,0l0,0c0.3-0.3,0.8-0.2,1.1,0.1c0,0,0,0,0,0.1l0,0
	c0.3,0.3,0.2,0.8-0.1,1.1c0,0,0,0-0.1,0.1l0,0c-0.1,0.1-0.3,0.1-0.4,0.1l0,0C76.1,88.4,75.8,88.2,75.7,88z M21.1,86.6L21.1,86.6
	c-0.3-0.3-0.4-0.7-0.2-1.1c0,0,0,0,0-0.1l0,0c0.2-0.3,0.7-0.4,1.1-0.1c0,0,0,0,0,0l0,0c0.3,0.2,0.4,0.7,0.2,1.1c0,0,0,0.1-0.1,0.1
	l0,0c-0.1,0.2-0.4,0.3-0.6,0.3l0,0C21.4,86.8,21.2,86.7,21.1,86.6L21.1,86.6z M79.5,85.1c-0.3-0.3-0.3-0.8,0-1.1c0,0,0,0,0.1-0.1
	l0,0c0.3-0.3,0.8-0.3,1.1,0c0,0,0,0,0,0l0,0c0.3,0.3,0.3,0.8,0,1.1c0,0,0,0,0,0l0,0c-0.1,0.1-0.3,0.2-0.5,0.2l0,0
	C79.9,85.3,79.7,85.2,79.5,85.1z M17.4,83.3L17.4,83.3C17,83,17,82.6,17.3,82.2c0,0,0,0,0.1-0.1l0,0c0.3-0.3,0.8-0.3,1.1,0
	c0,0,0,0,0,0l0,0c0.3,0.3,0.3,0.8,0,1.1c0,0,0,0,0,0l0,0c-0.1,0.2-0.3,0.2-0.6,0.2l0,0C17.7,83.6,17.5,83.5,17.4,83.3z M83.1,81.7
	c-0.3-0.3-0.3-0.8,0-1.1c0,0,0,0,0,0l0,0c0.3-0.3,0.8-0.3,1.1,0c0,0,0,0,0,0l0,0c0.3,0.3,0.3,0.8,0,1.1c0,0,0,0,0,0l0,0
	c-0.1,0.2-0.4,0.3-0.6,0.3l0,0C83.5,82,83.3,81.9,83.1,81.7z M14,79.7c-0.3-0.3-0.3-0.8,0-1.1c0,0,0,0,0.1,0l0,0
	c0.3-0.3,0.8-0.3,1.1,0c0,0,0,0,0,0.1l0,0c0.3,0.3,0.3,0.8,0,1.1c0,0,0,0-0.1,0l0,0c-0.1,0.1-0.3,0.2-0.5,0.2l0,0
	C14.4,80,14.2,79.8,14,79.7z M86.4,78c-0.4-0.2-0.4-0.7-0.2-1.1c0,0,0,0,0,0l0,0c0.2-0.3,0.7-0.4,1.1-0.2c0,0,0.1,0,0.1,0.1l0,0
	c0.4,0.2,0.5,0.7,0.2,1.1c0,0,0,0.1-0.1,0.1l0,0c-0.1,0.2-0.4,0.3-0.6,0.3l0,0C86.7,78.2,86.5,78.1,86.4,78z M11,75.7
	c-0.2-0.3-0.1-0.8,0.2-1.1c0,0,0,0,0,0l0,0c0.4-0.2,0.8-0.1,1.1,0.2l0,0c0.3,0.3,0.2,0.8-0.2,1.1c0,0,0,0-0.1,0l0,0
	c-0.1,0.1-0.3,0.1-0.4,0.1l0,0C11.4,76.1,11.2,75.9,11,75.7z M89.1,74c-0.4-0.2-0.5-0.7-0.3-1.1l0,0c0.2-0.4,0.7-0.5,1.1-0.3l0,0
	c0.4,0.2,0.5,0.7,0.3,1.1l0,0c-0.1,0.2-0.4,0.4-0.7,0.4l0,0C89.4,74.1,89.2,74.1,89.1,74z M8.5,71.4c-0.2-0.4,0-0.8,0.3-1
	c0,0,0,0,0,0l0,0c0.4-0.2,0.8,0,1,0.3l0,0c0.2,0.4,0,0.8-0.3,1c0,0,0,0,0,0l0,0c-0.1,0.1-0.2,0.1-0.4,0.1l0,0
	C8.9,71.8,8.7,71.6,8.5,71.4z M91.5,69.7c-0.4-0.2-0.6-0.6-0.4-1c0,0,0,0,0,0l0,0c0.2-0.4,0.6-0.6,1-0.4l0,0c0.4,0.2,0.6,0.6,0.4,1
	l0,0c-0.1,0.3-0.4,0.5-0.7,0.5l0,0C91.7,69.8,91.6,69.7,91.5,69.7L91.5,69.7z M6.5,66.8L6.5,66.8c-0.2-0.4,0-0.8,0.4-1c0,0,0,0,0,0
	l0,0c0.4-0.2,0.8,0,1,0.4c0,0,0,0,0,0l0,0c0.1,0.4,0,0.8-0.4,1l0,0c-0.1,0-0.2,0-0.3,0l0,0C6.9,67.3,6.6,67.1,6.5,66.8L6.5,66.8z
	 M93.3,65.2c-0.4-0.1-0.6-0.6-0.5-1l0,0c0.1-0.4,0.6-0.6,1-0.5l0,0c0.4,0.1,0.6,0.6,0.5,1l0,0c-0.1,0.3-0.4,0.5-0.7,0.5l0,0
	C93.5,65.2,93.4,65.2,93.3,65.2L93.3,65.2z M4.9,62.1c-0.1-0.4,0.1-0.8,0.5-1l0,0c0.4-0.1,0.8,0.1,0.9,0.6c0,0,0,0,0,0l0,0
	c0.1,0.4-0.1,0.8-0.5,0.9c0,0,0,0,0,0l0,0c-0.1,0-0.1,0-0.2,0l0,0C5.3,62.7,5,62.4,4.9,62.1z M94.7,60.5c-0.4-0.1-0.7-0.5-0.6-0.9
	c0,0,0,0,0,0l0,0c0.1-0.4,0.5-0.7,0.9-0.6c0,0,0,0,0,0l0,0c0.4,0.1,0.7,0.5,0.6,0.9c0,0,0,0,0,0l0,0c-0.1,0.4-0.4,0.6-0.8,0.6l0,0
	L94.7,60.5z M3.9,57.3L3.9,57.3c-0.1-0.4,0.2-0.8,0.6-0.9l0,0C5,56.3,5.4,56.6,5.4,57l0,0c0.1,0.4-0.2,0.8-0.6,0.9c0,0,0,0,0,0H4.7
	C4.3,57.9,4,57.6,3.9,57.3z M95.5,55.7c-0.4,0-0.7-0.4-0.7-0.8c0,0,0,0,0,0l0,0c0-0.4,0.4-0.7,0.9-0.7l0,0c0.4,0,0.7,0.4,0.7,0.8
	c0,0,0,0,0,0l0,0C96.3,55.4,96,55.7,95.5,55.7L95.5,55.7L95.5,55.7z M3.4,52.3c0-0.4,0.3-0.8,0.7-0.8c0,0,0,0,0,0l0,0
	c0.4,0,0.8,0.3,0.8,0.7l0,0C5,52.6,4.7,53,4.2,53c0,0,0,0,0,0l0,0C3.8,53,3.4,52.7,3.4,52.3z M95.1,50L95.1,50
	c0-0.4,0.3-0.8,0.7-0.8c0,0,0,0,0,0l0,0c0.4,0,0.7,0.4,0.7,0.8l0,0c0,0.4-0.3,0.8-0.8,0.8l0,0l0,0C95.4,50.7,95.1,50.4,95.1,50z
	 M4.2,48.1c-0.4,0-0.8-0.3-0.8-0.8c0,0,0,0,0-0.1l0,0c0-0.4,0.4-0.8,0.8-0.7c0,0,0,0,0,0l0,0C4.7,46.6,5,47,5,47.4c0,0,0,0,0,0l0,0
	C5,47.8,4.6,48.1,4.2,48.1L4.2,48.1L4.2,48.1z M94.9,45.5c0-0.4,0.3-0.8,0.7-0.8c0,0,0,0,0,0l0,0c0.4,0,0.8,0.3,0.8,0.7c0,0,0,0,0,0
	l0,0c0,0.4-0.3,0.8-0.7,0.8h-0.1C95.3,46.2,94.9,45.9,94.9,45.5L94.9,45.5z M4.6,43.3c-0.4-0.1-0.7-0.5-0.6-0.9l0,0
	c0.1-0.4,0.5-0.7,0.9-0.6l0,0c0.4,0.1,0.7,0.5,0.6,0.9c0,0,0,0,0,0l0,0c-0.1,0.4-0.4,0.6-0.8,0.6L4.6,43.3L4.6,43.3z M94.2,40.8
	L94.2,40.8c-0.1-0.4,0.2-0.8,0.6-0.9c0,0,0,0,0,0l0,0c0.4-0.1,0.8,0.2,0.9,0.6l0,0c0.1,0.4-0.2,0.8-0.6,0.9c0,0,0,0,0,0H95
	C94.6,41.4,94.2,41.2,94.2,40.8L94.2,40.8z M5.6,38.5c-0.4-0.1-0.7-0.5-0.5-1l0,0c0.1-0.4,0.5-0.7,1-0.5c0,0,0,0,0,0l0,0
	c0.4,0.1,0.7,0.5,0.6,0.9c0,0,0,0,0,0l0,0c-0.1,0.3-0.4,0.6-0.8,0.6l0,0C5.7,38.5,5.7,38.5,5.6,38.5L5.6,38.5z M93,36.2
	c-0.1-0.4,0.1-0.8,0.5-1c0,0,0,0,0,0l0,0c0.4-0.1,0.8,0.1,1,0.5c0,0,0,0,0,0l0,0c0.1,0.4-0.1,0.8-0.5,1l0,0h-0.2l0,0
	C93.4,36.7,93,36.5,93,36.2L93,36.2z M7.1,33.8c-0.4-0.2-0.6-0.6-0.4-1c0,0,0,0,0,0l0,0c0.2-0.4,0.6-0.6,1-0.4l0,0
	c0.4,0.2,0.6,0.6,0.4,1c0,0,0,0,0,0l0,0c-0.1,0.3-0.4,0.5-0.7,0.5l0,0C7.3,33.9,7.1,33.9,7.1,33.8z M91.2,31.7c-0.2-0.4,0-0.8,0.4-1
	c0,0,0,0,0,0l0,0c0.4-0.2,0.8,0,1,0.4c0,0,0,0,0,0l0,0c0.2,0.4,0,0.8-0.4,1c0,0,0,0,0,0l0,0c-0.1,0-0.2,0.1-0.3,0.1l0,0
	C91.6,32.1,91.3,31.9,91.2,31.7z M9,29.4c-0.4-0.2-0.5-0.7-0.3-1c0,0,0,0,0,0l0,0c0.2-0.4,0.7-0.5,1-0.3l0,0l0,0
	c0.4,0.2,0.5,0.7,0.3,1c0,0,0,0,0,0l0,0c-0.1,0.3-0.4,0.4-0.7,0.4l0,0C9.2,29.5,9.1,29.4,9,29.4L9,29.4z M89,27.4
	c-0.2-0.4-0.1-0.9,0.3-1.1l0,0c0.4-0.2,0.8-0.1,1.1,0.3l0,0c0.2,0.4,0.1,0.8-0.3,1c0,0,0,0,0,0l0,0c-0.1,0.1-0.2,0.1-0.4,0.1l0,0
	C89.4,27.8,89.2,27.6,89,27.4L89,27.4z M11.5,25.1c-0.3-0.2-0.4-0.7-0.2-1.1l0,0c0.2-0.4,0.7-0.5,1.1-0.2c0,0,0,0,0,0l0,0
	c0.4,0.2,0.5,0.7,0.2,1.1l0,0c-0.1,0.2-0.4,0.3-0.6,0.3l0,0C11.7,25.3,11.6,25.2,11.5,25.1L11.5,25.1z M86.4,23.4
	c-0.3-0.3-0.2-0.8,0.1-1.1c0,0,0,0,0,0l0,0c0.3-0.3,0.8-0.2,1.1,0.1c0,0,0,0,0,0l0,0c0.3,0.3,0.2,0.8-0.2,1.1l0,0
	c-0.1,0.1-0.3,0.1-0.5,0.1l0,0C86.8,23.7,86.5,23.6,86.4,23.4z M14.3,21.1c-0.3-0.3-0.4-0.7-0.1-1.1c0,0,0,0,0-0.1l0,0
	c0.3-0.3,0.7-0.4,1.1-0.1c0,0,0,0,0.1,0l0,0c0.3,0.3,0.4,0.7,0.1,1.1c0,0,0,0,0,0.1l0,0c-0.1,0.2-0.4,0.3-0.6,0.3l0,0
	C14.7,21.3,14.5,21.3,14.3,21.1L14.3,21.1z M83.3,19.6c-0.3-0.3-0.3-0.8-0.1-1.1c0,0,0,0,0.1-0.1l0,0c0.3-0.3,0.8-0.3,1.1,0
	c0,0,0,0,0,0l0,0c0.3,0.3,0.3,0.8,0,1.1c0,0,0,0,0,0l0,0c-0.1,0.1-0.3,0.2-0.5,0.2l0,0C83.7,19.8,83.5,19.8,83.3,19.6L83.3,19.6z
	 M17.6,17.5c-0.3-0.3-0.3-0.8,0-1.1c0,0,0,0,0,0l0,0c0.3-0.3,0.8-0.3,1.1,0c0,0,0,0,0,0l0,0c0.3,0.3,0.3,0.8,0,1.1c0,0,0,0,0,0l0,0
	c-0.1,0.1-0.3,0.2-0.5,0.2l0,0C18,17.7,17.8,17.7,17.6,17.5z M79.9,16.3c-0.3-0.3-0.3-0.8,0-1.1c0,0,0,0,0,0l0,0
	c0.3-0.3,0.8-0.4,1.1-0.1c0,0,0,0,0,0l0,0c0.3,0.3,0.4,0.8,0.1,1.1c0,0,0,0,0,0l0,0c-0.1,0.2-0.4,0.3-0.6,0.3l0,0
	C80.3,16.5,80.1,16.4,79.9,16.3z M21.3,14.3c-0.3-0.3-0.3-0.8,0.1-1.1c0,0,0,0,0.1,0l0,0c0.3-0.3,0.8-0.2,1.1,0.1c0,0,0,0,0,0.1l0,0
	c0.3,0.3,0.2,0.8-0.1,1.1c0,0,0,0-0.1,0l0,0c-0.1,0.1-0.3,0.2-0.5,0.2l0,0C21.6,14.6,21.4,14.4,21.3,14.3z M76.1,13.3L76.1,13.3
	c-0.4-0.2-0.4-0.7-0.2-1.1c0,0,0,0,0,0l0,0c0.2-0.3,0.7-0.4,1.1-0.2c0,0,0,0,0,0l0,0c0.3,0.2,0.4,0.7,0.2,1.1l0,0
	c-0.1,0.2-0.4,0.3-0.6,0.3l0,0C76.4,13.4,76.3,13.3,76.1,13.3z M25.2,11.4c-0.2-0.4-0.1-0.8,0.3-1.1l0,0c0.4-0.2,0.8-0.1,1.1,0.3
	l0,0c0.2,0.4,0.1,0.8-0.2,1.1c0,0,0,0,0,0l0,0c-0.1,0.1-0.3,0.1-0.4,0.1l0,0C25.6,11.7,25.4,11.6,25.2,11.4z M72.1,10.7
	c-0.4-0.2-0.5-0.7-0.3-1.1c0,0,0,0,0,0l0,0c0.2-0.4,0.7-0.5,1-0.3l0,0c0.4,0.2,0.5,0.7,0.3,1.1c0,0,0,0,0,0l0,0
	c-0.1,0.2-0.4,0.4-0.7,0.4l0,0C72.4,10.8,72.2,10.7,72.1,10.7L72.1,10.7z M29.5,9c-0.2-0.4,0-0.8,0.4-1c0,0,0,0,0,0l0,0
	c0.4-0.2,0.8,0,1,0.4c0,0,0,0,0,0l0,0c0.2,0.4,0,0.8-0.4,1c0,0,0,0,0,0l0,0c-0.1,0.1-0.2,0.1-0.3,0.1l0,0C29.9,9.4,29.6,9.2,29.5,9z
	 M67.8,8.5L67.8,8.5c-0.4-0.2-0.6-0.6-0.4-1c0,0,0,0,0,0l0,0c0.2-0.4,0.6-0.6,1-0.4c0,0,0,0,0,0l0,0c0.4,0.2,0.6,0.6,0.4,1
	c0,0,0,0,0,0l0,0c-0.1,0.3-0.4,0.5-0.7,0.5l0,0C68,8.6,67.9,8.6,67.8,8.5z M33.9,7c-0.1-0.4,0.1-0.8,0.5-1c0,0,0,0,0,0l0,0
	c0.4-0.1,0.8,0.1,1,0.5c0,0,0,0,0,0l0,0c0.1,0.4-0.1,0.9-0.5,1l0,0c-0.1,0-0.2,0-0.3,0l0,0C34.4,7.5,34.1,7.3,33.9,7z M63.3,6.9
	L63.3,6.9c-0.4-0.1-0.6-0.6-0.5-1l0,0c0.1-0.4,0.6-0.6,1-0.5c0,0,0,0,0,0l0,0c0.4,0.1,0.6,0.5,0.5,0.9c0,0,0,0,0,0l0,0
	c-0.1,0.3-0.4,0.6-0.7,0.6l0,0L63.3,6.9z M38.6,5.5c-0.1-0.4,0.2-0.8,0.6-0.9c0,0,0,0,0,0l0,0c0.4-0.1,0.8,0.2,0.9,0.6l0,0
	C40.2,5.6,40,6,39.6,6.1l0,0h-0.2l0,0C39,6.1,38.7,5.9,38.6,5.5z M58.6,5.7c-0.4-0.1-0.7-0.5-0.6-0.9c0,0,0,0,0,0l0,0
	c0.1-0.4,0.5-0.7,0.9-0.6c0,0,0,0,0,0l0,0c0.4,0.1,0.7,0.5,0.6,0.9c0,0,0,0,0,0l0,0c-0.1,0.4-0.4,0.6-0.8,0.6L58.6,5.7L58.6,5.7z
	 M43.4,4.5c-0.1-0.4,0.2-0.8,0.7-0.9c0,0,0,0,0,0l0,0c0.4-0.1,0.8,0.2,0.9,0.6c0,0,0,0,0,0l0,0c0.1,0.4-0.2,0.8-0.7,0.9c0,0,0,0,0,0
	h-0.1C43.8,5.2,43.5,4.9,43.4,4.5z M53.9,5c-0.4,0-0.7-0.4-0.7-0.8c0,0,0,0,0,0l0,0c0-0.4,0.4-0.7,0.8-0.7c0,0,0,0,0,0l0,0
	c0.4,0,0.7,0.4,0.7,0.8c0,0,0,0,0,0l0,0C54.7,4.7,54.3,5,53.9,5L53.9,5z M48.3,4.1c0-0.4,0.3-0.8,0.7-0.8c0,0,0,0,0,0l0,0
	c0.4,0,0.8,0.3,0.8,0.7c0,0,0,0,0,0l0,0c0,0.4-0.3,0.8-0.7,0.8c0,0,0,0,0,0l0,0C48.6,4.9,48.3,4.6,48.3,4.1L48.3,4.1z"/>
</svg>
