<svg xmlns="http://www.w3.org/2000/svg" xmlns:xlink="http://www.w3.org/1999/xlink" width="68.457" height="81.496" viewBox="0 0 68.457 81.496"><defs><style>.a{fill:url(#a);}</style><linearGradient id="a" x1="0.5" x2="0.5" y2="1" gradientUnits="objectBoundingBox"><stop offset="0" stop-color="#97b350"/><stop offset="0.877" stop-color="#97b350"/><stop offset="1" stop-color="#638314"/></linearGradient></defs><g transform="translate(0 0)"><path class="a" d="M-1307.1,1483.592l-6.3,1.6c-.352.089-.7.2-1.058.259a1.324,1.324,0,0,1-1.609-.976,1.3,1.3,0,0,1,1.028-1.571c1.02-.288,2.05-.542,3.078-.8q3.965-1,7.932-2c1.2-.3,1.91.206,1.923,1.447.039,3.759.052,7.518.058,11.277,0,.97-.511,1.538-1.3,1.527s-1.291-.6-1.3-1.545c-.023-2.122-.021-4.244-.034-6.366,0-.321-.027-.642-.041-.963l-.31-.2a4.111,4.111,0,0,1-.405.7c-2.459,2.8-4.917,5.607-7.405,8.383a.907.907,0,0,0-.126,1.247,6,6,0,0,1-2.783,8.37,5.962,5.962,0,0,1-8.128-3.4.986.986,0,0,0-1.1-.774q-6.367.039-12.734,0a1,1,0,0,0-1.11.766,5.944,5.944,0,0,1-8.68,3.11.9.9,0,0,0-1.2.092q-4.9,4.14-9.833,8.231a.858.858,0,0,0-.293,1.149,6.031,6.031,0,0,1-3.859,7.878,6.059,6.059,0,0,1-7.59-4.146,5.993,5.993,0,0,1,4.515-7.51,5.584,5.584,0,0,1,4.294.676.954.954,0,0,0,1.334-.137q4.862-4.11,9.762-8.173a.86.86,0,0,0,.27-1.158,5.972,5.972,0,0,1,3.6-7.767,5.97,5.97,0,0,1,7.643,3.558,1.039,1.039,0,0,0,1.174.8q6.367-.037,12.734,0a.935.935,0,0,0,1.04-.732,5.991,5.991,0,0,1,7.946-3.539,1.062,1.062,0,0,0,.929-.1c2.629-2.935,5.22-5.9,7.815-8.87A1.361,1.361,0,0,0-1307.1,1483.592Z" transform="translate(1370.502 -1480.016)"/><path class="a" d="M-1336.423,1676.349c-.349.024-.553.051-.758.051-6.457,0-12.913.013-19.37-.015a4.062,4.062,0,0,1-3.775-5.853,3.852,3.852,0,0,1,3.643-2.292c4.759-.032,9.518,0,14.277-.007.468,0,.856,0,1.085.56a23.327,23.327,0,0,0,4.619,7.133A4.03,4.03,0,0,1-1336.423,1676.349Z" transform="translate(1364.307 -1599.612)"/><path class="a" d="M-1340.074,1609.216c-.761,1.952-1.495,3.832-2.227,5.712-.022.056-.036.116-.052.174-.206.722-.2,1.745-.674,2.087-.533.381-1.508.167-2.292.168-3.73.006-7.461.023-11.191-.013a4.071,4.071,0,0,1-3.781-5.915,3.622,3.622,0,0,1,3.235-2.186C-1351.387,1609.178-1345.718,1609.216-1340.074,1609.216Z" transform="translate(1364.303 -1562.108)"/><path class="a" d="M-1342.636,1646.856a2.818,2.818,0,0,1-.425.05c-4.484.006-8.968.031-13.452,0a4,4,0,0,1-4.16-4.371,3.838,3.838,0,0,1,3.512-3.687c4.6-.1,9.2-.033,13.737-.033Z" transform="translate(1364.264 -1580.908)"/><path class="a" d="M-1283.745,1583.6a21.864,21.864,0,0,0-21.859,21.891,21.9,21.9,0,0,0,21.826,21.842,21.873,21.873,0,0,0,21.9-21.85A21.872,21.872,0,0,0-1283.745,1583.6Zm6.467,19.737a.4.4,0,0,1-.116.3.4.4,0,0,1-.3.116h-2.162a4.811,4.811,0,0,1-1.66,3.011,6.523,6.523,0,0,1-3.552,1.416q2.149,2.291,5.906,6.9a.352.352,0,0,1,.052.438.373.373,0,0,1-.373.231h-2.509a.38.38,0,0,1-.322-.154q-3.938-4.724-6.409-7.348a.385.385,0,0,1-.116-.283v-1.634a.4.4,0,0,1,.122-.29.4.4,0,0,1,.289-.122h1.442a5.806,5.806,0,0,0,2.735-.553,2.515,2.515,0,0,0,1.319-1.609h-5.5a.4.4,0,0,1-.3-.116.4.4,0,0,1-.116-.3v-1.312a.4.4,0,0,1,.116-.3.4.4,0,0,1,.3-.116h5.315q-.733-1.454-3.449-1.454h-1.866a.4.4,0,0,1-.289-.123.394.394,0,0,1-.122-.29v-1.712a.4.4,0,0,1,.116-.3.4.4,0,0,1,.3-.116h10.707a.4.4,0,0,1,.3.116.4.4,0,0,1,.115.3v1.313a.4.4,0,0,1-.115.3.4.4,0,0,1-.3.115h-3a4.46,4.46,0,0,1,.824,1.853h2.2a.4.4,0,0,1,.3.116.4.4,0,0,1,.116.3Z" transform="translate(1329.263 -1545.839)"/></g></svg>