<svg xmlns="http://www.w3.org/2000/svg" xmlns:xlink="http://www.w3.org/1999/xlink" width="62.879" height="76.822" viewBox="0 0 62.879 76.822"><defs><style>.a{fill:url(#a);}</style><linearGradient id="a" x1="0.5" x2="0.5" y2="1" gradientUnits="objectBoundingBox"><stop offset="0" stop-color="#97b350"/><stop offset="0.877" stop-color="#97b350"/><stop offset="1" stop-color="#638314"/></linearGradient></defs><path class="a" d="M247.454,108.4h-2.246v55.186a6.659,6.659,0,0,1-6.65,6.65H197.7v2.046a4.245,4.245,0,0,0,4.244,4.244h45.5a4.245,4.245,0,0,0,4.244-4.244V112.644A4.238,4.238,0,0,0,247.454,108.4Z" transform="translate(-188.811 -99.704)"/><path class="a" d="M113.887,68.125h22.751a4.245,4.245,0,0,0,4.244-4.244V4.244A4.245,4.245,0,0,0,136.638,0H106.322V1.4a4.125,4.125,0,0,1,.024.449V13.477a5.981,5.981,0,0,1-5.977,5.977H88.745c-.12,0-.249-.008-.369-.016H86.9V63.882a4.245,4.245,0,0,0,4.244,4.244h22.743Zm.858-14.424H99.912a2.006,2.006,0,0,1,0-4.011h14.841a2.006,2.006,0,1,1-.008,4.011Zm14.841-10.236H99.912a2.006,2.006,0,0,1,0-4.011h29.675a2.006,2.006,0,0,1,0,4.011ZM99.912,28.583h29.675a2.006,2.006,0,0,1,0,4.011H99.912a2.006,2.006,0,0,1,0-4.011Z" transform="translate(-86.9)"/><path class="a" d="M89.339,17.783H101a3.561,3.561,0,0,0,3.53-3.53V2.589A1.786,1.786,0,0,0,102.729.8a1.739,1.739,0,0,0-1.251.529L88.072,14.735A1.787,1.787,0,0,0,89.339,17.783Z" transform="translate(-87.494 -0.736)"/></svg>