<svg xmlns="http://www.w3.org/2000/svg" width="195" height="53" viewBox="0 0 195 53"><defs><style>.a,.d{fill:#fff;}.a{opacity:0.832;}.b{fill:#e64662;}.c{font-size:12px;font-family:Poppins-SemiBold, Poppins;font-weight:600;}</style></defs><g transform="translate(0.094 -0.166)"><rect class="a" width="195" height="53" rx="16" transform="translate(-0.094 0.166)"/><rect class="b" width="47" height="45" rx="12" transform="translate(4.906 4.166)"/><text class="c" transform="translate(60.447 21.239)"><tspan x="0" y="0">Marketing support</tspan><tspan x="0" y="16">&amp; assets</tspan></text><g transform="translate(15.213 11.612)"><g transform="translate(10.632 0.234)"><path class="d" d="M230.5,16.015,219.091,4.6a1.715,1.715,0,1,0-2.426,2.425L228.079,18.44a1.714,1.714,0,1,0,2.425-2.425Z" transform="translate(-216.163 -4.1)"/></g><g transform="translate(6.136 4.738)"><g transform="translate(0)"><path class="d" d="M141.644,82.9l-.086.431a18.429,18.429,0,0,1-4.065,8.233l6.209,6.209a18.368,18.368,0,0,1,8.193-4.1l.431-.086Z" transform="translate(-137.494 -82.905)"/></g></g><g transform="translate(0 14.688)"><g transform="translate(0)"><path class="d" d="M35.133,256.989l-4.244,4.243a2.572,2.572,0,0,0,0,3.638l2.425,2.425a2.572,2.572,0,0,0,3.638,0l4.243-4.243Zm.606,6.668a.857.857,0,1,1-1.212-1.212l1.212-1.212a.857.857,0,0,1,1.212,1.212Z" transform="translate(-30.136 -256.989)"/></g></g><g transform="translate(9.24 19.779)"><path class="d" d="M197.211,351.745l1.166-1.166a2.57,2.57,0,0,0,0-3.637l-.866-.867a16.227,16.227,0,0,0-1.381,1.044l1.034,1.036a.855.855,0,0,1,0,1.211l-1.185,1.185-1.742-1.688-2.425,2.425,3.89,3.769a1.715,1.715,0,0,0,2.424-2.426Z" transform="translate(-191.813 -346.075)"/></g><g transform="translate(17.245)"><path class="d" d="M332.721,0a.857.857,0,0,0-.857.857V2.572a.857.857,0,1,0,1.715,0V.857A.857.857,0,0,0,332.721,0Z" transform="translate(-331.864 0)"/></g><g transform="translate(22.388 6.858)"><g transform="translate(0)"><path class="d" d="M424.436,120h-1.715a.857.857,0,0,0,0,1.715h1.715a.857.857,0,0,0,0-1.715Z" transform="translate(-421.864 -120)"/></g></g><g transform="translate(20.674 1.715)"><g transform="translate(0)"><path class="d" d="M395.042,30.251a.857.857,0,0,0-1.212,0l-1.715,1.715a.857.857,0,0,0,1.212,1.212l1.715-1.715A.857.857,0,0,0,395.042,30.251Z" transform="translate(-391.864 -30)"/></g></g></g></g></svg>