<svg xmlns="http://www.w3.org/2000/svg" xmlns:xlink="http://www.w3.org/1999/xlink" width="81.486" height="81.496" viewBox="0 0 81.486 81.496"><defs><style>.a{fill:url(#a);}</style><linearGradient id="a" x1="0.5" x2="0.5" y2="1" gradientUnits="objectBoundingBox"><stop offset="0" stop-color="#97b350"/><stop offset="0.877" stop-color="#97b350"/><stop offset="1" stop-color="#638314"/></linearGradient></defs><path class="a" d="M-1413.679,1864.8a40.746,40.746,0,0,0-40.734,40.793,40.8,40.8,0,0,0,40.673,40.7,40.76,40.76,0,0,0,40.813-40.717A40.759,40.759,0,0,0-1413.679,1864.8Zm-14.824,33.762a6.517,6.517,0,0,1-2.828-2.471,6.37,6.37,0,0,1-.908-3.6h6.43a1.419,1.419,0,0,0,.327.893,1.281,1.281,0,0,0,1.072.417,1.233,1.233,0,0,0,1.1-.536,2.6,2.6,0,0,0,.357-1.458,1.9,1.9,0,0,0-.4-1.31,1.465,1.465,0,0,0-1.146-.447,1.371,1.371,0,0,0-.953.3.9.9,0,0,0-.327.684h-6.43V1877.7h14.587v5.8h-8.633v2.5a4.093,4.093,0,0,1,1.473-.8,6.53,6.53,0,0,1,2.04-.3,5.944,5.944,0,0,1,3.423.953,5.769,5.769,0,0,1,2.084,2.546,8.846,8.846,0,0,1,.684,3.527,7.442,7.442,0,0,1-2.009,5.552,7.527,7.527,0,0,1-5.522,1.979A10.129,10.129,0,0,1-1428.5,1898.566Zm26.018,15.149a.686.686,0,0,1-.2.507.688.688,0,0,1-.508.2h-3.708a8.248,8.248,0,0,1-2.847,5.165,11.2,11.2,0,0,1-6.092,2.428q3.686,3.928,10.131,11.831a.6.6,0,0,1,.088.751.64.64,0,0,1-.64.4h-4.3a.651.651,0,0,1-.552-.265q-6.755-8.1-10.993-12.6a.66.66,0,0,1-.2-.485v-2.8a.679.679,0,0,1,.209-.5.679.679,0,0,1,.5-.21h2.473a9.961,9.961,0,0,0,4.691-.949,4.315,4.315,0,0,0,2.263-2.759h-9.426a.687.687,0,0,1-.508-.2.686.686,0,0,1-.2-.507v-2.252a.69.69,0,0,1,.2-.508.688.688,0,0,1,.508-.2h9.116q-1.258-2.494-5.915-2.494h-3.2a.68.68,0,0,1-.5-.21.68.68,0,0,1-.209-.5v-2.936a.69.69,0,0,1,.2-.508.688.688,0,0,1,.508-.2h18.365a.688.688,0,0,1,.508.2.689.689,0,0,1,.2.508v2.252a.689.689,0,0,1-.2.508.688.688,0,0,1-.508.2h-5.143a7.643,7.643,0,0,1,1.413,3.179h3.774a.688.688,0,0,1,.508.2.688.688,0,0,1,.2.508Zm2.04-14.256-3.87-5.478-3.215,5.478h-7.532l6.936-10.866-7.234-10.21h7.83l3.721,5.269,3.1-5.269h7.532l-6.817,10.657,7.383,10.419Z" transform="translate(1454.413 -1864.804)"/></svg>