<svg xmlns="http://www.w3.org/2000/svg" width="209" height="52" viewBox="0 0 209 52"><defs><style>.a,.e{fill:#fff;}.a{opacity:0.832;}.b{fill:#ffcf3b;}.c{font-size:13px;font-family:Poppins-Bold, Poppins;font-weight:700;}.d{fill:#939393;font-size:10px;font-family:Poppins-Medium, Poppins;font-weight:500;}</style></defs><g transform="translate(0.259 0.452)"><rect class="a" width="209" height="52" rx="16" transform="translate(-0.259 -0.452)"/><rect class="b" width="46" height="44" rx="12" transform="translate(3.741 3.548)"/><text class="c" transform="translate(59.74 20.549)"><tspan x="0" y="0">Project Name</tspan></text><text class="d" transform="translate(59.74 38.549)"><tspan x="0" y="0">New Launch</tspan></text><path class="e" d="M25.164,25.622V22.764a1.866,1.866,0,0,0,.915-1.718c0-1.011-.614-1.83-1.373-1.83s-1.373.819-1.373,1.83a1.866,1.866,0,0,0,.915,1.718v2.857h-3.2v-13.9L18.3,10.349v2.462h1.373v.915H18.3v1.83h1.373v.915H18.3V18.3h1.373v.915H18.3v1.83h1.373v.915H18.3v1.83h1.373v.915H18.3v.915h-.915V7.208L11.9,5.64V7.321h3.2v.915H11.9v1.83h3.2v.915H11.9v1.83h3.2v.915H11.9v1.83h3.2v.915H11.9V18.3h3.2v.915H11.9v1.83h3.2v.915H11.9v1.83h3.2v.915H11.9v.915h-.915V0H2.745V1.83H6.863v.915H2.745v1.83H6.863V5.49H2.745v1.83H6.863v.915H2.745v1.83H6.863v.915H2.745v1.83H6.863v.915H2.745v1.83H6.863v.915H2.745V18.3H6.863v.915H2.745v1.83H6.863v.915H2.745v1.83H6.863v.915H2.745v.915H0v.915H27.452v-.915Zm0,0" transform="translate(12.777 12.361)"/></g></svg>