<svg xmlns="http://www.w3.org/2000/svg" width="62.065" height="58.186" viewBox="0 0 62.065 58.186"><defs><style>.a{fill:#172341;}</style></defs><g transform="translate(14.668 26.522)"><path class="a" d="M121,242.062v24.391h7.273V234.789Z" transform="translate(-121 -234.789)"/></g><g transform="translate(25.577 26.522)"><path class="a" d="M211,234.789v31.664h7.273V242.062Z" transform="translate(-211 -234.789)"/></g><g transform="translate(36.487 26.522)"><path class="a" d="M301,242.062v24.391h7.273V234.789Z" transform="translate(-301 -234.789)"/></g><g transform="translate(47.397 14.544)"><path class="a" d="M398.927,136.516,391,144.322v35.3h9.213a1.817,1.817,0,0,0,1.818-1.818v-40A1.82,1.82,0,0,0,398.927,136.516Z" transform="translate(-391 -135.981)"/></g><g transform="translate(0 37.431)"><path class="a" d="M.533,335.166A1.817,1.817,0,0,0,0,336.452v7.273a1.817,1.817,0,0,0,1.818,1.818h9.213V324.789Z" transform="translate(0 -324.789)"/></g><g transform="translate(0 0)"><path class="a" d="M60.246,16H52.973a1.818,1.818,0,0,0,0,3.637H56.48L34.669,41.327,25.044,31.7a1.818,1.818,0,0,0-2.571,0L.532,53.522A1.818,1.818,0,0,0,3.1,56.093L23.759,35.559l9.624,9.624a1.818,1.818,0,0,0,2.571,0L58.428,22.831v2.26a1.818,1.818,0,1,0,3.637,0V17.818A1.817,1.817,0,0,0,60.246,16Z" transform="translate(0 -16)"/></g></svg>