<svg xmlns="http://www.w3.org/2000/svg" width="58.184" height="58.186" viewBox="0 0 58.184 58.186"><defs><style>.a{fill:#172341;}</style></defs><path class="a" d="M16.122,0A12.122,12.122,0,1,0,28.243,12.122,12.136,12.136,0,0,0,16.122,0Z" transform="translate(5.697)"/><path class="a" d="M17.411,35.348a1.819,1.819,0,0,1-1.365-2.179L19.683,17.41a1.819,1.819,0,0,1,3.544.817L19.59,33.986A1.813,1.813,0,0,1,17.411,35.348Z" transform="translate(22.79 22.788)"/><path class="a" d="M21.819,31.546A1.818,1.818,0,0,1,20.6,28.375l4.56-4.1-4.56-4.1a1.82,1.82,0,1,1,2.434-2.706L29.1,22.92a1.822,1.822,0,0,1,0,2.706l-6.061,5.455a1.815,1.815,0,0,1-1.217.465Z" transform="translate(28.486 24.214)"/><path class="a" d="M18.879,31.546a1.815,1.815,0,0,1-1.217-.465L11.6,25.625a1.822,1.822,0,0,1,0-2.706l6.061-5.455A1.82,1.82,0,1,1,20.1,20.171l-4.56,4.1,4.56,4.1a1.818,1.818,0,0,1-1.217,3.171Z" transform="translate(15.668 24.214)"/><path class="a" d="M22.425,31.395a6.682,6.682,0,0,1,2.2-4.948l6.068-5.462a6.644,6.644,0,0,1,8.25-.514,6.622,6.622,0,0,1,3.974-3.326A11.509,11.509,0,0,0,33.335,12H11.516A11.529,11.529,0,0,0,0,23.516v9.7a1.819,1.819,0,0,0,1.818,1.818H23.536A6.66,6.66,0,0,1,22.425,31.395Z" transform="translate(0 17.092)"/></svg>