<svg xmlns="http://www.w3.org/2000/svg" width="58.186" height="58.186" viewBox="0 0 58.186 58.186"><defs><style>.a{fill:#172341;}.b{fill:#fff;}</style></defs><path class="a" d="M121,151.684h30.684V121H121Z" transform="translate(-107.249 -107.249)"/><path class="a" d="M416.495,0V3.409H420.9l-5.114,5.114,2.41,2.41,5.114-5.114v4.408h3.409V0Z" transform="translate(-368.537)"/><path class="a" d="M10.228,3.409V0H0V10.228H3.409V5.82l5.114,5.114,2.41-2.41L5.82,3.409Z"/><path class="a" d="M423.313,420.9l-5.114-5.114-2.41,2.41,5.114,5.114h-4.408v3.409h10.228V416.495h-3.409Z" transform="translate(-368.537 -368.537)"/><path class="a" d="M8.523,415.789,3.409,420.9v-4.408H0v10.228H10.228v-3.409H5.82l5.114-5.114Z" transform="translate(0 -368.537)"/><path class="b" d="M121,130.375h9.375V121H121Z" transform="translate(-96.595 -96.595)"/></svg>