<svg xmlns="http://www.w3.org/2000/svg" width="49.727" height="58.186" viewBox="0 0 49.727 58.186"><defs><style>.a{fill:#172341;}</style></defs><path class="a" d="M143.921,10.228h17.047a1.7,1.7,0,0,0,1.7-1.7V1.7a1.7,1.7,0,0,0-1.7-1.7H143.921a1.7,1.7,0,0,0-1.7,1.7V8.523A1.7,1.7,0,0,0,143.921,10.228Z" transform="translate(-130.284)"/><path class="a" d="M187.216,189.327v8.038h3.409v-1.7a1.7,1.7,0,1,1,3.409,0v1.7h3.409v-8.038l-5.114-2.557Z" transform="translate(-170.17 -165.545)"/><path class="a" d="M76.165,89.548H70.539a1.7,1.7,0,0,1-1.7-1.7V82.219a1.7,1.7,0,0,1,.5-1.205l12.2-12.2V46.7a1.7,1.7,0,0,0-1.7-1.7H73.015v3.409A5.12,5.12,0,0,1,67.9,53.523H50.854a5.12,5.12,0,0,1-5.114-5.114V45H38.922a1.7,1.7,0,0,0-1.7,1.7V96.367a1.7,1.7,0,0,0,1.7,1.7H79.833a1.7,1.7,0,0,0,1.7-1.7V84.881L77.37,89.049A1.7,1.7,0,0,1,76.165,89.548Zm-12.241,0H54.832a1.7,1.7,0,1,1,0-3.409h9.091a1.7,1.7,0,1,1,0,3.409Zm0-6.819H54.832a1.7,1.7,0,0,1,0-3.409h9.091a1.7,1.7,0,0,1,0,3.409ZM67.9,65.358v8.053a1.7,1.7,0,0,1-1.7,1.7H52.559a1.7,1.7,0,0,1-1.7-1.7V65.357a1.7,1.7,0,0,1-1.331-3.131l9.091-4.546a1.7,1.7,0,0,1,1.525,0l9.091,4.546A1.7,1.7,0,0,1,67.9,65.358Z" transform="translate(-37.217 -39.886)"/><path class="a" d="M345.434,292.35h3.214l11.485-11.486-3.214-3.214-11.486,11.486Z" transform="translate(-310.407 -246.097)"/></svg>