<svg xmlns="http://www.w3.org/2000/svg" width="50.912" height="50.913" viewBox="0 0 50.912 50.913"><defs><style>.a{fill:#172341;}</style></defs><path class="a" d="M131.819,120a11.819,11.819,0,1,0,11.819,11.819A11.819,11.819,0,0,0,131.819,120Zm0,22.729a10.91,10.91,0,1,1,10.91-10.91A10.91,10.91,0,0,1,131.819,142.729Zm0,0" transform="translate(-106.363 -106.363)"/><path class="a" d="M162.183,153.091A9.091,9.091,0,1,1,153.091,144,9.091,9.091,0,0,1,162.183,153.091Zm0,0" transform="translate(-127.635 -127.635)"/><path class="a" d="M5.455,250.727A2.727,2.727,0,1,1,2.727,248,2.728,2.728,0,0,1,5.455,250.727Zm0,0" transform="translate(0 -219.816)"/><path class="a" d="M21.455,114.727A2.727,2.727,0,1,1,18.727,112,2.728,2.728,0,0,1,21.455,114.727Zm0,0" transform="translate(-14.182 -99.272)"/><path class="a" d="M5.455,2.727A2.727,2.727,0,1,1,2.727,0,2.728,2.728,0,0,1,5.455,2.727Zm0,0" transform="translate(0 0)"/><path class="a" d="M5.455,402.727A2.727,2.727,0,1,1,2.727,400,2.728,2.728,0,0,1,5.455,402.727Zm0,0" transform="translate(0 -354.543)"/><path class="a" d="M405.455,250.727A2.727,2.727,0,1,1,402.727,248,2.728,2.728,0,0,1,405.455,250.727Zm0,0" transform="translate(-354.543 -219.816)"/><path class="a" d="M389.455,114.727A2.727,2.727,0,1,1,386.727,112,2.728,2.728,0,0,1,389.455,114.727Zm0,0" transform="translate(-340.361 -99.272)"/><path class="a" d="M245.455,2.727A2.727,2.727,0,1,1,242.727,0,2.728,2.728,0,0,1,245.455,2.727Zm0,0" transform="translate(-212.726 0)"/><path class="a" d="M181.455,402.727A2.727,2.727,0,1,1,178.727,400,2.728,2.728,0,0,1,181.455,402.727Zm0,0" transform="translate(-155.999 -354.543)"/><path class="a" d="M405.455,2.727A2.727,2.727,0,1,1,402.727,0,2.728,2.728,0,0,1,405.455,2.727Zm0,0" transform="translate(-354.543 0)"/><path class="a" d="M405.455,402.727A2.727,2.727,0,1,1,402.727,400,2.728,2.728,0,0,1,405.455,402.727Zm0,0" transform="translate(-354.543 -354.543)"/><path class="a" d="M62.364,24.182a.909.909,0,0,0,.909.909h6.364v2.054a12.4,12.4,0,0,1,1.818-.654V24.182a.909.909,0,0,0-.909-.909H64.182V16.909A.909.909,0,0,0,63.273,16H56v1.818h6.364Zm0,0" transform="translate(-49.636 -14.182)"/><path class="a" d="M201.818,17.818h1.818V16h-2.727a.909.909,0,0,0-.909.909v9.364a13.326,13.326,0,0,1,1.818-.236Zm0,0" transform="translate(-177.271 -14.182)"/><path class="a" d="M272,25.091v2.054a11.968,11.968,0,0,1,1.818.964V26h5.455a.909.909,0,0,0,.909-.909V17.818h5.455V16h-6.364a.909.909,0,0,0-.909.909v7.273h-5.455a.909.909,0,0,0-.909.909Zm0,0" transform="translate(-241.089 -14.182)"/><path class="a" d="M305.091,128H296a14.386,14.386,0,0,1,1.973,1.818h7.119Zm0,0" transform="translate(-262.361 -113.454)"/><path class="a" d="M346.444,216.909a.909.909,0,0,0-.909-.909H343.68c.028.3.036.6.036.909s-.009.609-.036.909h.946v4.546a.909.909,0,0,0,.909.909h3.637v-1.818h-2.727Zm0,0" transform="translate(-304.623 -191.453)"/><path class="a" d="M300.546,304.909a.909.909,0,0,0-.909-.909H296v1.818h2.727v11.819a.909.909,0,0,0,.909.909h7.273v-1.818h-6.364Zm0,0" transform="translate(-262.361 -269.452)"/><path class="a" d="M195.637,343.915h-2.727a.909.909,0,0,0-.909.909v3.637h1.818v-2.727h2.727a.909.909,0,0,0,.909-.909v-1.946a13.253,13.253,0,0,1-1.818.127Zm0,0" transform="translate(-170.18 -303.913)"/><path class="a" d="M64.937,304H62.364a.909.909,0,0,0-.909.909v11.819H56v1.818h6.364a.909.909,0,0,0,.909-.909V305.818H66.91A14.384,14.384,0,0,1,64.937,304Zm0,0" transform="translate(-49.636 -269.452)"/><path class="a" d="M59.637,216a.909.909,0,0,0-.909.909v4.546H56v1.818h3.637a.909.909,0,0,0,.909-.909v-4.546h.946c-.028-.3-.036-.6-.036-.909s.009-.609.036-.909Zm0,0" transform="translate(-49.636 -191.453)"/><path class="a" d="M40.964,169.818H33.818V168H32v2.727a.909.909,0,0,0,.909.909h7.546a13.441,13.441,0,0,1,.509-1.818Zm0,0" transform="translate(-28.363 -148.908)"/></svg>