<svg xmlns="http://www.w3.org/2000/svg" width="190.713" height="51.113" viewBox="0 0 190.713 51.113"><defs><style>.a{fill:#fff;}.b{fill:#97b351;}</style></defs><g transform="translate(-478.753 -1248.086)"><path class="a" d="M586.129,1436.157l-3.877-5.9v5.9H580.98v-8.389h1.167l3.877,5.891v-5.891H587.3v8.389Z" transform="translate(-79.335 -139.445)"/><path class="a" d="M620.276,1441.643a1.807,1.807,0,0,0,.389,1.225,1.417,1.417,0,0,0,1.131.448,1.933,1.933,0,0,0,.819-.147,2.306,2.306,0,0,0,.63-.466l.766.719a4.236,4.236,0,0,1-.465.406,2.583,2.583,0,0,1-.495.289,2.614,2.614,0,0,1-.577.177,3.81,3.81,0,0,1-.7.059,3.389,3.389,0,0,1-1.055-.159,2.125,2.125,0,0,1-.852-.518,2.523,2.523,0,0,1-.577-.948,4.229,4.229,0,0,1-.214-1.438,3.321,3.321,0,0,1,.7-2.256,2.335,2.335,0,0,1,1.85-.8,2.585,2.585,0,0,1,1.072.212,2.252,2.252,0,0,1,.795.589,2.6,2.6,0,0,1,.495.907,3.784,3.784,0,0,1,.171,1.166v.53Zm2.645-1.278a1.481,1.481,0,0,0-.124-.371,1.2,1.2,0,0,0-.448-.548,1.278,1.278,0,0,0-.73-.206,1.307,1.307,0,0,0-.737.206,1.191,1.191,0,0,0-.453.548,1.29,1.29,0,0,0-.118.371c-.016.114-.028.261-.036.442h2.687A3.646,3.646,0,0,0,622.921,1440.365Z" transform="translate(-108.898 -147.57)"/><path class="a" d="M653.4,1444.528h-1.025l-1.4-4.171-1.39,4.171h-1.037l-1.85-5.974h1.273l1.155,4.206,1.39-4.206h.931l1.379,4.206,1.155-4.206h1.284Z" transform="translate(-130.336 -147.816)"/><path class="a" d="M691,1449.25v-1.12h3.441v1.12Z" transform="translate(-164.719 -155.247)"/><path class="a" d="M717.923,1444.283v-.542a2.063,2.063,0,0,1-.683.471,2.471,2.471,0,0,1-.907.141,2.87,2.87,0,0,1-.949-.136,1.721,1.721,0,0,1-.654-.406,1.786,1.786,0,0,1-.471-1.285,1.625,1.625,0,0,1,.513-1.237,2.187,2.187,0,0,1,1.549-.483H717.9v-.424a1.091,1.091,0,0,0-.3-.842,1.472,1.472,0,0,0-1.008-.277,1.9,1.9,0,0,0-.778.13,1.459,1.459,0,0,0-.53.448l-.789-.742a2.262,2.262,0,0,1,.913-.678,3.553,3.553,0,0,1,1.231-.183q2.463,0,2.463,2.05v3.994Zm-.023-2.639h-1.4a1.234,1.234,0,0,0-.8.224.779.779,0,0,0-.271.636.769.769,0,0,0,.265.63,1.3,1.3,0,0,0,.831.218,3.209,3.209,0,0,0,.613-.053.982.982,0,0,0,.506-.289,1.224,1.224,0,0,0,.26-.884Z" transform="translate(-182.768 -147.57)"/><path class="a" d="M749.652,1445.261a2.256,2.256,0,0,1-1.308,1.32,2.867,2.867,0,0,1-1.072.189,3.358,3.358,0,0,1-1.16-.177,2.909,2.909,0,0,1-.949-.613l.766-.766a2.092,2.092,0,0,0,.566.4,1.761,1.761,0,0,0,.73.13,1.52,1.52,0,0,0,.642-.123,1.206,1.206,0,0,0,.436-.335,1.339,1.339,0,0,0,.247-.481,2.1,2.1,0,0,0,.077-.576v-.763a1.8,1.8,0,0,1-.707.53,2.3,2.3,0,0,1-.836.146,2.236,2.236,0,0,1-.813-.141,1.749,1.749,0,0,1-.613-.389,1.977,1.977,0,0,1-.554-1.049,8.114,8.114,0,0,1,0-2.757,1.98,1.98,0,0,1,.554-1.049,1.944,1.944,0,0,1,1.438-.518,2.3,2.3,0,0,1,.854.147,1.83,1.83,0,0,1,.713.56v-.636h1.166v5.939A2.8,2.8,0,0,1,749.652,1445.261Zm-1.061-4.762a1.794,1.794,0,0,0-.165-.6,1.055,1.055,0,0,0-.371-.426,1.148,1.148,0,0,0-.642-.16,1.173,1.173,0,0,0-.654.16,1.012,1.012,0,0,0-.365.426,1.992,1.992,0,0,0-.165.6,5.816,5.816,0,0,0,0,1.383,1.991,1.991,0,0,0,.165.6,1.013,1.013,0,0,0,.365.426,1.174,1.174,0,0,0,.654.16,1.149,1.149,0,0,0,.642-.16,1.056,1.056,0,0,0,.371-.426,1.794,1.794,0,0,0,.165-.6,6.772,6.772,0,0,0,0-1.383Z" transform="translate(-206.614 -147.57)"/><path class="a" d="M777.075,1441.643a1.806,1.806,0,0,0,.389,1.225,1.416,1.416,0,0,0,1.131.448,1.933,1.933,0,0,0,.819-.147,2.3,2.3,0,0,0,.63-.466l.766.719a4.247,4.247,0,0,1-.465.406,2.58,2.58,0,0,1-.495.289,2.616,2.616,0,0,1-.577.177,3.809,3.809,0,0,1-.7.059,3.389,3.389,0,0,1-1.055-.159,2.125,2.125,0,0,1-.852-.518,2.524,2.524,0,0,1-.577-.948,4.224,4.224,0,0,1-.214-1.438,3.32,3.32,0,0,1,.7-2.256,2.335,2.335,0,0,1,1.85-.8,2.584,2.584,0,0,1,1.072.212,2.251,2.251,0,0,1,.8.589,2.6,2.6,0,0,1,.495.907,3.782,3.782,0,0,1,.171,1.166v.53Zm2.645-1.278a1.478,1.478,0,0,0-.124-.371,1.2,1.2,0,0,0-.448-.548,1.278,1.278,0,0,0-.73-.206,1.306,1.306,0,0,0-.737.206,1.191,1.191,0,0,0-.453.548,1.3,1.3,0,0,0-.118.371q-.024.171-.035.442h2.687A3.658,3.658,0,0,0,779.72,1440.365Z" transform="translate(-230.584 -147.57)"/><path class="b" d="M826.529,1435.677a2.137,2.137,0,0,1-1.5.554,1.866,1.866,0,0,1-1.531-.648v.577h-1.484v-8.389h1.531v2.792a1.815,1.815,0,0,1,1.484-.613,2.137,2.137,0,0,1,1.5.554,5.668,5.668,0,0,1,0,5.172Zm-1.944-4.347c-.919,0-1.037.754-1.037,1.755s.118,1.767,1.037,1.767,1.037-.766,1.037-1.767S825.5,1431.329,824.585,1431.329Z" transform="translate(-266.395 -139.447)"/><path class="b" d="M856.921,1439.248a1.024,1.024,0,0,0-1.8.766v3.7h-1.532v-6.138h1.5v.589a2.077,2.077,0,0,1,1.543-.66,1.851,1.851,0,0,1,1.449.578Z" transform="translate(-290.895 -147.001)"/><path class="b" d="M881.344,1443.03a2.544,2.544,0,0,1-1.909.754,2.516,2.516,0,0,1-1.9-.754,4.443,4.443,0,0,1,0-4.771,2.516,2.516,0,0,1,1.9-.754,2.544,2.544,0,0,1,1.909.754,4.44,4.44,0,0,1,0,4.771Zm-1.19-3.876a.969.969,0,0,0-.719-.271.94.94,0,0,0-.707.271,2.072,2.072,0,0,0-.354,1.484,2.1,2.1,0,0,0,.354,1.5.94.94,0,0,0,.707.271.969.969,0,0,0,.719-.271,2.106,2.106,0,0,0,.353-1.5A2.073,2.073,0,0,0,880.155,1439.154Z" transform="translate(-308.944 -147.001)"/><path class="b" d="M912.365,1436.16l-1.508-2.557-.648.731v1.826h-1.532v-8.389h1.532v4.76l2.038-2.51h1.85l-2.191,2.474,2.356,3.664Z" transform="translate(-333.649 -139.447)"/><path class="b" d="M939.966,1441.121a1.268,1.268,0,0,0,1.343,1.367,1.7,1.7,0,0,0,1.39-.577l.931.907a2.923,2.923,0,0,1-2.333.966c-1.449,0-2.84-.66-2.84-3.146,0-2,1.084-3.134,2.674-3.134a2.64,2.64,0,0,1,2.674,2.934v.683Zm2.192-1.708a1.144,1.144,0,0,0-2.05,0,1.7,1.7,0,0,0-.142.66H942.3A1.691,1.691,0,0,0,942.158,1439.413Z" transform="translate(-356.761 -147.001)"/><path class="b" d="M974.1,1439.248a1.024,1.024,0,0,0-1.8.766v3.7h-1.531v-6.138h1.5v.589a2.078,2.078,0,0,1,1.544-.66,1.851,1.851,0,0,1,1.449.578Z" transform="translate(-381.833 -147.001)"/><path class="b" d="M1015.633,1443.23a2.137,2.137,0,0,1-1.5.554,1.815,1.815,0,0,1-1.484-.613v2.792h-1.532v-8.389h1.484v.577a1.867,1.867,0,0,1,1.532-.648,2.137,2.137,0,0,1,1.5.554,5.666,5.666,0,0,1,0,5.172Zm-1.944-4.347c-.919,0-1.037.754-1.037,1.755s.118,1.767,1.037,1.767,1.037-.766,1.037-1.767S1014.608,1438.883,1013.69,1438.883Z" transform="translate(-413.152 -147.001)"/><path class="b" d="M1044.22,1436.16a1.668,1.668,0,0,1-1.791-1.755v-6.633h1.531v6.539c0,.365.153.554.542.554h.589v1.3Z" transform="translate(-437.449 -139.447)"/><path class="b" d="M1063.532,1443.713v-.53a1.865,1.865,0,0,1-1.508.589,2.094,2.094,0,0,1-1.567-.542,1.967,1.967,0,0,1-.507-1.378c0-.978.671-1.779,2.1-1.779h1.449v-.306c0-.672-.33-.966-1.143-.966a1.318,1.318,0,0,0-1.178.506l-.978-.954a2.58,2.58,0,0,1,2.215-.849c1.72,0,2.616.73,2.616,2.168v4.041Zm-.035-2.592h-1.214c-.554,0-.86.259-.86.7s.283.707.884.707a1.214,1.214,0,0,0,.966-.294,1.009,1.009,0,0,0,.224-.778Z" transform="translate(-451.046 -147.001)"/><path class="b" d="M1092.263,1438.283a1.665,1.665,0,0,1-1.779-1.755v-3.04h-.648v-1.167h.648v-1.814h1.532v1.814h1.084v1.167h-1.084v2.945c0,.354.165.554.53.554h.554v1.3Z" transform="translate(-474.24 -141.571)"/><path class="b" d="M1112.894,1431.038v4.8h-1.532v-4.8h-.636v-1.167h.636v-.766a1.675,1.675,0,0,1,1.791-1.756h.872v1.3h-.6c-.365,0-.53.2-.53.554v.672h1.131v1.167Z" transform="translate(-490.452 -139.121)"/><path class="b" d="M1135.326,1443.03a2.545,2.545,0,0,1-1.909.754,2.515,2.515,0,0,1-1.9-.754,4.442,4.442,0,0,1,0-4.771,2.516,2.516,0,0,1,1.9-.754,2.546,2.546,0,0,1,1.909.754,4.443,4.443,0,0,1,0,4.771Zm-1.19-3.876a.967.967,0,0,0-.719-.271.94.94,0,0,0-.707.271,2.071,2.071,0,0,0-.354,1.484,2.1,2.1,0,0,0,.354,1.5.94.94,0,0,0,.707.271.967.967,0,0,0,.719-.271,2.1,2.1,0,0,0,.354-1.5A2.071,2.071,0,0,0,1134.135,1439.154Z" transform="translate(-506.05 -147.001)"/><path class="b" d="M1165.992,1439.248a1.024,1.024,0,0,0-1.8.766v3.7h-1.532v-6.138h1.5v.589a2.077,2.077,0,0,1,1.543-.66,1.85,1.85,0,0,1,1.449.578Z" transform="translate(-530.754 -147.001)"/><path class="b" d="M1195.843,1443.713V1440a1.022,1.022,0,1,0-2.038-.035v3.747h-1.531V1440a1.024,1.024,0,1,0-2.038,0v3.711H1188.7v-6.138h1.5v.565a2.148,2.148,0,0,1,1.532-.636,1.9,1.9,0,0,1,1.626.778,2.34,2.34,0,0,1,1.838-.778,2.142,2.142,0,0,1,1.508.542,2.314,2.314,0,0,1,.672,1.744v3.923Z" transform="translate(-550.967 -147.001)"/><path class="a" d="M943,1261.64h5.537v8.114a5.987,5.987,0,0,1,2.686-2.285,8.261,8.261,0,0,1,8.565.8,5.668,5.668,0,0,1,2.266,4.447c.071,1.136.047,2.279.048,3.419q.007,5.793,0,11.585v.559h-5.621v-.536c0-4.12.015-8.241-.013-12.361a10.537,10.537,0,0,0-.291-2.384,2.345,2.345,0,0,0-1.9-1.765,4.377,4.377,0,0,0-5.656,3.984,13.449,13.449,0,0,0-.079,1.455q-.01,5.519,0,11.039v.563H943Z" transform="translate(-360.287 -10.519)"/><g transform="translate(605.172 1251.121)"><path class="a" d="M1043.284,1283.941h5.345v2.469a1.977,1.977,0,0,0,.229-.211,6.572,6.572,0,0,1,6.58-2.776c4,.421,6.4,2.814,7.544,6.512a15.329,15.329,0,0,1-.183,9.94,7.816,7.816,0,0,1-6.137,5.51,7.364,7.364,0,0,1-7.606-2.729c-.072-.09-.154-.172-.3-.33v9.012h-5.477Zm14.831,10.565a9.629,9.629,0,0,0-1.075-4.27,4.234,4.234,0,0,0-4.768-2.2,4.561,4.561,0,0,0-3.252,3.174,10.03,10.03,0,0,0,.255,7.04,3.736,3.736,0,0,0,3.26,2.5c2.39.259,4.327-.626,5.04-3.16A29.682,29.682,0,0,0,1058.115,1294.505Z" transform="translate(-1043.284 -1278.501)"/><path class="a" d="M1259.576,1288.116h-5.338v-2.462a1.56,1.56,0,0,0-.226.191,6.607,6.607,0,0,1-6.71,2.776c-3.957-.461-6.312-2.862-7.433-6.525a15.37,15.37,0,0,1,.185-9.9,7.82,7.82,0,0,1,6.081-5.513,7.374,7.374,0,0,1,7.741,2.811c.046.058.1.111.216.24v-8.1h5.484Zm-5.19-10.225c-.118-.917-.183-1.844-.365-2.748-.464-2.3-1.692-3.591-3.746-3.832a4.244,4.244,0,0,0-5.021,3.2,11.664,11.664,0,0,0-.364,4.151,7.333,7.333,0,0,0,.93,3.161,4.237,4.237,0,0,0,7.516.09A8.049,8.049,0,0,0,1254.386,1277.89Z" transform="translate(-1195.282 -1261.64)"/><path class="a" d="M1144.492,1290.631c-.033-3.074,1.354-5.667,4.435-6.669a14.855,14.855,0,0,1,9.419-.017,5.977,5.977,0,0,1,4.132,5,15.705,15.705,0,0,1,.24,2.718c.024,4.256.011,8.511.01,12.767,0,.12-.011.239-.019.391-.131.011-.246.03-.361.03-1.477,0-2.954-.007-4.431.008-.3,0-.445-.079-.49-.38-.071-.464-.17-.924-.266-1.436-.2.173-.384.34-.576.5a8.618,8.618,0,0,1-5.059,1.842,10.2,10.2,0,0,1-4.14-.5,5,5,0,0,1-3.586-4.777,10.958,10.958,0,0,1,.281-2.976,5.2,5.2,0,0,1,3.983-3.93c1.782-.488,3.626-.746,5.441-1.117.743-.152,1.493-.292,2.216-.513a1.692,1.692,0,0,0,1.286-1.591,1.779,1.779,0,0,0-1.029-1.915,5.393,5.393,0,0,0-4.676-.091,2.805,2.805,0,0,0-1.564,2.222c-.067.373-.214.45-.563.446C1147.626,1290.621,1146.076,1290.631,1144.492,1290.631Zm12.637,3.964a8.131,8.131,0,0,1-3,1.066,21.991,21.991,0,0,0-3.144.9,2.55,2.55,0,0,0-1.584,3.116,1.876,1.876,0,0,0,1.578,1.617,5.085,5.085,0,0,0,5.127-1.735C1157.349,1298.113,1157.09,1296.366,1157.13,1294.6Z" transform="translate(-1121.282 -1278.362)"/></g><path class="a" d="M750.431,1284.641h5.287v2.993c.135-.188.2-.265.247-.348a6.44,6.44,0,0,1,4.251-2.976,8.989,8.989,0,0,1,5.216.253,6.038,6.038,0,0,1,4.043,5.8c.115,2.519.052,5.045.059,7.569.006,2.387,0,4.773,0,7.16v.566h-5.622v-.517c0-4.013.008-8.027-.008-12.04a11.829,11.829,0,0,0-.175-2.083,2.271,2.271,0,0,0-2.2-2.129,8.782,8.782,0,0,0-2.626.061,3.6,3.6,0,0,0-2.85,3.52c-.051.529-.077,1.062-.078,1.592q-.01,5.518,0,11.037v.561h-5.542Z" transform="translate(-210.84 -27.907)"/><path class="a" d="M670.328,1307.728h-5.246v-2.84c-.382.47-.666.859-.99,1.212a7.653,7.653,0,0,1-11.1-.389,7.968,7.968,0,0,1-1.632-5.069c-.021-4.561-.008-9.122-.008-13.683,0-.074.012-.147.021-.25h5.554v.512q0,6.044,0,12.087a13.045,13.045,0,0,0,.071,1.319,3.066,3.066,0,0,0,3.083,3,4.136,4.136,0,0,0,4.688-4.008c.065-.893.058-1.792.06-2.689q.009-4.835,0-9.67v-.558h5.495Z" transform="translate(-133.945 -29.969)"/><path class="a" d="M484.662,1283.11h10.051v5.148H478.753V1261.64h5.909Z" transform="translate(0 -10.519)"/><path class="a" d="M865.247,1292.22h-5.575c-.053-.216-.1-.423-.153-.626a3.739,3.739,0,0,0-3.484-2.8,3.667,3.667,0,0,0-4.1,2.568,10.5,10.5,0,0,0,.389,8.077,3.8,3.8,0,0,0,6.588.613,9.474,9.474,0,0,0,.654-1.58c.058-.131.213-.311.325-.313,1.72-.018,3.441-.011,5.161-.007a.686.686,0,0,1,.155.045,8.839,8.839,0,0,1-2.089,4.81,9.681,9.681,0,0,1-7.842,3.306,8.842,8.842,0,0,1-6.707-2.8,10.008,10.008,0,0,1-2.4-5.036,16.731,16.731,0,0,1,.288-8.071,8.342,8.342,0,0,1,7.559-6.165,12.39,12.39,0,0,1,6.055.708,7.99,7.99,0,0,1,5.125,6.666C865.234,1291.806,865.233,1292,865.247,1292.22Z" transform="translate(-284.869 -27.99)"/><g transform="translate(496.508 1248.086)"><path class="b" d="M568.6,1248.086a17.033,17.033,0,0,0-9.417,3.121v4.777a17.879,17.879,0,0,1,5.157-3,6.652,6.652,0,0,1,4.979-.064,2.132,2.132,0,0,1,1.3,1.58c.348,1.768-1.479,2-2.856,2.345-.763.191-1.647.4-2.561.653-2.266.617-4.7,1.347-6.144,3.255a5.092,5.092,0,0,0-.552,5.24c1.1,2.667,3.777,3.635,6.648,3.307,2.21-.252,4.94-1.435,5.838-3.547v3.608h4.771v-13.741a9.589,9.589,0,0,0-1.256-5.151C573.225,1248.653,570.888,1248.078,568.6,1248.086Zm2.2,11.154c0,1.9-.348,4.355-1.876,5.7a3.43,3.43,0,0,1-1.957.821,4.778,4.778,0,0,1-1.284-.028c-1.694-.275-2.895-1.983-1.881-3.488a5.1,5.1,0,0,1,2.881-1.523,15.326,15.326,0,0,0,4.116-1.564Z" transform="translate(-558.037 -1248.086)"/></g><rect class="b" width="16.579" height="5.148" transform="translate(497.658 1272.591)"/></g></svg>