<svg xmlns="http://www.w3.org/2000/svg" width="58.186" height="58.186" viewBox="0 0 58.186 58.186"><defs><style>.a{fill:#172341;}</style></defs><path class="a" d="M226.823,154.267l-3.052-4.069-1.7,11.877a5.145,5.145,0,0,1-1.447,2.893l-20.893,20.893a9.594,9.594,0,0,1-6.83,2.826,9.748,9.748,0,0,1-2.261-.266,6.25,6.25,0,0,0,5.268,2.893h25a6.257,6.257,0,0,0,6.25-6.25V155.289A1.705,1.705,0,0,0,226.823,154.267Z" transform="translate(-168.979 -133.129)"/><ellipse class="a" cx="1.705" cy="1.705" rx="1.705" ry="1.705" transform="translate(33.472 24.911)"/><ellipse class="a" cx="1.705" cy="1.705" rx="1.705" ry="1.705" transform="translate(14.186 24.911)"/><path class="a" d="M28.346,50.321,49.239,29.428a1.7,1.7,0,0,0,.482-.964l2.411-16.875a1.7,1.7,0,0,0-.482-1.446L48.034,6.526l-4.821,4.822,1.205,1.205a1.7,1.7,0,1,1-2.411,2.411l-4.822-4.822A1.7,1.7,0,1,1,39.6,7.731L40.8,8.937l4.821-4.822L42.007.5A1.706,1.706,0,0,0,40.561.017L23.685,2.428a1.7,1.7,0,0,0-.964.482L1.828,23.8a6.257,6.257,0,0,0,0,8.839L19.507,50.321a6.258,6.258,0,0,0,8.839,0Zm6.83-28.82a5.114,5.114,0,1,1-5.114,5.114A5.12,5.12,0,0,1,35.177,21.5ZM15.891,31.73A5.114,5.114,0,1,1,21,26.616,5.12,5.12,0,0,1,15.891,31.73Zm5.625,8.645A1.706,1.706,0,0,1,19.9,38.13l8.036-24.108A1.7,1.7,0,0,1,31.169,15.1L23.133,39.208A1.706,1.706,0,0,1,21.516,40.374Z" transform="translate(0 0)"/><path class="a" d="M407.484,2.91A1.7,1.7,0,0,0,405.073.5l-3.616,3.616,2.411,2.411Z" transform="translate(-355.834 0)"/></svg>