<svg id="Group_10" data-name="Group 10" xmlns="http://www.w3.org/2000/svg" xmlns:xlink="http://www.w3.org/1999/xlink" width="62" height="62.233" viewBox="0 0 62 62.233">
  <defs>
    <clipPath id="clip-path">
      <rect id="Rectangle_73" data-name="Rectangle 73" width="62" height="62.233" fill="#07b6b6"/>
    </clipPath>
  </defs>
  <g id="Group_9" data-name="Group 9" clip-path="url(#clip-path)">
    <path id="Path_1" data-name="Path 1" d="M121.651,2.3c-.164,1.174-.3,2.353-.5,3.522-1.4,8.427-4.176,16.292-9.687,22.971-1.369,1.66-3.01,3.1-4.527,4.633-.14.142-.294.27-.359.329a29.97,29.97,0,0,1,1.2,3.467,8.406,8.406,0,0,1-2.359,7.9,17.435,17.435,0,0,1-9.185,4.95,27.2,27.2,0,0,1-3.116.381,1.125,1.125,0,0,1-1.229-.693,1.221,1.221,0,0,1,.286-1.441A7.654,7.654,0,0,0,94.34,42.77a3.056,3.056,0,0,0-.047-.542c-.106-.573-.336-.685-.886-.5-1.676.575-3.349,1.161-5.037,1.7a3.272,3.272,0,0,1-2.442.024c-.038.032-.1.061-.124.109a10.5,10.5,0,0,1-7.369,5.771c-1.813.461-3.664.781-5.51,1.093-1.193.2-1.831-.353-1.718-1.468a27.318,27.318,0,0,1,1.947-8.082,9.876,9.876,0,0,1,4.567-4.836l.515-.28c-.567-1.279-.059-2.468.311-3.65.4-1.268.872-2.512,1.33-3.76.258-.7.125-.972-.641-1.017a7.588,7.588,0,0,0-5.689,1.931c-.121.107-.235.223-.36.324a1.182,1.182,0,0,1-1.3.162,1.133,1.133,0,0,1-.692-1.112,16.565,16.565,0,0,1,1.1-5.734,17.085,17.085,0,0,1,3.932-6.4A8.837,8.837,0,0,1,87.1,14.8c.216.11.427.228.667.356a1.494,1.494,0,0,0,.216-.18C93.27,8.649,100.1,4.734,107.88,2.33A54.143,54.143,0,0,1,118.828.115a2.161,2.161,0,0,0,.4-.115h2.426Zm-5.593,13.466c-.085-.1-.186-.241-.306-.361q-4.758-4.763-9.513-9.528a.584.584,0,0,0-.735-.155,39.569,39.569,0,0,0-10.06,5.495A43.066,43.066,0,0,0,83.181,26.867a.537.537,0,0,0,.164.725q5.369,5.352,10.719,10.723a.562.562,0,0,0,.785.12c1.066-.575,2.163-1.093,3.213-1.694,8.319-4.762,14.48-11.4,17.811-20.5.048-.133.1-.263.184-.468M81.1,25.212l5-8.137a7.221,7.221,0,0,0-2.994-.954A6.62,6.62,0,0,0,77.7,18.489a15.294,15.294,0,0,0-3.485,6.363c-.1.348-.169.707-.27,1.135a10.084,10.084,0,0,1,7.16-.775m23.471,10.343-8.161,5c.813,2.393.265,4.757-.749,7.189,3.566-.94,6.718-2.336,8.828-5.383a6.15,6.15,0,0,0,.082-6.809M73.809,47.846a25.032,25.032,0,0,0,5.943-1.568,7.654,7.654,0,0,0,3.923-3.943.622.622,0,0,0-.154-.84c-1.116-1.084-2.221-2.18-3.3-3.3a.719.719,0,0,0-.988-.184,7.678,7.678,0,0,0-3.947,4.078,25.208,25.208,0,0,0-1.477,5.759M108.683,4.653,117,12.971a53.282,53.282,0,0,0,2.1-10.433,54.565,54.565,0,0,0-10.418,2.115m-26.8,25.088c-.454,1.448-.9,2.9-1.367,4.352a1.173,1.173,0,0,0,.324,1.271c1.811,1.817,3.617,3.639,5.454,5.43a1.261,1.261,0,0,0,.957.38c1.567-.415,3.111-.92,4.67-1.4L81.883,29.741" transform="translate(-59.651)" fill="#07b6b6"/>
    <path id="Path_2" data-name="Path 2" d="M1,264.854c-.318-.247-.788-.44-.936-.775a2.555,2.555,0,0,1,.05-1.242c.016-.117.167-.221.266-.32q3.96-3.966,7.925-7.927a1.239,1.239,0,0,1,2.193.43,1.327,1.327,0,0,1-.5,1.342q-3.6,3.6-7.2,7.2a10.917,10.917,0,0,1-.914.883,4.73,4.73,0,0,1-.885.414" transform="translate(0.001 -212.924)" fill="#07b6b6"/>
    <path id="Path_3" data-name="Path 3" d="M4.183,328.267a1.337,1.337,0,0,1-1.071-1.98,2.437,2.437,0,0,1,.355-.411q3.918-3.922,7.838-7.841a1.3,1.3,0,0,1,1.4-.487,1.2,1.2,0,0,1,.656,1.851,2.813,2.813,0,0,1-.359.408q-3.875,3.879-7.761,7.747a6.726,6.726,0,0,1-1.053.713" transform="translate(-2.452 -266.034)" fill="#07b6b6"/>
    <path id="Path_4" data-name="Path 4" d="M62.323,326.817a3.943,3.943,0,0,1,.5-.852q4.03-4.067,8.092-8.1a1.222,1.222,0,1,1,1.725,1.724q-4.035,4.062-8.1,8.1a1.19,1.19,0,0,1-1.437.293,1.375,1.375,0,0,1-.784-1.162" transform="translate(-52.223 -265.989)" fill="#07b6b6"/>
    <path id="Path_5" data-name="Path 5" d="M44.13,200.428a5.175,5.175,0,0,1,.933.805.942.942,0,0,1-.109,1.233c-1.2,1.245-2.424,2.477-3.676,3.674a1.131,1.131,0,0,1-1.586-.1,1.15,1.15,0,0,1-.085-1.591c1.186-1.235,2.4-2.439,3.634-3.631a3.238,3.238,0,0,1,.888-.387" transform="translate(-32.952 -167.946)" fill="#07b6b6"/>
    <path id="Path_6" data-name="Path 6" d="M151.1,308.328a2.982,2.982,0,0,1-.424.71c-1.079,1.115-2.18,2.21-3.286,3.3a1.217,1.217,0,1,1-1.737-1.7c1.1-1.122,2.217-2.23,3.332-3.337a1.165,1.165,0,0,1,1.378-.3,1.262,1.262,0,0,1,.738,1.331" transform="translate(-121.705 -257.151)" fill="#07b6b6"/>
    <path id="Path_7" data-name="Path 7" d="M237.886,87.928a6.08,6.08,0,0,1-.127-12.159,6.08,6.08,0,1,1,.127,12.159m3.546-6.047a3.61,3.61,0,1,0-3.636,3.584,3.572,3.572,0,0,0,3.636-3.584" transform="translate(-194.191 -63.489)" fill="#07b6b6"/>
    <path id="Path_8" data-name="Path 8" d="M212.965,149.53a3.637,3.637,0,0,1-.437.733c-.5.552-1.035,1.072-1.574,1.585a1.227,1.227,0,1,1-1.714-1.744c.545-.565,1.1-1.124,1.672-1.659a1.139,1.139,0,0,1,1.344-.2,1.307,1.307,0,0,1,.709,1.281" transform="translate(-174.965 -124.11)" fill="#07b6b6"/>
    <path id="Path_9" data-name="Path 9" d="M190.061,181.087a1.252,1.252,0,0,1-1.263,1.2,1.226,1.226,0,0,1-1.182-1.268,1.251,1.251,0,0,1,1.221-1.179,1.284,1.284,0,0,1,1.224,1.249" transform="translate(-157.209 -150.693)" fill="#07b6b6"/>
  </g>
</svg>
