<svg id="Group_12" data-name="Group 12" xmlns="http://www.w3.org/2000/svg" xmlns:xlink="http://www.w3.org/1999/xlink" width="62.179" height="62.233" viewBox="0 0 62.179 62.233">
  <defs>
    <clipPath id="clip-path">
      <rect id="Rectangle_80" data-name="Rectangle 80" width="62.179" height="62.233" fill="#07b6b6"/>
    </clipPath>
  </defs>
  <g id="Group_11" data-name="Group 11" clip-path="url(#clip-path)">
    <path id="Path_10" data-name="Path 10" d="M43,129.986a28.381,28.381,0,0,1,1.382-3.454,8.948,8.948,0,0,1,9.536-4.385,9.041,9.041,0,0,1,7.157,7.4c.129.8.709.335,1.1.545v1.939H1.414c-1.137,0-1.413-.272-1.414-1.389q0-4.705,0-9.41a7.97,7.97,0,0,1,5.7-7.89c1.937-.65,3.873-1.3,5.817-1.931.4-.13.507-.321.549-.745a3.42,3.42,0,0,0-1.374-3.432,7.545,7.545,0,0,1-2.454-4.315c-.424,0-.839,0-1.255,0a3.009,3.009,0,0,1,0-6.018c.161,0,.323-.016.539-.027-.314-.8-.613-1.547-.908-2.3a7.753,7.753,0,0,1,6.2-10.682,6.058,6.058,0,0,1,.876-.037c2.237,0,4.474-.007,6.711,0a7.728,7.728,0,0,1,7.266,10.323c-.318.9-.693,1.78-1.037,2.658a9.995,9.995,0,0,1,1.394.211,3.006,3.006,0,0,1-.831,5.874c-1.193.024-1.192.024-1.584,1.14a8.514,8.514,0,0,1-3.087,4.161.89.89,0,0,0-.445.874c.054.7-.186,1.576.152,2.061.319.456,1.222.509,1.872.728,1.481.5,2.966.986,4.445,1.49a8,8,0,0,1,5.581,7.793q.007,4.329.008,8.657a.916.916,0,0,0,.038.162Zm-10.961.029a1.207,1.207,0,0,0,.068-.281c0-2.99.066-5.983-.029-8.97a5.426,5.426,0,0,0-3.105-4.958,53.453,53.453,0,0,0-5.168-1.916c-.581,1.449-1.12,2.8-1.667,4.154-.394.973-.869,1.153-1.8.7-.214-.1-.432-.2-.808-.369a8.322,8.322,0,0,0-.3,2.242c.469,2.987,1.056,5.956,1.582,8.934.07.4.251.493.627.485,1.087-.022,2.174-.008,3.261-.008h1.421v-6.988h1.995v6.974ZM10.327,113.941c-1.318.437-2.577.863-3.842,1.271A6.06,6.06,0,0,0,2,121.347Q2,125.359,2,129.371c0,.2.017.405.027.619H6.047v-6.953H8.036V130h5.117a1.547,1.547,0,0,0,.1-.257c.563-3.1,1.164-6.187,1.651-9.295a6.625,6.625,0,0,0-.37-2.059c-.321.155-.471.226-.619.3-1.1.543-1.531.373-2-.791-.062-.155-.125-.309-.187-.464l-1.4-3.493m14.489-18.09c.318-.8.64-1.549.912-2.313a5.705,5.705,0,0,0-5.222-7.668c-2.3-.059-4.6-.046-6.9,0A5.722,5.722,0,0,0,8.236,90.1c-.624,2.145.335,3.94,1.107,5.8,1.971,0,3.894.043,5.815-.014a3.707,3.707,0,0,0,3.3-2.046c.24-.439.434-.9.687-1.335a1.034,1.034,0,0,1,1.87,0c.261.451.455.94.713,1.392a3.751,3.751,0,0,0,3.09,1.956m-.657,2.156a17.891,17.891,0,0,1-2.349-1.123,15.529,15.529,0,0,1-1.78-1.616c-1.96,2.438-3.586,2.729-6.256,2.64-1.225-.041-2.453-.007-3.854-.007a36.039,36.039,0,0,0,.4,4.773,6.945,6.945,0,0,0,6.915,5.269,6.648,6.648,0,0,0,6.628-5.307,31.983,31.983,0,0,0,.3-4.629M49.306,130a2.881,2.881,0,0,1,1.2-3.436,1.2,1.2,0,0,0,.686-1.331.56.56,0,0,1,.046-.18h1.98A1.313,1.313,0,0,0,54,126.665,2.573,2.573,0,0,1,55.18,129H53.245c-.03-.065-.057-.12-.082-.176-.274-.625-.69-.9-1.184-.773a1.027,1.027,0,0,0-.784,1.067,1.063,1.063,0,0,0,1.165.907c.48.011.961,0,1.441,0h5.254c-.07-3.067-3.305-5.935-6.732-6.019-3.465-.085-6.766,2.721-7.014,5.989ZM14.047,109.562c0,.489-.013,1.011.007,1.532a.94.94,0,0,0,.151.571c.92.963,1.865,1.9,2.862,2.909.989-1,1.927-1.948,2.854-2.9a.625.625,0,0,0,.145-.388c.016-.561.007-1.123.007-1.634a27.213,27.213,0,0,1-3.012.276,27.4,27.4,0,0,1-3.014-.361M18.853,130c-.585-3.031-1.042-6.045-1.684-9.023l-.26.013L15.271,130Zm-3.476-14.322c-.83-.814-1.579-1.571-2.36-2.293-.15-.139-.427-.139-.818-.255l1.383,3.447,1.794-.9m5.163.9L21.89,113.2c-.3.034-.572-.019-.688.091-.809.768-1.586,1.571-2.414,2.4l1.751.883M8.017,98.907c-.7.039-1.451-.218-1.829.54a1.22,1.22,0,0,0,.068,1.03c.428.652,1.124.417,1.761.42Zm18.1,2c.673-.006,1.394.215,1.784-.48a1.23,1.23,0,0,0-.009-1.034c-.4-.691-1.115-.455-1.775-.466Zm-9.807,16.643c.131.4.235.782.386,1.145.051.123.227.286.329.274a.559.559,0,0,0,.39-.282c.16-.375.261-.775.379-1.144a.954.954,0,0,0-1.483.006" transform="translate(0 -69.8)" fill="#07b6b6"/>
    <path id="Path_11" data-name="Path 11" d="M217.658,27.975c.175,1.826-.186,3.366-2.077,4a2.949,2.949,0,0,1-3.453-1.206,3.2,3.2,0,0,1-2.58.149,3.065,3.065,0,0,1-1.786-1.935c-.381.043-.747.116-1.114.12a2.949,2.949,0,0,1-3.012-2.949q-.018-4.956.006-9.912a2.1,2.1,0,0,1,.225-.89c1.911-3.851,3.826-7.7,5.778-11.53A1.821,1.821,0,0,1,210.576,3c2.855-.994,5.728-1.936,8.6-2.891A1.593,1.593,0,0,1,219.656,0C223.648,0,227.64,0,231.68,0V2h-.663q-5.3,0-10.6.005a2.8,2.8,0,0,0-.858.118q-3.89,1.28-7.766,2.6a1.188,1.188,0,0,0-.615.533q-2.7,5.337-5.355,10.7a1.678,1.678,0,0,0-.182.711c-.012,3.074-.025,6.148.015,9.222a1.555,1.555,0,0,0,.525,1.037c.212.176.654.076,1.17.111a3.491,3.491,0,0,1-.575-3.058,1.769,1.769,0,0,1,.339-.73,2.329,2.329,0,0,0,.537-1.906c-.026-.961.019-1.925-.017-2.885a1.918,1.918,0,0,1,.485-1.367c1.15-1.4,2.273-2.832,3.457-4.315-1.054-1.046-1.015-2.349-.873-3.707h1.879c.021.049.072.108.064.158a4.256,4.256,0,0,0,.936,3.078c.639.978,1.215,2,1.812,3a1.1,1.1,0,0,1-.147,1.629c-2.021,2.315-4.06,4.615-6.054,6.953a1.87,1.87,0,0,0-.467,1.264,1.093,1.093,0,0,0,1.85.578c.408-.357.776-.761,1.16-1.146,1.952-1.951,3.9-3.911,5.863-5.847a3.877,3.877,0,0,1,1.116-.768c1.924-.856,3.871-1.663,5.8-2.517a2.082,2.082,0,0,0,.795-.642c.52-.705.949-1.48,1.488-2.168a1.5,1.5,0,0,1,.951-.568c1.292-.065,2.589-.027,3.932-.027v2c-.97,0-1.945.014-2.92-.007a.68.68,0,0,0-.754.4c-.91,2.154-2.744,3.163-4.831,3.782a1.837,1.837,0,0,0-1.514,2.274c.139,1.366-.065,2.765.054,4.135a3.133,3.133,0,0,1-4.057,3.344m-1.983-4.495c-.722.737-1.317,1.338-1.9,1.949a.439.439,0,0,0-.1.278c0,1.149-.023,2.3.012,3.446a1,1,0,0,0,.984.953,1.02,1.02,0,0,0,.993-.946c.04-.456.016-.918.016-1.378,0-1.369,0-2.737,0-4.3m4.009-3.621-.194-.126c-.6.591-1.193,1.18-1.781,1.779-.046.046-.03.16-.03.242,0,1.1-.017,2.209.009,3.313a.994.994,0,1,0,1.987.03c.025-1.746.009-3.492.009-5.238m-7.024-5.177c-.889,1.111-1.674,2.192-2.566,3.173-.651.717-.382,1.47-.443,2.4l3.77-4.309-.76-1.267m-1.035,12.943-1.92.593a.966.966,0,0,0,1.077.874c.631-.1.917-.609.843-1.467" transform="translate(-169.507 0.001)" fill="#07b6b6"/>
    <path id="Path_12" data-name="Path 12" d="M218.7,203.682a9.032,9.032,0,1,1-9.056,9.019,9.007,9.007,0,0,1,9.056-9.019m7,9.053a7.024,7.024,0,1,0-6.983,7.006,7.071,7.071,0,0,0,6.983-7.006" transform="translate(-174.513 -169.552)" fill="#07b6b6"/>
    <rect id="Rectangle_74" data-name="Rectangle 74" width="1.916" height="10.978" transform="translate(58.25 35.169)" fill="#07b6b6"/>
    <rect id="Rectangle_75" data-name="Rectangle 75" width="1.925" height="6.964" transform="translate(32.15 29.141)" fill="#07b6b6"/>
    <rect id="Rectangle_76" data-name="Rectangle 76" width="1.928" height="6.942" transform="translate(54.229 31.169)" fill="#07b6b6"/>
    <rect id="Rectangle_77" data-name="Rectangle 77" width="1.933" height="6.936" transform="translate(28.143 35.171)" fill="#07b6b6"/>
    <rect id="Rectangle_78" data-name="Rectangle 78" width="1.924" height="1.936" transform="translate(32.162 38.184)" fill="#07b6b6"/>
    <rect id="Rectangle_79" data-name="Rectangle 79" width="1.917" height="1.947" transform="translate(54.245 40.177)" fill="#07b6b6"/>
    <path id="Path_13" data-name="Path 13" d="M251.525,225.865h-1.958c-.04-.1-.086-.228-.148-.352a.984.984,0,0,0-1.889.433.988.988,0,0,0,.925.948,6.585,6.585,0,0,1,.984.151,2.865,2.865,0,0,1,2.045,2.322,2.707,2.707,0,0,1-1.111,2.876c-.621.424-1.056.814-.824,1.646h-2.007a1.461,1.461,0,0,1-.021-.324c.1-.568-.135-.873-.644-1.165a2.824,2.824,0,0,1-1.378-2.439h1.975c.052.122.074.34.188.411a2.308,2.308,0,0,0,1.048.484.787.787,0,0,0,.773-.893,2.255,2.255,0,0,0-.646-.96c-.085-.1-.313-.081-.477-.093a2.993,2.993,0,0,1-2.728-2.133,2.846,2.846,0,0,1,1.1-3.266c.624-.4.964-.792.74-1.577h1.969c.019.031.061.067.056.1a1.317,1.317,0,0,0,.783,1.478,2.644,2.644,0,0,1,1.239,2.358" transform="translate(-204.36 -184.744)" fill="#07b6b6"/>
  </g>
</svg>
