<svg xmlns="http://www.w3.org/2000/svg" width="46.884" height="46.884" viewBox="0 0 46.884 46.884"><defs><style>.a{fill:#172341;}</style></defs><path class="a" d="M367.748,264.6l-.57-.1-2.116,1.587,2.151,1.721Zm0,0" transform="translate(-328.176 -237.771)"/><path class="a" d="M33.617,47.275h1.617V49.7h.677a2.737,2.737,0,0,0,2.6-1.872l1.533.512a4.332,4.332,0,0,1-.747,1.349,2.728,2.728,0,0,0,2.447-1.861l1.533.512a4.331,4.331,0,0,1-.747,1.349,2.727,2.727,0,0,0,2.406-1.762v-.652h1.617v1.7a4.012,4.012,0,0,1,1.617.747V45.789a2.737,2.737,0,0,0-1.872-2.6l-.181-.06-.858-.858A7.765,7.765,0,0,0,32,47.766v1.955a4,4,0,0,1,1.617-.747Zm0,0" transform="translate(-28.767 -35.958)"/><path class="a" d="M313.7,139.106h-.427a16.218,16.218,0,0,1-6.681-1.449l-.069.069a4.744,4.744,0,0,1-2.523,1.3v3.308a4.85,4.85,0,1,0,9.7,0Zm0,0" transform="translate(-273.283 -123.747)"/><path class="a" d="M272,147.749a2.421,2.421,0,0,0,1.651,2.287,6.583,6.583,0,0,1-.035-.67v-3.893A2.423,2.423,0,0,0,272,147.749Zm0,0" transform="translate(-244.516 -130.774)"/><path class="a" d="M312.359,264.6l.534,3.2,2.151-1.721-2.116-1.587Zm0,0" transform="translate(-280.798 -237.771)"/><path class="a" d="M272,56.083v.829a4,4,0,0,1,1.617-.747v-1.7h1.617v2.3a3.1,3.1,0,0,0,1.38-.783l.886-.886.521.26a14.58,14.58,0,0,0,6.486,1.532h.427V54.468h1.617v1.7a4.012,4.012,0,0,1,1.617.747v-.829a8.083,8.083,0,1,0-16.167,0Zm0,0" transform="translate(-244.516 -43.15)"/><path class="a" d="M415.691,149.366a6.583,6.583,0,0,1-.035.67,2.41,2.41,0,0,0,.035-4.563Zm0,0" transform="translate(-373.657 -130.774)"/><path class="a" d="M345.194,328l-.628,3.765.751.75.751-.75L345.441,328Zm0,0" transform="translate(-309.751 -294.858)"/><path class="a" d="M341.321,290.246l-1.2.961.825,1.237h.752l.824-1.237Zm0,0" transform="translate(-305.754 -260.919)"/><path class="a" d="M332.85,243.289a6.415,6.415,0,0,1-4.85,0v.88l2.425,1.819,2.425-1.819Zm0,0" transform="translate(-294.858 -218.706)"/><path class="a" d="M72.359,264.6l.534,3.2,2.151-1.721L72.929,264.5Zm0,0" transform="translate(-65.048 -237.771)"/><path class="a" d="M33.651,150.036a6.591,6.591,0,0,1-.035-.67v-3.893a2.41,2.41,0,0,0,.035,4.563Zm0,0" transform="translate(-28.767 -130.774)"/><path class="a" d="M73.7,143.8a4.348,4.348,0,0,1-2.556.828h-.677V143.8a4.348,4.348,0,0,1-2.556.828h-.677V143.8a4.348,4.348,0,0,1-2.556.828H64v3.233a4.85,4.85,0,1,0,9.7,0Zm0,0" transform="translate(-57.533 -129.271)"/><path class="a" d="M22.634,278.9l1.01.261a2.425,2.425,0,1,0,0-4.674l-1.01.262v-3.31a2.425,2.425,0,0,0-1.992-2.386l-3.73-.678-.983,5.9-2.144-1.715-.81,1.215.825,4.945L11.317,281.2l-2.482-2.483.825-4.944-.81-1.215L6.7,274.275l-.983-5.9-3.731.677A2.428,2.428,0,0,0,0,271.439v11.044H22.634Zm0,0" transform="translate(0 -241.258)"/><path class="a" d="M260.642,269.053l-3.73-.678-.983,5.9-2.144-1.715-.81,1.215.825,4.945-2.482,2.481-2.482-2.483.825-4.944-.81-1.215-2.144,1.715-.983-5.9-3.731.677A2.428,2.428,0,0,0,240,271.439v1.344a4.042,4.042,0,1,1,0,8.083v1.617h22.634V271.439A2.425,2.425,0,0,0,260.642,269.053Zm0,0" transform="translate(-215.75 -241.258)"/><path class="a" d="M101.321,290.246l-1.2.961.825,1.237h.752l.825-1.237Zm0,0" transform="translate(-90.005 -260.919)"/><path class="a" d="M105.194,328l-.628,3.765.751.75.751-.75L105.441,328Zm0,0" transform="translate(-94.001 -294.858)"/><path class="a" d="M175.691,149.366a6.592,6.592,0,0,1-.035.67,2.41,2.41,0,0,0,.035-4.563Zm0,0" transform="translate(-157.907 -130.774)"/><path class="a" d="M92.85,243.289a6.415,6.415,0,0,1-4.85,0v.88l2.425,1.819,2.425-1.819Zm0,0" transform="translate(-79.108 -218.706)"/><path class="a" d="M127.748,264.6l-.57-.1-2.116,1.587,2.151,1.721Zm0,0" transform="translate(-112.426 -237.771)"/><path class="a" d="M0,448H1.617v1.617H0Zm0,0" transform="translate(0 -402.733)"/><path class="a" d="M32,448h1.617v1.617H32Zm0,0" transform="translate(-28.767 -402.733)"/><path class="a" d="M64,448h1.617v1.617H64Zm0,0" transform="translate(-57.533 -402.733)"/><path class="a" d="M110.712,420.176l1.455,1.94H96v1.617h19.4l-3.4-4.526Zm0,0" transform="translate(-86.3 -376.849)"/><path class="a" d="M448,0h1.617V1.617H448Zm0,0" transform="translate(-402.733)"/><path class="a" d="M416,0h1.617V1.617H416Zm0,0" transform="translate(-373.966)"/><path class="a" d="M384,0h1.617V1.617H384Zm0,0" transform="translate(-345.2)"/><path class="a" d="M180.688,3.557l-1.455-1.941H195.4V0H176l3.4,4.527Zm0,0" transform="translate(-158.216)"/></svg>