<svg xmlns="http://www.w3.org/2000/svg" width="33.995" height="37.865" viewBox="0 0 33.995 37.865"><defs><style>.a{fill:#172341;}</style></defs><g transform="translate(346.077 -10.24)"><path class="a" d="M-321.257,31.281A2.109,2.109,0,0,1-323.6,32a2.3,2.3,0,0,1-1.574-2.779c-.506.353-.978.663-1.422,1.008a.6.6,0,0,0-.134.419c-.01,1.163-.006,2.325-.006,3.53h-4.715c0-.866-.062-1.725.017-2.572a1.671,1.671,0,0,0-.972-1.965,3.189,3.189,0,0,1-.57-.424c-.093,1.737-.522,2.468-1.61,2.79a2.136,2.136,0,0,1-2.333-.729,6.419,6.419,0,0,1,.734-.594c.1-.061.307,0,.442.064a1.056,1.056,0,0,0,1.152-.1.949.949,0,0,0,.34-1.094,1.076,1.076,0,0,0-.424-.57,25.4,25.4,0,0,1-6.883-6.169,23.439,23.439,0,0,1-4.286-7.394,3.792,3.792,0,0,1,1.416-4.509,3.6,3.6,0,0,1,5.019,1.21c.06.1.118.192.224.367l.386-2.244h19.419l.372,2.216c.095-.133.161-.217.216-.307a3.632,3.632,0,0,1,4.506-1.532A3.71,3.71,0,0,1-312.219,15a19.056,19.056,0,0,1-2.761,5.612,29.875,29.875,0,0,1-6.919,7.324c-.5.368-1.047.683-1.578,1.013a1.022,1.022,0,0,0-.383,1.364.962.962,0,0,0,1.3.459c.4-.256.624-.11.889.143C-321.54,31.044-321.395,31.161-321.257,31.281Zm-13.468-14.189-.1.161a1.627,1.627,0,0,1,.34.184c.788.71,1.559,1.44,2.357,2.138a.635.635,0,0,1,.226.72c-.139.564-.251,1.134-.367,1.7-.119.588-.23,1.179-.364,1.872a27.9,27.9,0,0,0,2.472-1.428,1.617,1.617,0,0,1,2.165,0,26.035,26.035,0,0,0,2.429,1.4c-.021-.2-.024-.33-.049-.453-.21-1.024-.41-2.051-.646-3.07a.7.7,0,0,1,.264-.787c.8-.7,1.571-1.425,2.352-2.143.077-.07.14-.156.242-.271-.143-.03-.225-.054-.309-.064-1.1-.126-2.193-.259-3.292-.368a.579.579,0,0,1-.549-.392c-.426-.987-.878-1.962-1.322-2.941-.055-.12-.123-.234-.224-.425a21.407,21.407,0,0,0-1.076,2.442,1.831,1.831,0,0,1-2.048,1.445A19.682,19.682,0,0,0-334.725,17.092Zm15.839-1.27A20.808,20.808,0,0,1-323.352,27.4a8.7,8.7,0,0,0,1.054-.691,29.351,29.351,0,0,0,5.726-5.958,19.932,19.932,0,0,0,3.129-5.91,2.526,2.526,0,0,0-1.307-3.085,2.4,2.4,0,0,0-2.815.781,2.518,2.518,0,0,0-.044,2.938c.081.114.164.228.231.32l-.84.87Zm-21.929-.023c.094-.125.184-.237.265-.354a2.5,2.5,0,0,0-.656-3.47,2.282,2.282,0,0,0-3.247.675,2.472,2.472,0,0,0-.275,2.213,17.817,17.817,0,0,0,1.871,4.022,29.57,29.57,0,0,0,7.309,8.062c.223.167.461.314.693.47A21.148,21.148,0,0,1-339.3,15.83l-.669.844Z"/><path class="a" d="M-304.519,183.653l2.316-9.137h14.8l2.317,9.137Zm14.349-6.561h-9.249v1.148h9.249Zm-9.258,4h9.245v-1.146h-9.245Z" transform="translate(-34.291 -135.548)"/><path class="a" d="M-263.079,154.446v2.233h-7.609v-2.233Z" transform="translate(-62.205 -118.988)"/></g></svg>