<svg xmlns="http://www.w3.org/2000/svg" width="30.5" height="46.554" viewBox="0 0 30.5 46.554"><defs><style>.a{fill:#ffffff;}</style></defs><g transform="translate(-0.008)"><path class="a" d="M80.008,153.419a7.224,7.224,0,1,0,14.447,0v-3.411l-3.93,2.947,1.116,5.577-4.41-3.307-4.41,3.307,1.116-5.577-3.93-2.946Zm0,0" transform="translate(-71.974 -134.958)"/><path class="a" d="M80.008,129.918l5.034-1.006.362-.9h-5.4Zm0,0" transform="translate(-71.974 -115.165)"/><path class="a" d="M120.008,265.895v1.03l3.211,2.569,3.211-2.569v-1.03a8.709,8.709,0,0,1-6.421,0Zm0,0" transform="translate(-107.961 -239.218)"/><path class="a" d="M175.619,128.008h-5.4l.362.9,5.034,1.006Zm0,0" transform="translate(-153.137 -115.165)"/><path class="a" d="M49.613,11.238h7.643l1.186-2.963,1.186,2.963h7.643v1.686a3.984,3.984,0,0,1,1.605.741V10.434a10.434,10.434,0,0,0-20.868,0v3.231a3.973,3.973,0,0,1,1.605-.741Zm0,0" transform="translate(-43.184)"/><path class="a" d="M118.829,125.551l-1.021,2.553-2.679.536,2.178,1.634-.489,2.449,2.011-1.509,2.011,1.509-.49-2.449,2.178-1.634-2.679-.536Zm0,0" transform="translate(-103.571 -112.954)"/><path class="a" d="M239.706,149.346c0,.225-.017.445-.034.665a2.393,2.393,0,0,0,.034-4.531Zm0,0" transform="translate(-215.619 -130.885)"/><path class="a" d="M9.382,312.511l-3.359-6.718-3.27,1.09a4.008,4.008,0,0,0-2.745,3.808v10.977H4.021v-8.829H5.626v8.829h5.741l1.47-8.816-.563-2.818Zm0,0" transform="translate(0 -275.113)"/><path class="a" d="M130.787,384.008l-1.338,8.026h4.527l-1.338-8.026Zm0,0" transform="translate(-116.455 -345.481)"/><path class="a" d="M77.625,294.825l4.1-3.517-2.916-2.332-3.523,1.174Zm0,0" transform="translate(-67.728 -259.984)"/><path class="a" d="M186.229,306.883l-3.27-1.09-3.359,6.718-2.892-2.479-.564,2.818,1.47,8.816h5.74v-8.829h1.605v8.829h4.013V310.691A4.009,4.009,0,0,0,186.229,306.883Zm0,0" transform="translate(-158.465 -275.113)"/><path class="a" d="M138.719,327.1l.64-3.2-1.588-1.361-1.588,1.361.64,3.2Zm0,0" transform="translate(-122.513 -290.183)"/><path class="a" d="M170.982,290.151l-3.523-1.174-2.916,2.332,4.1,3.517Zm0,0" transform="translate(-148.028 -259.984)"/><path class="a" d="M49.647,150.011c-.017-.22-.034-.441-.034-.665V145.48a2.393,2.393,0,0,0,.034,4.531Zm0,0" transform="translate(-43.184 -130.885)"/></g></svg>