<svg xmlns="http://www.w3.org/2000/svg" width="18" height="18" viewBox="0 0 18 18"><defs><style>.a{fill:#97b350;}</style></defs><g transform="translate(-0.004)"><path class="a" d="M141.346,5.235,136.471.172a.563.563,0,0,0-.967.391V3h-.187A7.321,7.321,0,0,0,128,10.313v1.125a.555.555,0,0,0,.438.538.5.5,0,0,0,.124.015.582.582,0,0,0,.514-.32,6.152,6.152,0,0,1,5.534-3.42h.891v2.437a.563.563,0,0,0,.967.39l4.875-5.062A.563.563,0,0,0,141.346,5.235Zm0,0" transform="translate(-123.5 0)"/><path class="a" d="M15.754,100.34H2.254A2.253,2.253,0,0,1,0,98.09V87.59a2.253,2.253,0,0,1,2.25-2.25H4.5a.75.75,0,0,1,0,1.5H2.254a.75.75,0,0,0-.75.75v10.5a.75.75,0,0,0,.75.75h13.5a.75.75,0,0,0,.75-.75v-6a.75.75,0,1,1,1.5,0v6A2.253,2.253,0,0,1,15.754,100.34Zm0,0" transform="translate(0 -82.339)"/></g></svg>