<svg id="Group_152" data-name="Group 152" xmlns="http://www.w3.org/2000/svg" xmlns:xlink="http://www.w3.org/1999/xlink" width="220.848" height="248.497" viewBox="0 0 220.848 248.497">
  <defs>
    <linearGradient id="linear-gradient" x1="-0.309" y1="1.585" x2="-0.306" y2="1.585" gradientUnits="objectBoundingBox">
      <stop offset="0" stop-color="#fff"/>
      <stop offset="1" stop-color="#e6e6e6"/>
    </linearGradient>
    <clipPath id="clip-path">
      <rect id="Rectangle_140" data-name="Rectangle 140" width="220.848" height="248.497" fill="none"/>
    </clipPath>
    <clipPath id="clip-path-3">
      <rect id="Rectangle_132" data-name="Rectangle 132" width="192.544" height="32.284" fill="none"/>
    </clipPath>
    <clipPath id="clip-path-4">
      <path id="Path_56" data-name="Path 56" d="M239.381,294.827a96.8,96.8,0,0,1-1.35,16.142H48.186a97.222,97.222,0,0,1,0-32.284H238.031a96.8,96.8,0,0,1,1.35,16.142" transform="translate(-46.837 -278.685)" fill="none"/>
    </clipPath>
    <radialGradient id="radial-gradient" cx="0.503" cy="0.497" r="2.973" gradientUnits="objectBoundingBox">
      <stop offset="0" stop-color="#231f20"/>
      <stop offset="0.9" stop-color="#231f20"/>
      <stop offset="0.902" stop-color="#2a2627"/>
      <stop offset="0.92" stop-color="#6a6768"/>
      <stop offset="0.937" stop-color="#9f9d9d"/>
      <stop offset="0.952" stop-color="#c8c7c7"/>
      <stop offset="0.966" stop-color="#e6e5e6"/>
      <stop offset="0.978" stop-color="#f8f8f8"/>
      <stop offset="0.987" stop-color="#fff"/>
      <stop offset="1" stop-color="#fff"/>
    </radialGradient>
    <clipPath id="clip-path-5">
      <rect id="Rectangle_133" data-name="Rectangle 133" width="164.362" height="164.362" fill="none"/>
    </clipPath>
    <clipPath id="clip-path-6">
      <path id="Path_60" data-name="Path 60" d="M132.323,169.424a70.441,70.441,0,1,0,70.441-70.442,70.441,70.441,0,0,0-70.441,70.442" transform="translate(-132.323 -98.982)" fill="none"/>
    </clipPath>
    <linearGradient id="linear-gradient-2" x1="-0.284" y1="1.552" x2="-0.282" y2="1.552" gradientUnits="objectBoundingBox">
      <stop offset="0" stop-color="#c9c9c9"/>
      <stop offset="1" stop-color="#fff"/>
    </linearGradient>
    <clipPath id="clip-path-7">
      <path id="Path_61" data-name="Path 61" d="M139.471,174.411a68.282,68.282,0,1,0,68.282-68.282,68.281,68.281,0,0,0-68.282,68.282" transform="translate(-139.471 -106.129)" fill="url(#linear-gradient)"/>
    </clipPath>
    <clipPath id="clip-path-9">
      <rect id="Rectangle_138" data-name="Rectangle 138" width="184.251" height="22.099" fill="none"/>
    </clipPath>
    <clipPath id="clip-path-10">
      <path id="Path_62" data-name="Path 62" d="M244.81,760.311c0,6.1-41.246,11.05-92.126,11.05s-92.126-4.947-92.126-11.05,41.246-11.049,92.126-11.049,92.126,4.947,92.126,11.049" transform="translate(-60.559 -749.262)" fill="none"/>
    </clipPath>
    <radialGradient id="radial-gradient-2" cx="0.5" cy="0.5" r="4.109" gradientUnits="objectBoundingBox">
      <stop offset="0" stop-color="#a7a9ac"/>
      <stop offset="0.195" stop-color="#bfc0c3"/>
      <stop offset="0.516" stop-color="#e2e2e3"/>
      <stop offset="0.781" stop-color="#f7f7f7"/>
      <stop offset="0.954" stop-color="#fff"/>
      <stop offset="1" stop-color="#fff"/>
    </radialGradient>
  </defs>
  <g id="Group_151" data-name="Group 151" clip-path="url(#clip-path)">
    <path id="Path_55" data-name="Path 55" d="M0,278.687l7.132,16.141L0,310.97H220.848l-7.191-16.141,7.191-16.141Z" transform="translate(0 -194.479)" fill="#07b6b6"/>
    <g id="Group_139" data-name="Group 139">
      <g id="Group_138" data-name="Group 138" clip-path="url(#clip-path)">
        <g id="Group_134" data-name="Group 134" transform="translate(14.152 84.208)" opacity="0.49" style="mix-blend-mode: multiply;isolation: isolate">
          <g id="Group_133" data-name="Group 133">
            <g id="Group_132" data-name="Group 132" clip-path="url(#clip-path-3)">
              <g id="Group_131" data-name="Group 131" transform="translate(0)">
                <g id="Group_130" data-name="Group 130" clip-path="url(#clip-path-4)">
                  <rect id="Rectangle_131" data-name="Rectangle 131" width="192.544" height="32.284" transform="translate(0)" fill="url(#radial-gradient)"/>
                </g>
              </g>
            </g>
          </g>
        </g>
        <path id="Path_57" data-name="Path 57" d="M249.133,126.967a88.825,88.825,0,1,1-88.825-88.825,88.825,88.825,0,0,1,88.825,88.825" transform="translate(-49.884 -26.617)" fill="#07b6b6"/>
        <path id="Path_58" data-name="Path 58" d="M140.207,3.405a97.117,97.117,0,0,1,94,73.188h3.529a100.4,100.4,0,0,0-189.993-15.3,99.442,99.442,0,0,0-5.064,15.3h3.529a97.117,97.117,0,0,1,94-73.188m0,193.889a97.118,97.118,0,0,1-94-73.188H42.679a100.4,100.4,0,0,0,189.993,15.3,99.417,99.417,0,0,0,5.064-15.3h-3.529a97.118,97.118,0,0,1-94,73.188" transform="translate(-29.783)" fill="#07b6b6"/>
        <g id="Group_137" data-name="Group 137" transform="translate(28.595 18.741)" opacity="0.49" style="mix-blend-mode: multiply;isolation: isolate">
          <g id="Group_136" data-name="Group 136">
            <g id="Group_135" data-name="Group 135" clip-path="url(#clip-path-5)">
              <path id="Path_59" data-name="Path 59" d="M259,144.2a82.181,82.181,0,1,1-82.181-82.181A82.181,82.181,0,0,1,259,144.2" transform="translate(-94.636 -62.023)" fill="#07b6b6"/>
            </g>
          </g>
        </g>
      </g>
    </g>
    <g id="Group_141" data-name="Group 141" transform="translate(39.983 29.908)">
      <g id="Group_140" data-name="Group 140" clip-path="url(#clip-path-6)">
        <rect id="Rectangle_135" data-name="Rectangle 135" width="140.883" height="140.883" transform="translate(0 0)" fill="url(#linear-gradient-2)"/>
      </g>
    </g>
    <g id="Group_143" data-name="Group 143" transform="translate(42.143 32.068)">
      <g id="Group_142" data-name="Group 142" clip-path="url(#clip-path-7)">
        <rect id="Rectangle_136" data-name="Rectangle 136" width="136.563" height="136.563" transform="translate(0 0)" fill="url(#linear-gradient)"/>
      </g>
    </g>
    <g id="Group_150" data-name="Group 150">
      <g id="Group_149" data-name="Group 149" clip-path="url(#clip-path)">
        <g id="Group_148" data-name="Group 148" transform="translate(18.299 226.397)" style="mix-blend-mode: multiply;isolation: isolate">
          <g id="Group_147" data-name="Group 147">
            <g id="Group_146" data-name="Group 146" clip-path="url(#clip-path-9)">
              <g id="Group_145" data-name="Group 145" transform="translate(0 0)">
                <g id="Group_144" data-name="Group 144" clip-path="url(#clip-path-10)">
                  <rect id="Rectangle_137" data-name="Rectangle 137" width="184.251" height="22.099" transform="translate(0 0)" fill="url(#radial-gradient-2)"/>
                </g>
              </g>
            </g>
          </g>
        </g>
      </g>
    </g>
    <text id="BROKERAGE" transform="translate(110.424 115.35)" font-size="14" font-family="Manrope-Regular, Manrope"><tspan x="-39" y="0">BROKER</tspan><tspan y="0" letter-spacing="-0.019em">A</tspan><tspan y="0">GE</tspan></text>
    <text id="DISTRIBUTED" transform="translate(110.424 132.35)" font-size="12" font-family="Manrope-Regular, Manrope"><tspan x="-36" y="0">DISTRIBUTED</tspan></text>
    <text id="_30_CR." data-name="₹30 CR." transform="translate(110.424 93.35)" font-size="24" font-family="Oswald-Bold, Oswald" font-weight="700"><tspan x="-39" y="0">₹30 C</tspan><tspan y="0" letter-spacing="-0.004em">R</tspan><tspan y="0">.</tspan></text>
  </g>
</svg>
