<svg xmlns="http://www.w3.org/2000/svg" xmlns:xlink="http://www.w3.org/1999/xlink" width="109.348" height="109.348" viewBox="0 0 109.348 109.348"><defs><style>.a{fill:url(#a);}.b{fill:#fff;}</style><linearGradient id="a" x1="0.07" y1="1.281" x2="0.881" y2="-0.193" gradientUnits="objectBoundingBox"><stop offset="0" stop-color="#97b350"/><stop offset="0.075" stop-color="#97b350"/><stop offset="0.953" stop-color="#9cd1d9"/><stop offset="1" stop-color="#9cd1d9"/></linearGradient></defs><g transform="translate(-390.761 -4500.536)"><g transform="translate(390.761 4500.536)"><circle class="a" cx="54.674" cy="54.674" r="54.674"/></g><g transform="translate(432.377 4534.032)"><path class="b" d="M38.65,32.183A7.588,7.588,0,0,0,46.23,24.6V7.579a7.58,7.58,0,0,0-15.159,0V24.6A7.588,7.588,0,0,0,38.65,32.183Z" transform="translate(-25.59)"/><path class="b" d="M43.831,45.715H42.322a.878.878,0,0,0-.878.878V49.68a9.8,9.8,0,0,1-19.59,0V46.593a.878.878,0,0,0-.878-.878H19.466a.878.878,0,0,0-.878.878V49.68A13.247,13.247,0,0,0,30.016,62.635v2.187h-6.74a.878.878,0,0,0-.878.878v1.509a.878.878,0,0,0,.878.878H40.022a.878.878,0,0,0,.878-.878V65.7a.878.878,0,0,0-.878-.878h-6.74V62.635A13.246,13.246,0,0,0,44.709,49.68V46.593A.878.878,0,0,0,43.831,45.715Z" transform="translate(-18.588 -25.642)"/></g></g></svg>