<svg xmlns="http://www.w3.org/2000/svg" xmlns:xlink="http://www.w3.org/1999/xlink" width="519.5" height="350" viewBox="0 0 519.5 350">
  <defs>
    <linearGradient id="linear-gradient" y1="0.023" x2="1" y2="1" gradientUnits="objectBoundingBox">
      <stop offset="0" stop-color="#ffae00"/>
      <stop offset="1" stop-color="#f9e866"/>
    </linearGradient>
    <clipPath id="clip-path">
      <rect id="Rectangle_3426" data-name="Rectangle 3426" width="519.5" height="350" rx="14" transform="translate(152 2177.522)" fill="url(#linear-gradient)"/>
    </clipPath>
    <clipPath id="clip-path-2">
      <rect id="Rectangle_1607" data-name="Rectangle 1607" width="422.361" height="292.001" transform="translate(0 0)" fill="none"/>
    </clipPath>
  </defs>
  <g id="Group_6632" data-name="Group 6632" transform="translate(-152 -1942.522)">
    <rect id="Rectangle_1160" data-name="Rectangle 1160" width="519.5" height="350" rx="14" transform="translate(152 1942.522)" fill="url(#linear-gradient)"/>
    <g id="Mask_Group_270" data-name="Mask Group 270" transform="translate(0 -235)" clip-path="url(#clip-path)">
      <g id="Group_5271" data-name="Group 5271" transform="translate(-33.504 -77.377)">
        <g id="Group_1682" data-name="Group 1682" transform="translate(33.504 2314.169)">
          <g id="Group_1681" data-name="Group 1681" transform="translate(0 0)" clip-path="url(#clip-path-2)">
            <path id="Path_773" data-name="Path 773" d="M209.551,709.438a4.32,4.32,0,0,0-3.369-1.608l-88.412.343-39.067.151a4.3,4.3,0,0,0-3.314,7.022l21.065,25.767a3.6,3.6,0,0,1-.488,5.035L0,825.711v.926L96.417,746.7A4.307,4.307,0,0,0,97,740.664L75.939,714.9a3.59,3.59,0,0,1,2.768-5.862l39.646-.153,87.831-.341h.014a3.59,3.59,0,0,1,3.5,4.378l-15.223,67.689L190.7,797.386,182.112,835.6a3.591,3.591,0,0,1-6.282,1.485L155.7,812.459l-5.878-7.188a4.3,4.3,0,0,0-6.076-.589L80.593,857.042h1.114L144.2,805.229a3.588,3.588,0,0,1,5.069.494l5.878,7.194,20.127,24.617a4.3,4.3,0,0,0,7.531-1.779l8.471-37.669v0l3.934-17.478L210.4,713.079a4.3,4.3,0,0,0-.845-3.641" transform="translate(0 -565.04)" fill="#30262a"/>
            <path id="Path_774" data-name="Path 774" d="M391.938,598.358,366.607,711a3.622,3.622,0,0,1-6.338,1.5l-17.433-21.323-1.991-2.435v0l-.526-.641-3.93-4.807a3.621,3.621,0,0,0-5.118-.5l-23.092,19.144-.506.42-76.916,63.769H121.88L287.4,629.047a3.619,3.619,0,0,0,.492-5.079l-14-17.133-.535-.651-4.8-5.874a3.622,3.622,0,0,1,2.79-5.915l43.354-.167h0l10.68-.042h0l16.415-.064,2.794-.01,6.819-.026h0l4.422-.016h0l11.912-.046,9.99-.038h0l10.655-.042a3.623,3.623,0,0,1,3.546,4.418" transform="translate(-97.293 -474.125)" fill="#fddd6a"/>
            <path id="Path_775" data-name="Path 775" d="M138.129,157.586l-11.551,51.356a1.9,1.9,0,0,1-3.318.785L112.65,196.75a1.894,1.894,0,0,0-2.677-.26L0,288.969V241.2l89.693-69.554a1.9,1.9,0,0,0,.258-2.661l-8.509-10.405a1.9,1.9,0,0,1,1.463-3.1l53.366-.206a1.9,1.9,0,0,1,1.858,2.31" transform="translate(0 -123.953)" fill="#fce89d"/>
            <path id="Path_776" data-name="Path 776" d="M499.005,1077.747h62.506l51.346-42.571a1.724,1.724,0,0,1,2.439.236l14.422,17.639a1.729,1.729,0,0,0,3.024-.715l11.14-49.541,3.684-16.38a1.725,1.725,0,0,0-1.689-2.106l-.375,0-.672,0-67.456.26a1.726,1.726,0,0,0-1.331,2.818l11.819,14.458a1.726,1.726,0,0,1-.236,2.423Z" transform="translate(-398.341 -785.746)" fill="#977706"/>
            <path id="Path_777" data-name="Path 777" d="M1435.99,1028.095a4.052,4.052,0,0,1,3.078-6.671l51.415-.192h0l16.028-.059h.014a4.052,4.052,0,0,1,3.948,4.972l-14.6,62.673a4.053,4.053,0,0,1-7.043,1.7l-11.313-13.365a4.683,4.683,0,0,0-6.536-.632l-37.633,30.13h1.047l36.995-29.62a4.031,4.031,0,0,1,5.626.545l11.315,13.366a4.708,4.708,0,0,0,8.178-1.977l14.6-62.673a4.707,4.707,0,0,0-4.585-5.774h-.018l-15.878.059-51.564.192a4.706,4.706,0,0,0-3.576,7.746l7.87,9.3a4.051,4.051,0,0,1-.561,5.784l-78.753,63.054h1.045l78.12-62.544a4.709,4.709,0,0,0,.65-6.718Z" transform="translate(-1088.876 -814.651)" fill="#30262a"/>
            <path id="Path_778" data-name="Path 778" d="M894.479,392.687a7.789,7.789,0,0,1,7.847-4.342c5.625.622,4.955,5.6,7.634,5.131s6.428,0,7.231,3.11,4.419,1.4,4.553,4.043-4.151,4.509-9.106,2.177-7.365,1.812-14.329,1.062-7.827-1.683-11.948-1.217-4.024-2.81-2.149-4.987,9.464-1.97,10.267-4.976" transform="translate(-704.848 -309.962)" fill="#fef4ce" opacity="0.45"/>
            <path id="Path_779" data-name="Path 779" d="M808.2,40.765s2.889-6.452,10.2-5.643,6.44,7.275,9.922,6.669,8.355,0,9.4,4.042,5.744,1.819,5.918,5.255-5.4,5.861-11.836,2.829-9.574,2.355-18.625,1.38S803,53.108,797.645,53.715s-5.23-3.653-2.793-6.482,12.3-2.56,13.346-6.467" transform="translate(-633.218 -27.982)" fill="#fef4ce" opacity="0.45"/>
            <path id="Path_780" data-name="Path 780" d="M1707.563,566.772a17.279,17.279,0,0,0-17.276-8.692c-12.383,1.245-10.908,11.206-16.8,10.272s-14.151,0-15.92,6.226-9.729,2.8-10.024,8.093,9.14,9.027,20.048,4.358,16.215,3.627,31.545,2.125,17.23-3.37,26.3-2.436,8.859-5.626,4.731-9.984-20.835-3.943-22.6-9.961" transform="translate(-1315.175 -445.413)" fill="#ffe99d" opacity="0.448"/>
            <path id="Path_781" data-name="Path 781" d="M1573.137,447.753a8.495,8.495,0,0,0-8.48-4.217c-6.078.6-5.354,5.437-8.249,4.984s-6.946,0-7.815,3.021-4.775,1.359-4.92,3.926,4.486,4.38,9.841,2.114,7.959,1.76,15.484,1.031,8.457-1.635,12.911-1.182,4.349-2.73,2.323-4.844-10.227-1.913-11.1-4.833" transform="translate(-1232.266 -354.021)" fill="#fef4ce" opacity="0.45"/>
            <path id="Path_782" data-name="Path 782" d="M1752.547,268.142a10.132,10.132,0,0,0-10.113-5.029c-7.249.721-6.386,6.484-9.838,5.944s-8.284,0-9.32,3.6-5.7,1.621-5.868,4.683,5.35,5.223,11.736,2.522,9.493,2.1,18.467,1.23,10.087-1.95,15.4-1.41,5.186-3.255,2.77-5.777-12.2-2.282-13.233-5.764" transform="translate(-1364.952 -220.986)" fill="#fef4ce" opacity="0.45"/>
            <path id="Path_784" data-name="Path 784" d="M1407.072,57.987c4.673,1.5,13.819,4.077,13.819,4.077.4-.359-.451-15.638-.451-15.638l5.084.236s4.9,18.626-.153,22.381c-5.183,3.855-17.453-1.347-17.453-1.347s-3.855-10.673-.844-9.709" transform="translate(-1122.306 -37.061)" fill="#ea9a81"/>
            <path id="Path_785" data-name="Path 785" d="M1480.267,127.111a.109.109,0,0,1-.091-.049,7.441,7.441,0,0,1-.629-3.556.111.111,0,0,1,.115-.1.109.109,0,0,1,.1.115,7.394,7.394,0,0,0,.593,3.423.11.11,0,0,1-.091.17" transform="translate(-1181.071 -98.509)" fill="#e47e6a"/>
            <path id="Path_786" data-name="Path 786" d="M1277.129,259.978c.436,1.781,7.77,3.555,16.608,1.541s14.35-2.876,15.179-5.324a31.365,31.365,0,0,0-16.758-1.125c-8.838,2.014-15.465,3.128-15.029,4.908" transform="translate(-1019.477 -203.077)" fill="#322802"/>
            <path id="Path_787" data-name="Path 787" d="M1309.467,110.706c4.489-2.816,3.557-9.36,3.557-9.36a106.149,106.149,0,0,0-12.841-3.292,24.538,24.538,0,0,0-4.722-.612c-16.064.009-18.3,36.251-18.358,36.941a132.419,132.419,0,0,1,31.809-3.479c1.556-12.941.7-19.555.555-20.2" transform="translate(-1019.473 -77.785)" fill="#2b478b"/>
            <path id="Path_788" data-name="Path 788" d="M1403.985,110.718s4.8-5.669,6.245-8.747a53.834,53.834,0,0,0-11.356-3.747Z" transform="translate(-1116.679 -78.409)" fill="#2b478b"/>
            <path id="Path_789" data-name="Path 789" d="M1310.02,97.81s-13.466-1.565-20.429,3.128l8.69,6.772Z" transform="translate(-1029.442 -77.88)" fill="#2b478b"/>
            <path id="Path_790" data-name="Path 790" d="M1295.9,119.645c-.849,1.15-3.541.674-6.012-1.063s-3.787-4.078-2.938-5.228,3.541-.674,6.012,1.063,3.786,4.078,2.938,5.228" transform="translate(-1027.127 -89.987)" fill="#322802"/>
            <path id="Path_791" data-name="Path 791" d="M1206.711,150.3a93.759,93.759,0,0,1,15.124-24.741,27.912,27.912,0,0,1,3.256-3.392c.86-.74.437-3.079-.91-4.547-1.263-1.377-3.7-1.967-4.22-1.637a24.654,24.654,0,0,0-3.783,3.793c-6.169,6.9-10.531,14.678-15.514,27.792Z" transform="translate(-958.453 -92.515)" fill="#ea9a81"/>
            <path id="Path_792" data-name="Path 792" d="M1187.748,270.367a15.9,15.9,0,0,1,2.26-3.058s4.9,1.244,5.04,1.717c.32,1.092.451,3.37.75,4.467.129.476.451,2.1-.018,2.274-.408.151-1.3-1.042-1.649-1.656-1.144,2.994-4.218,6.829-2.3.373l-.011,0c-.257.634-1.79,4.659-2.542,3.971-.664-.607.353-3.675.764-4.722l-.029-.015c-.515,1.027-2.033,3.989-2.477,3.22-.556-.965.839-4.116.839-4.116s-1.14,2.871-1.921,1.83c-.533-.71.588-2.939,1.064-3.921a1.77,1.77,0,0,1,.229-.359" transform="translate(-946.999 -213.386)" fill="#ea9a81"/>
            <path id="Path_793" data-name="Path 793" d="M1373.008,60.04c-1.849.845-5.1-1.259-6.481-2.828,0,0,1.771-.319,2.064-.921a33.317,33.317,0,0,0,1.143-3.406l0-.576,1.507-5.265.374,5.2.093,1.268,0,.064.1,1.322,0,.025.032.441.063.891c.054.725.276.94,1.151,1.117,0,0,1.532,1.952-.044,2.672" transform="translate(-1090.858 -37.555)" fill="#ea9a81"/>
            <path id="Path_794" data-name="Path 794" d="M1342.316,567.044s.057,2.189,1.613,2.806,6.064,1.175,4.38,2.582c-.967.808-5.522.286-6.808.286s-2.494.533-3.45-.286c-1.051-.9,0-5.388,0-5.388a5.33,5.33,0,0,0,2.108.526,4.244,4.244,0,0,0,2.156-.525" transform="translate(-1067.754 -452.655)" fill="#30262a"/>
            <path id="Path_795" data-name="Path 795" d="M1212.859,567.043s.057,2.189,1.614,2.806,6.064,1.175,4.379,2.582c-.966.808-5.521.286-6.807.286s-2.494.533-3.449-.286c-1.052-.9,0-5.388,0-5.388a5.333,5.333,0,0,0,2.108.526,4.245,4.245,0,0,0,2.156-.526" transform="translate(-964.412 -452.655)" fill="#30262a"/>
            <path id="Path_796" data-name="Path 796" d="M1341.28,269.383a1.3,1.3,0,0,1,1.275,1.315,164.935,164.935,0,0,1-2.788,25.453c-2.218,12.689-4.836,25.476-6.12,31.605a4.953,4.953,0,0,1-4.693,3.884l-1.234.047a4.107,4.107,0,0,1-4.316-4.349l3.116-41.472s-5.17-14.4-1.7-15.285c4.9-1.252,13.285-1.25,16.462-1.2" transform="translate(-1056.425 -215.029)" fill="#ed7d2b"/>
            <path id="Path_797" data-name="Path 797" d="M1240.338,269.367l-28.163,59.2c-1.086,2.413-12.025,3.77-9.407-2.651l15.622-53.157c.234-.644,6.236-1.658,6.862-1.838,3.393-.97,15.086-1.556,15.086-1.556" transform="translate(-959.811 -215.029)" fill="#f99746"/>
            <path id="Path_798" data-name="Path 798" d="M1335.936,312.987a.142.142,0,0,1-.133-.194l3.768-9.675a15.4,15.4,0,0,1,4.6-6.509,8.607,8.607,0,0,1,2.637-1.515.142.142,0,0,1,.08.273c-.045.013-4.487,1.392-7.054,7.855l-3.769,9.674a.142.142,0,0,1-.132.091" transform="translate(-1066.324 -235.562)" fill="#020202"/>
            <path id="Path_799" data-name="Path 799" d="M1425.317,41.01l12.522-2.115a1.174,1.174,0,0,0,.96-1.353l-.228-1.355a1.171,1.171,0,0,0-1.349-.963L1424.7,37.339a1.174,1.174,0,0,0-.961,1.353l.228,1.355a1.172,1.172,0,0,0,1.349.963" transform="translate(-1136.516 -28.107)" fill="#a74c3b"/>
            <path id="Path_800" data-name="Path 800" d="M1462.137,31.7l12.085-2.041a1.536,1.536,0,0,0,1.256-1.77l-.509-3.027a1.533,1.533,0,0,0-1.766-1.26l-12.085,2.041a1.536,1.536,0,0,0-1.257,1.77l.509,3.027a1.533,1.533,0,0,0,1.766,1.26" transform="translate(-1165.347 -18.827)" fill="#322802"/>
            <path id="Path_801" data-name="Path 801" d="M1511.434,16.248l19.165-3.236a1.259,1.259,0,0,0,1.03-1.451l-.885-5.263a1.257,1.257,0,0,0-1.448-1.032L1510.132,8.5a1.259,1.259,0,0,0-1.03,1.451l.885,5.263a1.256,1.256,0,0,0,1.447,1.032" transform="translate(-1204.656 -4.19)" fill="#a74c3b"/>
            <path id="Path_802" data-name="Path 802" d="M1612.311,9.24l.952-.161a.965.965,0,0,0,.79-1.112l-1.2-7.157a.963.963,0,0,0-1.109-.791l-.952.161A.965.965,0,0,0,1610,1.291l1.2,7.157a.963.963,0,0,0,1.11.791" transform="translate(-1285.203 -0.005)" fill="#322802"/>
            <path id="Path_803" data-name="Path 803" d="M1477.459,23.324a1.33,1.33,0,0,1,1.786.637c.627,1.513-.038,4-.448,3.047a8.938,8.938,0,0,1-.523-1.8s.467,3.009-.27,2.882-1.14-2.577-1.14-2.577.194,2.876-.464,2.53-.97-2.061-.97-2.061.3,2.325-.458,1.9-.614-2.141-.721-2.883c-.1-.7.318-.994,1-1.043a1.969,1.969,0,0,1,1.1-.364c.174.031.316-.151.437-.183a4.409,4.409,0,0,1,.668-.086" transform="translate(-1176.839 -18.518)" fill="#ea9a81"/>
            <path id="Path_804" data-name="Path 804" d="M1384.5,79.295a5.1,5.1,0,0,1-2.069-1.685h.163l1.81.363Z" transform="translate(-1103.551 -61.955)" fill="#30262a"/>
            <path id="Path_805" data-name="Path 805" d="M1358.962,46.886a5.542,5.542,0,0,1,.083,2.616c-.369,2.632,2.828,3.283,3.5,2.457.083-.1-.686-4.393-.686-4.393l-1.053-.42Z" transform="translate(-1084.818 -37.429)" fill="#30262a"/>
            <path id="Path_806" data-name="Path 806" d="M1376.367,26.522c-.49-3.295-3.161-5.662-5.965-5.287s-4.681,3.349-4.191,6.643,3.161,5.662,5.966,5.288,4.681-3.349,4.191-6.643" transform="translate(-1090.543 -16.921)" fill="#ea9a81"/>
            <path id="Path_807" data-name="Path 807" d="M1366.083,18.7c-.114.2,1.142,3.164-4.72,4.694s-3.3-5.847,1.081-6.591c6.328-1.074,7.86,2.875,7.466,4.422s-3.828-2.525-3.828-2.525" transform="translate(-1084.007 -13.27)" fill="#30262a"/>
            <path id="Path_808" data-name="Path 808" d="M1366.888,44.92s-2.076,2.775-.857,5.166c0,0-1.634-1.283-1.747-1.829a20.349,20.349,0,0,1-.032-2.58Z" transform="translate(-1089.018 -35.859)" fill="#30262a"/>
            <path id="Path_809" data-name="Path 809" d="M1367.743,49.79a1.156,1.156,0,1,0-.551-1.736,1.3,1.3,0,0,0,.551,1.736" transform="translate(-1091.262 -38.024)" fill="#ea9a81"/>
            <path id="Path_810" data-name="Path 810" d="M1388.283,49.88a.113.113,0,0,0,.068-.076.111.111,0,0,0-.085-.134,1.3,1.3,0,0,0-1.448.517.108.108,0,0,0,.027.155.132.132,0,0,0,.163-.026,2.061,2.061,0,0,1,1.2-.43.122.122,0,0,0,.073-.006" transform="translate(-1107.038 -39.608)" fill="#080435"/>
            <path id="Path_811" data-name="Path 811" d="M1406.442,47.952a.118.118,0,0,0,.093-.045.108.108,0,0,0-.026-.155,1.312,1.312,0,0,0-1.547-.047.109.109,0,0,0-.037.153.133.133,0,0,0,.161.035,2.094,2.094,0,0,1,1.285.038.119.119,0,0,0,.07.021" transform="translate(-1121.496 -37.899)" fill="#080435"/>
            <path id="Path_812" data-name="Path 812" d="M1407.047,54.3a.422.422,0,0,0,.211.558.449.449,0,0,0,.492-.363.423.423,0,0,0-.211-.558.449.449,0,0,0-.491.364" transform="translate(-1123.182 -43.052)" fill="#080435"/>
            <path id="Path_813" data-name="Path 813" d="M1394.982,64.318s-.21,1.6-1.446,1.68a1.644,1.644,0,0,1-1.649-1.3,5.286,5.286,0,0,0,3.1-.378" transform="translate(-1111.102 -51.344)" fill="#fff"/>
            <path id="Path_814" data-name="Path 814" d="M1387.01,57.13a.058.058,0,0,1-.029-.109,2.11,2.11,0,0,1,1.493-.23.058.058,0,0,1-.03.113,2.032,2.032,0,0,0-1.4.219.059.059,0,0,1-.029.008" transform="translate(-1107.161 -45.297)" fill="#020202"/>
            <path id="Path_815" data-name="Path 815" d="M1172.085,1005.44h62.508l73.385-60.844a1.727,1.727,0,0,1,2.439.236l14.422,17.639a1.726,1.726,0,0,0,3.022-.712l9.386-41.74h0l.145-.654,5.291-23.528a1.727,1.727,0,0,0-1.69-2.108l-68.5.266a1.727,1.727,0,0,0-1.332,2.818l11.818,14.456a1.723,1.723,0,0,1-.234,2.423Z" transform="translate(-935.64 -713.439)" fill="#fef4ce"/>
          </g>
        </g>
        <g id="Group_5269" data-name="Group 5269" transform="translate(128.187 2101.71)">
          <path id="Path_817" data-name="Path 817" d="M67.557,0c37.31,0,67.557,30.01,67.557,67.029s-30.246,67.029-67.557,67.029S0,104.048,0,67.029,30.246,0,67.557,0Z" transform="translate(0 0)" fill="#ffe99d" opacity="0.246"/>
          <circle id="Ellipse_212" data-name="Ellipse 212" cx="18.473" cy="18.473" r="18.473" transform="translate(258.615 89.724)" fill="#ffe99d" opacity="0.25"/>
        </g>
        <g id="Group_5270" data-name="Group 5270" transform="translate(662.523 2274.969)">
          <ellipse id="Ellipse_213" data-name="Ellipse 213" cx="89.724" cy="88.668" rx="89.724" ry="88.668" transform="translate(0 245.948)" fill="#ffe99d" opacity="0.551"/>
          <circle id="Ellipse_211" data-name="Ellipse 211" cx="7.917" cy="7.917" r="7.917" transform="translate(124.558 166.78)" fill="#ffe99d"/>
          <circle id="Ellipse_214" data-name="Ellipse 214" cx="23.75" cy="23.75" r="23.75" transform="translate(65.446)" fill="#ffe99d" opacity="0.25"/>
          <circle id="Ellipse_215" data-name="Ellipse 215" cx="23.75" cy="23.75" r="23.75" transform="translate(137.225 182.614)" fill="#ffe99d" opacity="0.55"/>
        </g>
      </g>
    </g>
  </g>
</svg>
