<svg xmlns="http://www.w3.org/2000/svg" xmlns:xlink="http://www.w3.org/1999/xlink" width="189.482" height="449.002" viewBox="0 0 189.482 449.002">
  <defs>
    <linearGradient id="linear-gradient" x1="0.686" y1="0.203" x2="0.658" y2="1" gradientUnits="objectBoundingBox">
      <stop offset="0" stop-color="#143c7a"/>
      <stop offset="1" stop-color="#558add"/>
    </linearGradient>
    <linearGradient id="linear-gradient-2" x1="0.03" y1="0.5" x2="1" y2="0.5" gradientUnits="objectBoundingBox">
      <stop offset="0" stop-color="#598ad3"/>
      <stop offset="1" stop-color="#002257"/>
    </linearGradient>
    <linearGradient id="linear-gradient-3" x1="0.754" y1="0.218" x2="0.723" y2="1" xlink:href="#linear-gradient"/>
    <clipPath id="clip-path">
      <rect id="Rectangle_1613" data-name="Rectangle 1613" width="189.482" height="145.74" fill="#fff"/>
    </clipPath>
    <clipPath id="clip-path-2">
      <rect id="Rectangle_293" data-name="Rectangle 293" width="143.092" height="34.96" fill="none"/>
    </clipPath>
    <clipPath id="clip-path-5">
      <path id="Path_291" data-name="Path 291" d="M142.258,17.1c0,9.446-31.848,17.1-71.129,17.1S0,26.549,0,17.1,31.848,0,71.129,0s71.129,7.657,71.129,17.1" fill="none"/>
    </clipPath>
    <radialGradient id="radial-gradient" cx="0.5" cy="0.5" r="0.5" gradientUnits="objectBoundingBox">
      <stop offset="0" stop-color="#0f1c29"/>
      <stop offset="0.113" stop-color="#3f4c58"/>
      <stop offset="0.281" stop-color="#808d9a"/>
      <stop offset="0.423" stop-color="#b0bdc9"/>
      <stop offset="0.53" stop-color="#cddae7"/>
      <stop offset="0.591" stop-color="#d9e6f2"/>
      <stop offset="0.638" stop-color="#e3ecf5"/>
      <stop offset="0.733" stop-color="#f3f7fa"/>
      <stop offset="0.843" stop-color="#fcfdfe"/>
      <stop offset="1" stop-color="#fff"/>
    </radialGradient>
    <linearGradient id="linear-gradient-4" x1="0.463" y1="0.857" x2="0.5" y2="0.5" gradientUnits="objectBoundingBox">
      <stop offset="0" stop-color="#143c7a"/>
      <stop offset="1" stop-color="#558add" stop-opacity="0"/>
    </linearGradient>
    <filter id="Ellipse_222" x="49" y="0" width="91" height="91" filterUnits="userSpaceOnUse">
      <feOffset dy="3" input="SourceAlpha"/>
      <feGaussianBlur stdDeviation="3" result="blur"/>
      <feFlood flood-opacity="0.161"/>
      <feComposite operator="in" in2="blur"/>
      <feComposite in="SourceGraphic"/>
    </filter>
  </defs>
  <g id="Group_6639" data-name="Group 6639" transform="translate(-591 -215)">
    <path id="Path_821" data-name="Path 821" d="M7036.953-3792.632h182.328l-.826-269.911-89.309-48.652-93.306,48.652Z" transform="translate(-6443.356 4456.574)" fill="url(#linear-gradient)"/>
    <g id="Group_6638" data-name="Group 6638">
      <path id="Path_820" data-name="Path 820" d="M7034.923-4020.549l93.336-48.583,89.228,48.6-89.658,48.636Z" transform="translate(-6442.395 4414.559)" fill="url(#linear-gradient-2)"/>
      <line id="Line_36" data-name="Line 36" y1="221.337" x2="0.813" transform="translate(684.42 442.663)" fill="none" stroke="#5f94e6" stroke-width="1"/>
      <path id="Path_827" data-name="Path 827" d="M-20.248-10.8l-92.8-48.979" transform="translate(705.557 453.841)" fill="none" stroke="#5f94e6" stroke-width="1"/>
      <path id="Path_828" data-name="Path 828" d="M-113.045-10.74l89.984-48.725" transform="translate(798.354 453.782)" fill="none" stroke="#5f94e6" stroke-width="1"/>
      <path id="Path_834" data-name="Path 834" d="M6920.326-3383.4l27.85-220.245-.915,220.245Z" transform="translate(-6263.058 4047.199)" opacity="0.603" fill="url(#linear-gradient-3)"/>
      <g id="Group_1688" data-name="Group 1688" transform="translate(591 235.329)" clip-path="url(#clip-path)">
        <path id="Path_863" data-name="Path 863" d="M179.747,36.878H9.735A9.735,9.735,0,0,0,0,46.613v83.549A9.735,9.735,0,0,0,9.735,139.9h64.2a9.735,9.735,0,0,1,6.884,2.851l7.036,7.036a9.735,9.735,0,0,0,13.767,0l7.036-7.036a9.735,9.735,0,0,1,6.884-2.851h64.2a9.735,9.735,0,0,0,9.735-9.735V46.613a9.735,9.735,0,0,0-9.735-9.735" transform="translate(0 -6.895)" fill="#fff"/>
      </g>
      <g id="Group_1695" data-name="Group 1695" transform="translate(613.46 381.069)" opacity="0.648" style="mix-blend-mode: multiply;isolation: isolate">
        <g id="Group_682" data-name="Group 682" transform="translate(0 0)" clip-path="url(#clip-path-2)">
          <g id="Group_681" data-name="Group 681">
            <g id="Group_680" data-name="Group 680" clip-path="url(#clip-path-2)">
              <g id="Group_679" data-name="Group 679" style="mix-blend-mode: multiply;isolation: isolate">
                <g id="Group_678" data-name="Group 678">
                  <g id="Group_677" data-name="Group 677" clip-path="url(#clip-path-2)">
                    <g id="Group_676" data-name="Group 676" transform="translate(0.417 -0.085)">
                      <g id="Group_675" data-name="Group 675" clip-path="url(#clip-path-5)">
                        <rect id="Rectangle_290" data-name="Rectangle 290" width="143.092" height="34.96" transform="translate(-0.417 0.085)" fill="url(#radial-gradient)"/>
                      </g>
                    </g>
                  </g>
                </g>
              </g>
            </g>
          </g>
        </g>
      </g>
      <path id="Path_1571" data-name="Path 1571" d="M7036.953-3792.632h182.328l-.826-269.911-89.309-48.652-93.306,48.652Z" transform="translate(-6443.356 4456.574)" fill="url(#linear-gradient-4)" style="mix-blend-mode: multiply;isolation: isolate"/>
      <g id="Group_6634" data-name="Group 6634">
        <g transform="matrix(1, 0, 0, 1, 591, 215)" filter="url(#Ellipse_222)">
          <circle id="Ellipse_222-2" data-name="Ellipse 222" cx="36.5" cy="36.5" r="36.5" transform="translate(58 6)" fill="#fbd960"/>
        </g>
        <text id="_1" data-name="1" transform="translate(687 275)" fill="#9f4b04" font-size="44" font-family="Poppins-Bold, Poppins" font-weight="700"><tspan x="-7" y="0">1</tspan></text>
        <g id="Ellipse_225" data-name="Ellipse 225" transform="translate(654 226)" fill="none" stroke="#fff9af" stroke-width="2">
          <circle cx="32" cy="32" r="32" stroke="none"/>
          <circle cx="32" cy="32" r="31" fill="none"/>
        </g>
      </g>
    </g>
  </g>
</svg>
