<svg xmlns="http://www.w3.org/2000/svg" xmlns:xlink="http://www.w3.org/1999/xlink" width="202.646" height="368.943" viewBox="0 0 202.646 368.943">
  <defs>
    <linearGradient id="linear-gradient" x1="0.754" y1="0.218" x2="0.723" y2="1" gradientUnits="objectBoundingBox">
      <stop offset="0" stop-color="#143c7a"/>
      <stop offset="1" stop-color="#558add"/>
    </linearGradient>
    <linearGradient id="linear-gradient-2" x1="0.03" y1="0.5" x2="1" y2="0.5" gradientUnits="objectBoundingBox">
      <stop offset="0" stop-color="#598ad3"/>
      <stop offset="1" stop-color="#002257"/>
    </linearGradient>
    <clipPath id="clip-path">
      <rect id="Rectangle_1618" data-name="Rectangle 1618" width="189.482" height="145.74" fill="#fff"/>
    </clipPath>
    <clipPath id="clip-path-2">
      <rect id="Rectangle_293" data-name="Rectangle 293" width="143.092" height="34.96" fill="none"/>
    </clipPath>
    <clipPath id="clip-path-5">
      <path id="Path_291" data-name="Path 291" d="M142.258,17.1c0,9.446-31.848,17.1-71.129,17.1S0,26.549,0,17.1,31.848,0,71.129,0s71.129,7.657,71.129,17.1" fill="none"/>
    </clipPath>
    <radialGradient id="radial-gradient" cx="0.5" cy="0.5" r="0.5" gradientUnits="objectBoundingBox">
      <stop offset="0" stop-color="#0f1c29"/>
      <stop offset="0.113" stop-color="#3f4c58"/>
      <stop offset="0.281" stop-color="#808d9a"/>
      <stop offset="0.423" stop-color="#b0bdc9"/>
      <stop offset="0.53" stop-color="#cddae7"/>
      <stop offset="0.591" stop-color="#d9e6f2"/>
      <stop offset="0.638" stop-color="#e3ecf5"/>
      <stop offset="0.733" stop-color="#f3f7fa"/>
      <stop offset="0.843" stop-color="#fcfdfe"/>
      <stop offset="1" stop-color="#fff"/>
    </radialGradient>
    <linearGradient id="linear-gradient-4" x1="0.463" y1="0.857" x2="0.5" y2="0.5" gradientUnits="objectBoundingBox">
      <stop offset="0" stop-color="#143c7a"/>
      <stop offset="1" stop-color="#558add" stop-opacity="0"/>
    </linearGradient>
    <filter id="Ellipse_221" x="49" y="0" width="92" height="91" filterUnits="userSpaceOnUse">
      <feOffset dy="3" input="SourceAlpha"/>
      <feGaussianBlur stdDeviation="3" result="blur"/>
      <feFlood flood-opacity="0.161"/>
      <feComposite operator="in" in2="blur"/>
      <feComposite in="SourceGraphic"/>
    </filter>
  </defs>
  <g id="Group_6640" data-name="Group 6640" transform="translate(-373 -295)">
    <path id="Path_819" data-name="Path 819" d="M6972.362-3837.94l-19.536-177.851,94.57-57.361,86.39,39.125,21.031,196.087Z" transform="translate(-6579.172 4501.883)" fill="url(#linear-gradient)"/>
    <path id="Path_818" data-name="Path 818" d="M6951.96-3981.8l94.188,36.9,86.656-55.161-86.237-39.142Z" transform="translate(-6578.235 4467.937)" fill="url(#linear-gradient-2)"/>
    <path id="Path_825" data-name="Path 825" d="M21.922,139.57,4.508-.47" transform="translate(463.396 523.435)" fill="none" stroke="#5f94e6" stroke-width="1"/>
    <path id="Path_831" data-name="Path 831" d="M-18.824-22.543l-94.221-37.235" transform="translate(486.769 545.753)" fill="none" stroke="#5f94e6" stroke-width="1"/>
    <path id="Path_832" data-name="Path 832" d="M-111.132-26.637l86.3-55.072" transform="translate(579.208 549.853)" fill="none" stroke="#5f94e6" stroke-width="1"/>
    <path id="Path_833" data-name="Path 833" d="M6928.567-3365.022l3.573-140.331,16.661,140.331Z" transform="translate(-6464.421 4028.82)" opacity="0.445" fill="url(#linear-gradient)"/>
    <g id="Group_1699" data-name="Group 1699" transform="translate(373 314.98)" clip-path="url(#clip-path)">
      <path id="Path_914" data-name="Path 914" d="M179.747,36.878H9.735A9.735,9.735,0,0,0,0,46.613v83.549A9.735,9.735,0,0,0,9.735,139.9h64.2a9.735,9.735,0,0,1,6.884,2.851l7.036,7.036a9.735,9.735,0,0,0,13.767,0l7.036-7.036a9.735,9.735,0,0,1,6.884-2.851h64.2a9.735,9.735,0,0,0,9.735-9.735V46.613a9.735,9.735,0,0,0-9.735-9.735" transform="translate(0 -6.895)" fill="#fff"/>
    </g>
    <g id="Group_1698" data-name="Group 1698" transform="translate(396.055 460.72)" opacity="0.648" style="mix-blend-mode: multiply;isolation: isolate">
      <g id="Group_682" data-name="Group 682" transform="translate(0 0)" clip-path="url(#clip-path-2)">
        <g id="Group_681" data-name="Group 681">
          <g id="Group_680" data-name="Group 680" clip-path="url(#clip-path-2)">
            <g id="Group_679" data-name="Group 679" style="mix-blend-mode: multiply;isolation: isolate">
              <g id="Group_678" data-name="Group 678">
                <g id="Group_677" data-name="Group 677" clip-path="url(#clip-path-2)">
                  <g id="Group_676" data-name="Group 676" transform="translate(0.417 -0.085)">
                    <g id="Group_675" data-name="Group 675" clip-path="url(#clip-path-5)">
                      <rect id="Rectangle_290" data-name="Rectangle 290" width="143.092" height="34.96" transform="translate(-0.417 0.085)" fill="url(#radial-gradient)"/>
                    </g>
                  </g>
                </g>
              </g>
            </g>
          </g>
        </g>
      </g>
    </g>
    <path id="Path_1325" data-name="Path 1325" d="M6972.362-3837.94l-19.536-177.851,94.57-57.361,86.39,39.125,21.031,196.087Z" transform="translate(-6579.172 4501.883)" fill="url(#linear-gradient-4)" style="mix-blend-mode: multiply;isolation: isolate"/>
    <g id="Group_6633" data-name="Group 6633">
      <g transform="matrix(1, 0, 0, 1, 373, 295)" filter="url(#Ellipse_221)">
        <ellipse id="Ellipse_221-2" data-name="Ellipse 221" cx="37" cy="36.5" rx="37" ry="36.5" transform="translate(58 6)" fill="#fbd960"/>
      </g>
      <text id="_2" data-name="2" transform="translate(469 354)" fill="#9f4b04" font-size="44" font-family="Poppins-Bold, Poppins" font-weight="700"><tspan x="-12" y="0">2</tspan></text>
      <g id="Ellipse_226" data-name="Ellipse 226" transform="translate(436 306)" fill="none" stroke="#fff9af" stroke-width="2">
        <ellipse cx="32" cy="31.5" rx="32" ry="31.5" stroke="none"/>
        <ellipse cx="32" cy="31.5" rx="31" ry="30.5" fill="none"/>
      </g>
    </g>
  </g>
</svg>
