<svg xmlns="http://www.w3.org/2000/svg" xmlns:xlink="http://www.w3.org/1999/xlink" width="41.114" height="44.4" viewBox="0 0 41.114 44.4">
  <defs>
    <clipPath id="clip-path">
      <rect id="Rectangle_303" data-name="Rectangle 303" width="41.114" height="32.019" fill="none"/>
    </clipPath>
  </defs>
  <g id="Group_692" data-name="Group 692" transform="translate(-29.986 -1313.532)">
    <g id="Group_689" data-name="Group 689" transform="translate(29.986 1325.913)">
      <g id="Group_687" data-name="Group 687" clip-path="url(#clip-path)">
        <path id="Path_295" data-name="Path 295" d="M5.371,24.893Q10.113,31.363,14.337,38A229.985,229.985,0,0,1,45.569,21.408q-3.875-7.157-8.281-14.2A242.037,242.037,0,0,0,5.371,24.893" transform="translate(-4.455 -5.98)" fill="#2c7336"/>
        <path id="Path_296" data-name="Path 296" d="M0,24.965q4.628,6.547,8.746,13.252A229.827,229.827,0,0,1,40.275,22.15Q36.549,14.936,32.3,7.829A242.2,242.2,0,0,0,0,24.965" transform="translate(0 -6.494)" fill="#34873f"/>
        <path id="Path_297" data-name="Path 297" d="M43.963,14.314A231.08,231.08,0,0,0,12.323,30.438Q8.163,23.745,3.489,17.2A243.41,243.41,0,0,1,35.883,0q4.3,7.1,8.08,14.314" transform="translate(-2.894)" fill="#50b460"/>
        <path id="Path_298" data-name="Path 298" d="M21.654,36.392q-2.948-4.657-6.146-9.24a1.588,1.588,0,0,0,.486-2.279A242.783,242.783,0,0,1,43.878,10.09a2.058,2.058,0,0,0,2.532.755Q49.358,15.8,52.052,20.8a1.551,1.551,0,0,0-.8,2.19A231.615,231.615,0,0,0,23.956,36.936a1.684,1.684,0,0,0-2.3-.544" transform="translate(-12.863 -8.369)" fill="#82c777"/>
        <path id="Path_299" data-name="Path 299" d="M54.026,167.5q.232.368.461.737l.746-.452a.884.884,0,0,0-1.208-.285" transform="translate(-44.813 -138.827)" fill="#389244"/>
        <path id="Path_300" data-name="Path 300" d="M10.661,99.249l-.762.476.51.723a.834.834,0,0,0,.253-1.2" transform="translate(-8.211 -82.323)" fill="#389244"/>
        <path id="Path_301" data-name="Path 301" d="M229.395,77.071q.212.4.421.792l-.845.359a.816.816,0,0,1,.424-1.151" transform="translate(-189.84 -63.928)" fill="#389244"/>
        <path id="Path_302" data-name="Path 302" d="M186.349,6.214l.863-.383.471.781a1.083,1.083,0,0,1-1.334-.4" transform="translate(-154.57 -4.837)" fill="#389244"/>
        <path id="Path_303" data-name="Path 303" d="M96.957,57.833a5.352,5.352,0,0,1-2.31,7.566,6.26,6.26,0,0,1-8.086-2.153,5.3,5.3,0,0,1,2.066-7.637,6.387,6.387,0,0,1,8.33,2.223" transform="translate(-71.085 -45.53)" fill="#389244"/>
        <path id="Path_304" data-name="Path 304" d="M29,40.553a2.463,2.463,0,0,0-2.147-.507q-2.622-4.133-5.441-8.208a2.289,2.289,0,0,0,.46-2.116A242.221,242.221,0,0,1,48.566,15.6a3.05,3.05,0,0,0,2.345.7q2.607,4.386,5.014,8.818a2.213,2.213,0,0,0-.737,2.038A232.213,232.213,0,0,0,29,40.553Z" transform="translate(-17.764 -12.938)" fill="none" stroke="#389244" stroke-width="2"/>
        <path id="Path_305" data-name="Path 305" d="M57.036,112.94a1.261,1.261,0,0,1-.444,1.784,1.4,1.4,0,0,1-1.87-.433,1.258,1.258,0,0,1,.431-1.788,1.412,1.412,0,0,1,1.883.436" transform="translate(-45.217 -93.159)" fill="#389244"/>
        <path id="Path_306" data-name="Path 306" d="M176.6,50.691a1.221,1.221,0,0,1-.587,1.745,1.534,1.534,0,0,1-1.933-.585,1.218,1.218,0,0,1,.574-1.749,1.54,1.54,0,0,1,1.946.589" transform="translate(-144.248 -41.444)" fill="#389244"/>
        <path id="Path_307" data-name="Path 307" d="M99.035,61.653q.676-.351,1.355-.7.045-.476.089-.952Q98,61.267,95.566,62.579l-.073.954.837-.451a3.345,3.345,0,0,1,1.592-.405,2.274,2.274,0,0,1,.73.109q-1.108.58-2.206,1.17-.038.477-.077.953,1.455-.784,2.927-1.552a1.327,1.327,0,0,1-.354,1.615,6.9,6.9,0,0,1-1.774,1.2l.412.663q1.814.558,3.616,1.141a3.543,3.543,0,0,0,2.677-.2q-2.526-.817-5.078-1.584c-.006,0,2.439-1.574,1.581-3.4l.879-.45.093-.952q-.724.367-1.443.739a1.9,1.9,0,0,0-.87-.481" transform="translate(-79.208 -49.769)" fill="#225929"/>
      </g>
    </g>
    <g id="Group_688" data-name="Group 688" transform="translate(29.986 1322.532)">
      <g id="Group_687-2" data-name="Group 687" clip-path="url(#clip-path)">
        <path id="Path_295-2" data-name="Path 295" d="M5.371,24.893Q10.113,31.363,14.337,38A229.985,229.985,0,0,1,45.569,21.408q-3.875-7.157-8.281-14.2A242.037,242.037,0,0,0,5.371,24.893" transform="translate(-4.455 -5.98)" fill="#2c7336"/>
        <path id="Path_296-2" data-name="Path 296" d="M0,24.965q4.628,6.547,8.746,13.252A229.827,229.827,0,0,1,40.275,22.15Q36.549,14.936,32.3,7.829A242.2,242.2,0,0,0,0,24.965" transform="translate(0 -6.494)" fill="#34873f"/>
        <path id="Path_297-2" data-name="Path 297" d="M43.963,14.314A231.08,231.08,0,0,0,12.323,30.438Q8.163,23.745,3.489,17.2A243.41,243.41,0,0,1,35.883,0q4.3,7.1,8.08,14.314" transform="translate(-2.894)" fill="#50b460"/>
        <path id="Path_298-2" data-name="Path 298" d="M21.654,36.392q-2.948-4.657-6.146-9.24a1.588,1.588,0,0,0,.486-2.279A242.783,242.783,0,0,1,43.878,10.09a2.058,2.058,0,0,0,2.532.755Q49.358,15.8,52.052,20.8a1.551,1.551,0,0,0-.8,2.19A231.615,231.615,0,0,0,23.956,36.936a1.684,1.684,0,0,0-2.3-.544" transform="translate(-12.863 -8.369)" fill="#82c777"/>
        <path id="Path_299-2" data-name="Path 299" d="M54.026,167.5q.232.368.461.737l.746-.452a.884.884,0,0,0-1.208-.285" transform="translate(-44.813 -138.827)" fill="#389244"/>
        <path id="Path_300-2" data-name="Path 300" d="M10.661,99.249l-.762.476.51.723a.834.834,0,0,0,.253-1.2" transform="translate(-8.211 -82.323)" fill="#389244"/>
        <path id="Path_301-2" data-name="Path 301" d="M229.395,77.071q.212.4.421.792l-.845.359a.816.816,0,0,1,.424-1.151" transform="translate(-189.84 -63.928)" fill="#389244"/>
        <path id="Path_302-2" data-name="Path 302" d="M186.349,6.214l.863-.383.471.781a1.083,1.083,0,0,1-1.334-.4" transform="translate(-154.57 -4.837)" fill="#389244"/>
        <path id="Path_303-2" data-name="Path 303" d="M96.957,57.833a5.352,5.352,0,0,1-2.31,7.566,6.26,6.26,0,0,1-8.086-2.153,5.3,5.3,0,0,1,2.066-7.637,6.387,6.387,0,0,1,8.33,2.223" transform="translate(-71.085 -45.53)" fill="#389244"/>
        <path id="Path_304-2" data-name="Path 304" d="M29,40.553a2.463,2.463,0,0,0-2.147-.507q-2.622-4.133-5.441-8.208a2.289,2.289,0,0,0,.46-2.116A242.221,242.221,0,0,1,48.566,15.6a3.05,3.05,0,0,0,2.345.7q2.607,4.386,5.014,8.818a2.213,2.213,0,0,0-.737,2.038A232.213,232.213,0,0,0,29,40.553Z" transform="translate(-17.764 -12.938)" fill="none" stroke="#389244" stroke-width="2"/>
        <path id="Path_305-2" data-name="Path 305" d="M57.036,112.94a1.261,1.261,0,0,1-.444,1.784,1.4,1.4,0,0,1-1.87-.433,1.258,1.258,0,0,1,.431-1.788,1.412,1.412,0,0,1,1.883.436" transform="translate(-45.217 -93.159)" fill="#389244"/>
        <path id="Path_306-2" data-name="Path 306" d="M176.6,50.691a1.221,1.221,0,0,1-.587,1.745,1.534,1.534,0,0,1-1.933-.585,1.218,1.218,0,0,1,.574-1.749,1.54,1.54,0,0,1,1.946.589" transform="translate(-144.248 -41.444)" fill="#389244"/>
        <path id="Path_307-2" data-name="Path 307" d="M99.035,61.653q.676-.351,1.355-.7.045-.476.089-.952Q98,61.267,95.566,62.579l-.073.954.837-.451a3.345,3.345,0,0,1,1.592-.405,2.274,2.274,0,0,1,.73.109q-1.108.58-2.206,1.17-.038.477-.077.953,1.455-.784,2.927-1.552a1.327,1.327,0,0,1-.354,1.615,6.9,6.9,0,0,1-1.774,1.2l.412.663q1.814.558,3.616,1.141a3.543,3.543,0,0,0,2.677-.2q-2.526-.817-5.078-1.584c-.006,0,2.439-1.574,1.581-3.4l.879-.45.093-.952q-.724.367-1.443.739a1.9,1.9,0,0,0-.87-.481" transform="translate(-79.208 -49.769)" fill="#225929"/>
      </g>
    </g>
    <g id="Group_691" data-name="Group 691" transform="translate(-1003.235 301.474)">
      <g id="Group_690" data-name="Group 690" transform="translate(1033.221 1017.975)">
        <g id="Group_687-3" data-name="Group 687" clip-path="url(#clip-path)">
          <path id="Path_295-3" data-name="Path 295" d="M5.371,24.893Q10.113,31.363,14.337,38A229.985,229.985,0,0,1,45.569,21.408q-3.875-7.157-8.281-14.2A242.037,242.037,0,0,0,5.371,24.893" transform="translate(-4.455 -5.98)" fill="#2c7336"/>
          <path id="Path_296-3" data-name="Path 296" d="M0,24.965q4.628,6.547,8.746,13.252A229.827,229.827,0,0,1,40.275,22.15Q36.549,14.936,32.3,7.829A242.2,242.2,0,0,0,0,24.965" transform="translate(0 -6.494)" fill="#34873f"/>
          <path id="Path_297-3" data-name="Path 297" d="M43.963,14.314A231.08,231.08,0,0,0,12.323,30.438Q8.163,23.745,3.489,17.2A243.41,243.41,0,0,1,35.883,0q4.3,7.1,8.08,14.314" transform="translate(-2.894)" fill="#50b460"/>
          <path id="Path_298-3" data-name="Path 298" d="M21.654,36.392q-2.948-4.657-6.146-9.24a1.588,1.588,0,0,0,.486-2.279A242.783,242.783,0,0,1,43.878,10.09a2.058,2.058,0,0,0,2.532.755Q49.358,15.8,52.052,20.8a1.551,1.551,0,0,0-.8,2.19A231.615,231.615,0,0,0,23.956,36.936a1.684,1.684,0,0,0-2.3-.544" transform="translate(-12.863 -8.369)" fill="#82c777"/>
          <path id="Path_299-3" data-name="Path 299" d="M54.026,167.5q.232.368.461.737l.746-.452a.884.884,0,0,0-1.208-.285" transform="translate(-44.813 -138.827)" fill="#389244"/>
          <path id="Path_300-3" data-name="Path 300" d="M10.661,99.249l-.762.476.51.723a.834.834,0,0,0,.253-1.2" transform="translate(-8.211 -82.323)" fill="#389244"/>
          <path id="Path_301-3" data-name="Path 301" d="M229.395,77.071q.212.4.421.792l-.845.359a.816.816,0,0,1,.424-1.151" transform="translate(-189.84 -63.928)" fill="#389244"/>
          <path id="Path_302-3" data-name="Path 302" d="M186.349,6.214l.863-.383.471.781a1.083,1.083,0,0,1-1.334-.4" transform="translate(-154.57 -4.837)" fill="#389244"/>
          <path id="Path_303-3" data-name="Path 303" d="M96.957,57.833a5.352,5.352,0,0,1-2.31,7.566,6.26,6.26,0,0,1-8.086-2.153,5.3,5.3,0,0,1,2.066-7.637,6.387,6.387,0,0,1,8.33,2.223" transform="translate(-71.085 -45.53)" fill="#389244"/>
          <path id="Path_304-3" data-name="Path 304" d="M29,40.553a2.463,2.463,0,0,0-2.147-.507q-2.622-4.133-5.441-8.208a2.289,2.289,0,0,0,.46-2.116A242.221,242.221,0,0,1,48.566,15.6a3.05,3.05,0,0,0,2.345.7q2.607,4.386,5.014,8.818a2.213,2.213,0,0,0-.737,2.038A232.213,232.213,0,0,0,29,40.553Z" transform="translate(-17.764 -12.938)" fill="none" stroke="#389244" stroke-width="2"/>
          <path id="Path_305-3" data-name="Path 305" d="M57.036,112.94a1.261,1.261,0,0,1-.444,1.784,1.4,1.4,0,0,1-1.87-.433,1.258,1.258,0,0,1,.431-1.788,1.412,1.412,0,0,1,1.883.436" transform="translate(-45.217 -93.159)" fill="#389244"/>
          <path id="Path_306-3" data-name="Path 306" d="M176.6,50.691a1.221,1.221,0,0,1-.587,1.745,1.534,1.534,0,0,1-1.933-.585,1.218,1.218,0,0,1,.574-1.749,1.54,1.54,0,0,1,1.946.589" transform="translate(-144.248 -41.444)" fill="#389244"/>
          <path id="Path_307-3" data-name="Path 307" d="M99.035,61.653q.676-.351,1.355-.7.045-.476.089-.952Q98,61.267,95.566,62.579l-.073.954.837-.451a3.345,3.345,0,0,1,1.592-.405,2.274,2.274,0,0,1,.73.109q-1.108.58-2.206,1.17-.038.477-.077.953,1.455-.784,2.927-1.552a1.327,1.327,0,0,1-.354,1.615,6.9,6.9,0,0,1-1.774,1.2l.412.663q1.814.558,3.616,1.141a3.543,3.543,0,0,0,2.677-.2q-2.526-.817-5.078-1.584c-.006,0,2.439-1.574,1.581-3.4l.879-.45.093-.952q-.724.367-1.443.739a1.9,1.9,0,0,0-.87-.481" transform="translate(-79.208 -49.769)" fill="#225929"/>
        </g>
      </g>
      <g id="Group_689-2" data-name="Group 689" transform="translate(1033.221 1015.439)">
        <g id="Group_687-4" data-name="Group 687" clip-path="url(#clip-path)">
          <path id="Path_295-4" data-name="Path 295" d="M5.371,24.893Q10.113,31.363,14.337,38A229.985,229.985,0,0,1,45.569,21.408q-3.875-7.157-8.281-14.2A242.037,242.037,0,0,0,5.371,24.893" transform="translate(-4.455 -5.98)" fill="#2c7336"/>
          <path id="Path_296-4" data-name="Path 296" d="M0,24.965q4.628,6.547,8.746,13.252A229.827,229.827,0,0,1,40.275,22.15Q36.549,14.936,32.3,7.829A242.2,242.2,0,0,0,0,24.965" transform="translate(0 -6.494)" fill="#34873f"/>
          <path id="Path_297-4" data-name="Path 297" d="M43.963,14.314A231.08,231.08,0,0,0,12.323,30.438Q8.163,23.745,3.489,17.2A243.41,243.41,0,0,1,35.883,0q4.3,7.1,8.08,14.314" transform="translate(-2.894)" fill="#50b460"/>
          <path id="Path_298-4" data-name="Path 298" d="M21.654,36.392q-2.948-4.657-6.146-9.24a1.588,1.588,0,0,0,.486-2.279A242.783,242.783,0,0,1,43.878,10.09a2.058,2.058,0,0,0,2.532.755Q49.358,15.8,52.052,20.8a1.551,1.551,0,0,0-.8,2.19A231.615,231.615,0,0,0,23.956,36.936a1.684,1.684,0,0,0-2.3-.544" transform="translate(-12.863 -8.369)" fill="#82c777"/>
          <path id="Path_299-4" data-name="Path 299" d="M54.026,167.5q.232.368.461.737l.746-.452a.884.884,0,0,0-1.208-.285" transform="translate(-44.813 -138.827)" fill="#389244"/>
          <path id="Path_300-4" data-name="Path 300" d="M10.661,99.249l-.762.476.51.723a.834.834,0,0,0,.253-1.2" transform="translate(-8.211 -82.323)" fill="#389244"/>
          <path id="Path_301-4" data-name="Path 301" d="M229.395,77.071q.212.4.421.792l-.845.359a.816.816,0,0,1,.424-1.151" transform="translate(-189.84 -63.928)" fill="#389244"/>
          <path id="Path_302-4" data-name="Path 302" d="M186.349,6.214l.863-.383.471.781a1.083,1.083,0,0,1-1.334-.4" transform="translate(-154.57 -4.837)" fill="#389244"/>
          <path id="Path_303-4" data-name="Path 303" d="M96.957,57.833a5.352,5.352,0,0,1-2.31,7.566,6.26,6.26,0,0,1-8.086-2.153,5.3,5.3,0,0,1,2.066-7.637,6.387,6.387,0,0,1,8.33,2.223" transform="translate(-71.085 -45.53)" fill="#389244"/>
          <path id="Path_304-4" data-name="Path 304" d="M29,40.553a2.463,2.463,0,0,0-2.147-.507q-2.622-4.133-5.441-8.208a2.289,2.289,0,0,0,.46-2.116A242.221,242.221,0,0,1,48.566,15.6a3.05,3.05,0,0,0,2.345.7q2.607,4.386,5.014,8.818a2.213,2.213,0,0,0-.737,2.038A232.213,232.213,0,0,0,29,40.553Z" transform="translate(-17.764 -12.938)" fill="none" stroke="#389244" stroke-width="2"/>
          <path id="Path_305-4" data-name="Path 305" d="M57.036,112.94a1.261,1.261,0,0,1-.444,1.784,1.4,1.4,0,0,1-1.87-.433,1.258,1.258,0,0,1,.431-1.788,1.412,1.412,0,0,1,1.883.436" transform="translate(-45.217 -93.159)" fill="#389244"/>
          <path id="Path_306-4" data-name="Path 306" d="M176.6,50.691a1.221,1.221,0,0,1-.587,1.745,1.534,1.534,0,0,1-1.933-.585,1.218,1.218,0,0,1,.574-1.749,1.54,1.54,0,0,1,1.946.589" transform="translate(-144.248 -41.444)" fill="#389244"/>
          <path id="Path_307-4" data-name="Path 307" d="M99.035,61.653q.676-.351,1.355-.7.045-.476.089-.952Q98,61.267,95.566,62.579l-.073.954.837-.451a3.345,3.345,0,0,1,1.592-.405,2.274,2.274,0,0,1,.73.109q-1.108.58-2.206,1.17-.038.477-.077.953,1.455-.784,2.927-1.552a1.327,1.327,0,0,1-.354,1.615,6.9,6.9,0,0,1-1.774,1.2l.412.663q1.814.558,3.616,1.141a3.543,3.543,0,0,0,2.677-.2q-2.526-.817-5.078-1.584c-.006,0,2.439-1.574,1.581-3.4l.879-.45.093-.952q-.724.367-1.443.739a1.9,1.9,0,0,0-.87-.481" transform="translate(-79.208 -49.769)" fill="#225929"/>
        </g>
      </g>
      <g id="Group_688-2" data-name="Group 688" transform="translate(1033.221 1012.059)">
        <g id="Group_687-5" data-name="Group 687" clip-path="url(#clip-path)">
          <path id="Path_295-5" data-name="Path 295" d="M5.371,24.893Q10.113,31.363,14.337,38A229.985,229.985,0,0,1,45.569,21.408q-3.875-7.157-8.281-14.2A242.037,242.037,0,0,0,5.371,24.893" transform="translate(-4.455 -5.98)" fill="#2c7336"/>
          <path id="Path_296-5" data-name="Path 296" d="M0,24.965q4.628,6.547,8.746,13.252A229.827,229.827,0,0,1,40.275,22.15Q36.549,14.936,32.3,7.829A242.2,242.2,0,0,0,0,24.965" transform="translate(0 -6.494)" fill="#34873f"/>
          <path id="Path_297-5" data-name="Path 297" d="M43.963,14.314A231.08,231.08,0,0,0,12.323,30.438Q8.163,23.745,3.489,17.2A243.41,243.41,0,0,1,35.883,0q4.3,7.1,8.08,14.314" transform="translate(-2.894)" fill="#50b460"/>
          <path id="Path_298-5" data-name="Path 298" d="M21.654,36.392q-2.948-4.657-6.146-9.24a1.588,1.588,0,0,0,.486-2.279A242.783,242.783,0,0,1,43.878,10.09a2.058,2.058,0,0,0,2.532.755Q49.358,15.8,52.052,20.8a1.551,1.551,0,0,0-.8,2.19A231.615,231.615,0,0,0,23.956,36.936a1.684,1.684,0,0,0-2.3-.544" transform="translate(-12.863 -8.369)" fill="#82c777"/>
          <path id="Path_299-5" data-name="Path 299" d="M54.026,167.5q.232.368.461.737l.746-.452a.884.884,0,0,0-1.208-.285" transform="translate(-44.813 -138.827)" fill="#389244"/>
          <path id="Path_300-5" data-name="Path 300" d="M10.661,99.249l-.762.476.51.723a.834.834,0,0,0,.253-1.2" transform="translate(-8.211 -82.323)" fill="#389244"/>
          <path id="Path_301-5" data-name="Path 301" d="M229.395,77.071q.212.4.421.792l-.845.359a.816.816,0,0,1,.424-1.151" transform="translate(-189.84 -63.928)" fill="#389244"/>
          <path id="Path_302-5" data-name="Path 302" d="M186.349,6.214l.863-.383.471.781a1.083,1.083,0,0,1-1.334-.4" transform="translate(-154.57 -4.837)" fill="#389244"/>
          <path id="Path_303-5" data-name="Path 303" d="M96.957,57.833a5.352,5.352,0,0,1-2.31,7.566,6.26,6.26,0,0,1-8.086-2.153,5.3,5.3,0,0,1,2.066-7.637,6.387,6.387,0,0,1,8.33,2.223" transform="translate(-71.085 -45.53)" fill="#389244"/>
          <path id="Path_304-5" data-name="Path 304" d="M29,40.553a2.463,2.463,0,0,0-2.147-.507q-2.622-4.133-5.441-8.208a2.289,2.289,0,0,0,.46-2.116A242.221,242.221,0,0,1,48.566,15.6a3.05,3.05,0,0,0,2.345.7q2.607,4.386,5.014,8.818a2.213,2.213,0,0,0-.737,2.038A232.213,232.213,0,0,0,29,40.553Z" transform="translate(-17.764 -12.938)" fill="none" stroke="#389244" stroke-width="2"/>
          <path id="Path_305-5" data-name="Path 305" d="M57.036,112.94a1.261,1.261,0,0,1-.444,1.784,1.4,1.4,0,0,1-1.87-.433,1.258,1.258,0,0,1,.431-1.788,1.412,1.412,0,0,1,1.883.436" transform="translate(-45.217 -93.159)" fill="#389244"/>
          <path id="Path_306-5" data-name="Path 306" d="M176.6,50.691a1.221,1.221,0,0,1-.587,1.745,1.534,1.534,0,0,1-1.933-.585,1.218,1.218,0,0,1,.574-1.749,1.54,1.54,0,0,1,1.946.589" transform="translate(-144.248 -41.444)" fill="#389244"/>
          <path id="Path_307-5" data-name="Path 307" d="M99.035,61.653q.676-.351,1.355-.7.045-.476.089-.952Q98,61.267,95.566,62.579l-.073.954.837-.451a3.345,3.345,0,0,1,1.592-.405,2.274,2.274,0,0,1,.73.109q-1.108.58-2.206,1.17-.038.477-.077.953,1.455-.784,2.927-1.552a1.327,1.327,0,0,1-.354,1.615,6.9,6.9,0,0,1-1.774,1.2l.412.663q1.814.558,3.616,1.141a3.543,3.543,0,0,0,2.677-.2q-2.526-.817-5.078-1.584c-.006,0,2.439-1.574,1.581-3.4l.879-.45.093-.952q-.724.367-1.443.739a1.9,1.9,0,0,0-.87-.481" transform="translate(-79.208 -49.769)" fill="#225929"/>
        </g>
      </g>
    </g>
  </g>
</svg>
